<svg width="221" height="74" viewBox="0 0 221 74" fill="none" xmlns="http://www.w3.org/2000/svg">
<g clip-path="url(#clip0_1_10417)">
<path d="M202.832 0.0002405H17.5597C16.8844 0.0002405 16.2171 0.0002405 15.5436 0.0039405C14.9797 0.0076405 14.4204 0.018389 13.8512 0.0274355C12.6145 0.0420538 11.3808 0.151342 10.1607 0.354349C8.94226 0.561776 7.76202 0.952835 6.65987 1.5143C5.55907 2.08051 4.55324 2.81625 3.67886 3.69482C2.79989 4.57092 2.0672 5.58357 1.50897 6.69384C0.949195 7.80189 0.561046 8.98928 0.357928 10.215C0.152878 11.4391 0.0425395 12.6774 0.0279013 13.9187C0.0108106 14.4859 0.00900575 15.055 0 15.6223V58.3836C0.00900575 58.9581 0.0108106 59.5146 0.0279013 60.0892C0.042544 61.3304 0.152883 62.5686 0.357928 63.7927C0.560485 65.0191 0.948658 66.2072 1.50897 67.3156C2.06695 68.4223 2.79974 69.4309 3.67886 70.3021C4.54992 71.1846 5.5564 71.9208 6.65987 72.4827C7.76201 73.0456 8.94212 73.439 10.1607 73.6497C11.381 73.851 12.6146 73.9604 13.8512 73.9767C14.4204 73.9893 14.9797 73.9965 15.5436 73.9965C16.2171 74.0002 16.8844 74.0002 17.5597 74.0002H202.832C203.493 74.0002 204.166 74.0002 204.828 73.9965C205.389 73.9965 205.965 73.9893 206.526 73.9767C207.76 73.9612 208.991 73.8519 210.209 73.6497C211.432 73.4376 212.616 73.0443 213.723 72.4827C214.826 71.9205 215.831 71.1843 216.702 70.3021C217.579 69.4274 218.313 68.4196 218.878 67.3156C219.434 66.2064 219.818 65.0184 220.018 63.7927C220.223 62.5684 220.338 61.3305 220.36 60.0892C220.367 59.5146 220.367 58.9581 220.367 58.3836C220.381 57.7115 220.381 57.0431 220.381 56.3601V17.6421C220.381 16.9646 220.381 16.2925 220.367 15.6223C220.367 15.055 220.367 14.4859 220.36 13.9186C220.338 12.6772 220.223 11.4392 220.018 10.2149C219.818 8.98991 219.433 7.80262 218.878 6.69376C217.741 4.46835 215.938 2.65689 213.723 1.51413C212.616 0.95404 211.431 0.563085 210.209 0.354182C208.991 0.150281 207.76 0.0409549 206.526 0.0271765C205.965 0.0181485 205.389 0.0073075 204.828 0.0037C204.166 -3.31336e-10 203.493 0.0002405 202.832 0.0002405Z" fill="black"/>
<path d="M15.5541 72.3816C14.993 72.3816 14.4455 72.3744 13.8887 72.3618C12.7355 72.3467 11.5849 72.2459 10.4464 72.0601C9.38486 71.8764 8.35649 71.5348 7.39525 71.0465C6.44281 70.5622 5.57412 69.9272 4.82244 69.1658C4.05988 68.4133 3.42501 67.5406 2.943 66.5823C2.45567 65.6176 2.11842 64.5837 1.94297 63.5164C1.75351 62.3697 1.651 61.2101 1.63634 60.0477C1.62466 59.6575 1.60938 58.3585 1.60938 58.3585V15.6224C1.60938 15.6224 1.62566 14.3433 1.63643 13.9675C1.65047 12.807 1.75238 11.6492 1.94128 10.5042C2.11705 9.434 2.45457 8.39708 2.94215 7.42931C3.42239 6.47159 4.05374 5.59823 4.8117 4.8431C5.56882 4.08079 6.44029 3.44251 7.39434 2.95153C8.35338 2.46476 9.3798 2.12555 10.4392 1.94524C11.5814 1.75759 12.736 1.65613 13.8933 1.64173L15.555 1.61914H204.82L206.502 1.64264C207.649 1.65632 208.793 1.75687 209.925 1.94343C210.995 2.12599 212.032 2.46758 213.002 2.95695C214.913 3.94641 216.468 5.51184 217.449 7.43382C217.929 8.39491 218.262 9.42338 218.435 10.4843C218.626 11.6387 218.733 12.8056 218.755 13.9757C218.761 14.4996 218.761 15.0624 218.761 15.6224C218.775 16.3162 218.775 16.9765 218.775 17.6422V56.3603C218.775 57.0324 218.775 57.6882 218.761 58.3494C218.761 58.951 218.761 59.5021 218.753 60.0693C218.732 61.2185 218.627 62.3646 218.439 63.4983C218.267 64.5733 217.931 65.6153 217.444 66.5878C216.959 67.5358 216.328 68.4009 215.574 69.1514C214.821 69.9169 213.951 70.5556 212.997 71.043C212.029 71.5351 210.994 71.878 209.925 72.0601C208.786 72.2469 207.636 72.3477 206.482 72.3618C205.943 72.3744 205.378 72.3816 204.829 72.3816L202.833 72.3853L15.5541 72.3816Z" fill="white"/>
<path d="M77.9055 50.2085H69.1881L67.0947 56.4179H63.4023L71.6593 33.4446H75.4955L83.7524 56.4179H79.9971L77.9055 50.2085ZM70.091 47.3431H77.0009L73.5945 37.2657H73.4991L70.091 47.3431ZM101.585 48.0441C101.585 53.249 98.8113 56.5931 94.6261 56.5931C92.4629 56.7068 90.4252 55.5686 89.3799 53.6627H89.3007V61.9588H85.8782V39.6685H89.191V42.4543H89.254C90.3457 40.5604 92.3856 39.4227 94.5631 39.4933C98.7951 39.4933 101.585 42.8536 101.585 48.0441ZM98.0667 48.0441C98.0667 44.6531 96.3221 42.4236 93.6603 42.4236C91.0453 42.4236 89.2864 44.7 89.2864 48.0441C89.2864 51.4189 91.0453 53.679 93.6603 53.679C96.3221 53.679 98.0667 51.4659 98.0667 48.0441ZM119.937 48.0441C119.937 53.249 117.163 56.5931 112.978 56.5931C110.815 56.7068 108.777 55.5686 107.732 53.6627H107.653V61.9588H104.23V39.6685H107.543V42.4543H107.606C108.698 40.5604 110.737 39.4227 112.915 39.4933C117.147 39.4933 119.937 42.8536 119.937 48.0441ZM116.419 48.0441C116.419 44.6531 114.674 42.4236 112.012 42.4236C109.397 42.4236 107.638 44.7 107.638 48.0441C107.638 51.4189 109.397 53.679 112.012 53.679C114.674 53.679 116.419 51.4659 116.419 48.0441ZM132.065 50.0169C132.318 52.2951 134.521 53.7909 137.532 53.7909C140.417 53.7909 142.492 52.295 142.492 50.2409C142.492 48.4577 141.241 47.39 138.277 46.6583L135.313 45.9411C131.113 44.9221 129.164 42.9493 129.164 39.7479C129.164 35.7841 132.602 33.0615 137.484 33.0615C142.318 33.0615 145.631 35.7841 145.742 39.7479H142.287C142.081 37.4553 140.194 36.0714 137.437 36.0714C134.68 36.0714 132.793 37.4716 132.793 39.5094C132.793 41.1336 133.998 42.0893 136.946 42.8209L139.465 43.4424C144.158 44.5571 146.106 46.4505 146.106 49.8108C146.106 54.1088 142.699 56.8007 137.278 56.8007C132.207 56.8007 128.782 54.1721 128.561 50.0168L132.065 50.0169ZM153.496 35.7047V39.6685H156.666V42.3911H153.496V51.6248C153.496 53.0593 154.131 53.7278 155.524 53.7278C155.901 53.7212 156.277 53.6946 156.65 53.6482V56.3546C156.024 56.4722 155.387 56.5255 154.749 56.5136C151.373 56.5136 150.057 55.2399 150.057 51.9915V42.3911H147.633V39.6685H150.057V35.7047H153.496ZM158.501 48.0441C158.501 42.7741 161.591 39.4626 166.409 39.4626C171.243 39.4626 174.319 42.7741 174.319 48.0441C174.319 53.3285 171.259 56.6256 166.409 56.6256C161.56 56.6256 158.501 53.3285 158.501 48.0441ZM170.831 48.0441C170.831 44.429 169.182 42.2954 166.409 42.2954C163.636 42.2954 161.986 44.4453 161.986 48.0441C161.986 51.6736 163.636 53.791 166.409 53.791C169.182 53.791 170.831 51.6736 170.831 48.0441ZM177.141 39.6685H180.405V42.5194H180.484C180.939 40.6841 182.613 39.4211 184.495 39.4932C184.889 39.4919 185.282 39.5349 185.667 39.6215V42.8373C185.169 42.6845 184.65 42.6143 184.129 42.6296C183.123 42.5886 182.15 42.9914 181.464 43.7323C180.778 44.4731 180.449 45.478 180.563 46.4831V56.4178H177.141L177.141 39.6685ZM201.447 51.4984C200.987 54.539 198.039 56.6256 194.268 56.6256C189.417 56.6256 186.406 53.361 186.406 48.1236C186.406 42.8699 189.433 39.4625 194.124 39.4625C198.737 39.4625 201.638 42.6458 201.638 47.7243V48.9022H189.861V49.11C189.751 50.357 190.18 51.5913 191.038 52.499C191.896 53.4067 193.101 53.9003 194.347 53.8542C196.008 54.0106 197.574 53.0525 198.197 51.4984L201.447 51.4984ZM189.878 46.4994L198.214 46.4994C198.276 45.3789 197.87 44.2832 197.093 43.4763C196.317 42.6693 195.241 42.2243 194.124 42.2484C192.998 42.2416 191.916 42.6869 191.119 43.4852C190.322 44.2834 189.875 45.3686 189.878 46.4994Z" fill="black"/>
<path d="M69.6607 16.1528C71.1137 16.048 72.5368 16.6033 73.5385 17.6658C74.5401 18.7283 75.0146 20.1861 74.8314 21.6377C74.8314 25.1643 72.934 27.1914 69.6607 27.1914H65.6914V16.1528H69.6607ZM67.3982 25.6303H69.47C70.5084 25.6927 71.5195 25.2817 72.2225 24.5116C72.9255 23.7414 73.2457 22.694 73.094 21.6602C73.2346 20.6308 72.9099 19.592 72.2086 18.8281C71.5073 18.0642 70.5029 17.6551 69.47 17.7127H67.3982V25.6303ZM76.7594 23.0225C76.6172 21.5293 77.3299 20.0842 78.5987 19.2933C79.8675 18.5024 81.4729 18.5024 82.7417 19.2933C84.0105 20.0842 84.7233 21.5293 84.5811 23.0225C84.726 24.5172 84.0139 25.9651 82.744 26.7577C81.4741 27.5503 79.8664 27.5503 78.5965 26.7577C77.3266 25.9651 76.6145 24.5172 76.7594 23.0225ZM82.8977 23.0225C82.8977 21.2167 82.0901 20.1608 80.6729 20.1608C79.2503 20.1608 78.45 21.2167 78.45 23.0225C78.45 24.8427 79.2504 25.8905 80.6729 25.8905C82.0902 25.8905 82.8977 24.8354 82.8977 23.0225ZM94.9782 27.1913H93.2804L91.5665 21.0559H91.437L89.7302 27.1913H88.0486L85.7627 18.8609H87.4227L88.9083 25.2175H89.0306L90.7356 18.8609H92.3057L94.0106 25.2175H94.1401L95.6185 18.8609H97.2551L94.9782 27.1913ZM99.1777 18.8609H100.753V20.1842H100.876C101.301 19.2099 102.295 18.6139 103.35 18.7001C104.168 18.6383 104.969 18.9533 105.527 19.5561C106.085 20.1588 106.341 20.9839 106.221 21.7984V27.1912H104.584V22.2113C104.584 20.8726 104.005 20.2068 102.795 20.2068C102.24 20.1809 101.702 20.3994 101.321 20.8052C100.941 21.211 100.756 21.7635 100.814 22.3179V27.1913H99.1777L99.1777 18.8609ZM108.828 15.6089H110.465V27.1913H108.828V15.6089ZM112.74 23.0225C112.598 21.5292 113.311 20.0841 114.58 19.2932C115.849 18.5023 117.454 18.5023 118.723 19.2932C119.992 20.0841 120.705 21.5292 120.563 23.0225C120.708 24.5173 119.995 25.9651 118.725 26.7577C117.455 27.5502 115.848 27.5502 114.578 26.7577C113.308 25.9651 112.596 24.5173 112.74 23.0225ZM118.878 23.0225C118.878 21.2167 118.071 20.1608 116.654 20.1608C115.231 20.1608 114.431 21.2167 114.431 23.0225C114.431 24.8427 115.231 25.8905 116.654 25.8905C118.071 25.8905 118.878 24.8354 118.878 23.0225ZM122.286 24.8354C122.286 23.3359 123.397 22.4714 125.37 22.3486L127.617 22.2185V21.4995C127.617 20.6196 127.037 20.1228 125.919 20.1228C125.005 20.1228 124.372 20.4598 124.19 21.0487H122.606C122.773 19.6179 124.113 18.7001 125.994 18.7001C128.073 18.7001 129.246 19.7398 129.246 21.4995V27.1913H127.671V26.0206H127.541C127.006 26.8755 126.054 27.3752 125.05 27.3285C124.346 27.4021 123.644 27.1731 123.117 26.6981C122.591 26.2231 122.289 25.5464 122.286 24.8354ZM127.617 24.1236V23.4272L125.591 23.5572C124.449 23.634 123.931 24.0242 123.931 24.7586C123.931 25.5084 124.579 25.9447 125.469 25.9447C125.996 25.9983 126.522 25.8347 126.927 25.4914C127.332 25.1481 127.581 24.6545 127.617 24.1236ZM131.397 23.0225C131.397 20.3902 132.744 18.7227 134.839 18.7227C135.897 18.6737 136.888 19.2432 137.382 20.1842H137.505V15.6089H139.141V27.1913H137.573V25.8751H137.444C136.912 26.8083 135.909 27.3681 134.839 27.3285C132.73 27.3286 131.397 25.6611 131.397 23.0225ZM133.088 23.0225C133.088 24.7894 133.917 25.8526 135.303 25.8526C136.683 25.8526 137.535 24.774 137.535 23.0297C137.535 21.2935 136.674 20.1996 135.303 20.1996C133.926 20.1996 133.088 21.27 133.088 23.0225ZM145.913 23.0225C145.771 21.5293 146.483 20.0842 147.752 19.2933C149.021 18.5024 150.626 18.5024 151.895 19.2933C153.164 20.0842 153.877 21.5293 153.734 23.0225C153.879 24.5172 153.167 25.9651 151.897 26.7577C150.627 27.5503 149.02 27.5503 147.75 26.7577C146.48 25.9651 145.768 24.5172 145.913 23.0225ZM152.051 23.0225C152.051 21.2167 151.243 20.1608 149.826 20.1608C148.404 20.1608 147.603 21.2167 147.603 23.0225C147.603 24.8427 148.404 25.8905 149.826 25.8905C151.243 25.8905 152.051 24.8354 152.051 23.0225ZM155.93 18.8609H157.506V20.1842H157.628C158.053 19.2099 159.047 18.6139 160.103 18.7001C160.92 18.6383 161.721 18.9533 162.28 19.5561C162.838 20.1588 163.093 20.9839 162.973 21.7984V27.1912H161.337V22.2113C161.337 20.8726 160.758 20.2068 159.547 20.2068C158.993 20.1809 158.455 20.3994 158.074 20.8052C157.693 21.211 157.508 21.7635 157.567 22.3179V27.1913H155.93V18.8609ZM172.221 16.7868V18.8988H174.018V20.2836H172.221V24.5671C172.221 25.4397 172.579 25.8218 173.394 25.8218C173.602 25.8212 173.811 25.8085 174.018 25.7839V27.1533C173.724 27.2061 173.426 27.2342 173.128 27.2373C171.308 27.2373 170.583 26.5942 170.583 24.9881V20.2835H169.266V18.8987H170.583V16.7868H172.221ZM176.253 15.6089H177.876V20.1996H178.005C178.451 19.2167 179.462 18.6199 180.534 18.7073C181.347 18.6629 182.137 18.9848 182.689 19.5853C183.241 20.1859 183.498 21.0026 183.39 21.8129V27.1913H181.752V22.2185C181.752 20.8879 181.135 20.214 179.978 20.214C179.409 20.1671 178.848 20.375 178.445 20.7822C178.043 21.1894 177.84 21.7543 177.89 22.326V27.1912H176.254L176.253 15.6089ZM192.933 24.942C192.474 26.5134 190.96 27.5286 189.339 27.3521C188.234 27.3814 187.171 26.921 186.433 26.0929C185.695 25.2649 185.357 24.153 185.509 23.0523C185.361 21.9485 185.698 20.8348 186.432 19.9998C187.165 19.1648 188.224 18.6906 189.332 18.7001C191.64 18.7001 193.032 20.2837 193.032 22.8996V23.4732H187.176V23.5654C187.124 24.1835 187.334 24.795 187.755 25.2493C188.175 25.7037 188.767 25.9588 189.384 25.9519C190.185 26.0484 190.964 25.6495 191.357 24.942L192.933 24.942ZM187.176 22.2573H191.364C191.406 21.692 191.208 21.1352 190.819 20.7242C190.431 20.3133 189.887 20.0863 189.323 20.0993C188.751 20.0921 188.201 20.3172 187.796 20.7235C187.392 21.1298 187.168 21.6829 187.176 22.2573Z" fill="black"/>
<path d="M46.0342 36.7956C46.0761 33.5319 47.7794 30.5173 50.5474 28.8078C48.7933 26.2913 45.9605 24.7529 42.9038 24.6569C39.6878 24.3178 36.57 26.59 34.9312 26.59C33.2607 26.59 30.7375 24.6905 28.0204 24.7467C24.4454 24.8627 21.1934 26.855 19.4541 29.9946C15.7503 36.4363 18.513 45.9035 22.061 51.1105C23.8362 53.6602 25.9108 56.5083 28.6254 56.4073C31.2818 56.2966 32.274 54.7057 35.4805 54.7057C38.6572 54.7057 39.588 56.4073 42.3577 56.3431C45.2082 56.2966 47.0041 53.782 48.717 51.2082C49.9925 49.3914 50.9739 47.3835 51.625 45.2588C48.2395 43.8204 46.0382 40.4881 46.0342 36.7956ZM40.8028 21.2324C42.357 19.3582 43.1227 16.9492 42.9373 14.5171C40.5628 14.7676 38.3695 15.9076 36.7943 17.7099C35.2389 19.4881 34.4509 21.8144 34.604 24.1765C37.0102 24.2014 39.295 23.1163 40.8028 21.2324Z" fill="black"/>
</g>
<defs>
<clipPath id="clip0_1_10417">
<rect width="221" height="74" fill="white"/>
</clipPath>
</defs>
</svg>
