<svg width="24" height="24" viewBox="0 0 24 24" fill="none" xmlns="http://www.w3.org/2000/svg">
	<path d="M7.08108 2.31968L6.4214 2.97481C6.21538 3.18099 6.10188 3.4553 6.10188 3.74847C6.10188 4.04148 6.21538 4.31612 6.4214 4.5223L13.895 11.9955L6.4131 19.4774C6.20708 19.6832 6.09375 19.9579 6.09375 20.2509C6.09375 20.5439 6.20708 20.8187 6.4131 21.0247L7.06872 21.68C7.49506 22.1067 8.18954 22.1067 8.61588 21.68L17.556 12.772C17.7618 12.5661 17.9069 12.2918 17.9069 11.9962V11.9928C17.9069 11.6996 17.7616 11.4253 17.556 11.2194L8.64011 2.31968C8.43426 2.1135 8.15165 2.00033 7.85864 2C7.56547 2 7.28677 2.1135 7.08108 2.31968Z" fill="currentColor"/>
</svg>
