<svg width="24" height="24" viewBox="0 0 24 24" fill="none" xmlns="http://www.w3.org/2000/svg">
	<path d="M16.9189 2.31968L17.5786 2.97481C17.7846 3.18099 17.8981 3.4553 17.8981 3.74847C17.8981 4.04148 17.7846 4.31612 17.5786 4.5223L10.105 11.9955L17.5869 19.4774C17.7929 19.6832 17.9062 19.9579 17.9062 20.2509C17.9062 20.5439 17.7929 20.8187 17.5869 21.0247L16.9313 21.68C16.5049 22.1067 15.8105 22.1067 15.3841 21.68L6.44405 12.772C6.23819 12.5661 6.09315 12.2918 6.09315 11.9962V11.9928C6.09315 11.6996 6.23835 11.4253 6.44405 11.2194L15.3599 2.31968C15.5657 2.1135 15.8483 2.00033 16.1414 2C16.4345 2 16.7132 2.1135 16.9189 2.31968Z" fill="currentColor"/>
</svg>
