<svg width="25" height="24" viewBox="0 0 25 24" fill="none" xmlns="http://www.w3.org/2000/svg">
<path fill-rule="evenodd" clip-rule="evenodd" d="M12.7166 2C7.24406 2 2.8125 6.48 2.8125 12C2.8125 17.52 7.24406 22 12.7166 22C18.199 22 22.6405 17.52 22.6405 12C22.6405 6.48 18.199 2 12.7166 2ZM12.7281 20C8.34609 20 4.79688 16.42 4.79688 12C4.79688 7.58 8.34609 4 12.7281 4C17.1101 4 20.6593 7.58 20.6593 12C20.6593 16.42 17.1101 20 12.7281 20Z" fill="#1795D1" fill-opacity="0.99"/>
<path fill-rule="evenodd" clip-rule="evenodd" d="M13.2215 7H11.7344V13L16.9392 16.15L17.6828 14.92L13.2215 12.25V7Z" fill="#1795D1" fill-opacity="0.99"/>
</svg>
