<svg width="16" height="16" viewBox="0 0 16 16" fill="none" xmlns="http://www.w3.org/2000/svg">
<g id="Icon/Cancel">
<path id="Cancel" fill-rule="evenodd" clip-rule="evenodd" d="M11.5286 3.52876C11.7889 3.26841 12.2111 3.26841 12.4714 3.52876C12.7317 3.78911 12.7317 4.21122 12.4714 4.47157L8.9428 8.00016L12.4714 11.5288C12.7317 11.7891 12.7317 12.2112 12.4714 12.4716C12.2111 12.7319 11.7889 12.7319 11.5286 12.4716L8 8.94297L4.4714 12.4716C4.21105 12.7319 3.78894 12.7319 3.52859 12.4716C3.26824 12.2112 3.26824 11.7891 3.52859 11.5288L7.05719 8.00016L3.52859 4.47157C3.26824 4.21122 3.26824 3.78911 3.52859 3.52876C3.78894 3.26841 4.21105 3.26841 4.4714 3.52876L8 7.05735L11.5286 3.52876Z" fill="#A9A9AA"/>
</g>
</svg>
