<svg width="25" height="26" viewBox="0 0 25 26" fill="none" xmlns="http://www.w3.org/2000/svg">
	<path d="M10.6771 12.2188H0.78125C0.35 12.2188 0 11.8687 0 11.4375C0 11.0063 0.35 10.6562 0.78125 10.6562H10.6771C11.1084 10.6562 11.4584 11.0063 11.4584 11.4375C11.4584 11.8687 11.1084 12.2188 10.6771 12.2188Z" fill="currentColor"/>
	<path d="M6.76936 16.1239C6.66674 16.1241 6.5651 16.104 6.47032 16.0647C6.37553 16.0254 6.28949 15.9676 6.21716 15.8948C5.91199 15.5895 5.91199 15.0947 6.21716 14.7895L9.57146 11.4354L6.21716 8.08234C5.91199 7.77697 5.91199 7.28219 6.21716 6.97702C6.52234 6.67184 7.01711 6.67184 7.32249 6.97702L11.2287 10.8833C11.5339 11.1884 11.5339 11.6832 11.2287 11.9886L7.32249 15.8948C7.24992 15.9676 7.16369 16.0252 7.06877 16.0645C6.97385 16.1039 6.8721 16.124 6.76936 16.1239ZM16.6651 25.4989C15.5161 25.4989 14.5819 24.5645 14.5819 23.4155V4.66549C14.5819 3.77497 15.1485 2.98014 15.9922 2.68737L22.2506 0.600943C23.6506 0.171744 24.9985 1.21032 24.9985 2.58229V21.3323C24.9985 22.2219 24.4318 23.0155 23.5891 23.3092L17.3286 25.3968C17.1005 25.4676 16.8892 25.4989 16.6651 25.4989ZM22.9151 2.06139C22.8473 2.06139 22.7901 2.06979 22.7287 2.08849L16.4965 4.16652C16.2922 4.23747 16.1444 4.44367 16.1444 4.66549V23.4155C16.1444 23.7708 16.5296 24.0104 16.8516 23.9093L23.0839 21.8313C23.287 21.7603 23.436 21.5541 23.436 21.3323V2.58229C23.436 2.29582 23.2027 2.06139 22.9151 2.06139Z" fill="currentColor"/>
	<path d="M9.11328 5.7084C8.68203 5.7084 8.33203 5.3584 8.33203 4.92715V3.36465C8.33203 1.78442 9.61621 0.5 11.1965 0.5H22.9152C23.3465 0.5 23.6965 0.85 23.6965 1.28125C23.6965 1.7125 23.3465 2.0625 22.9152 2.0625H11.1965C10.4787 2.0625 9.89453 2.64692 9.89453 3.36465V4.92715C9.89453 5.3584 9.54453 5.7084 9.11328 5.7084ZM15.3633 22.375H11.1965C9.61626 22.375 8.33203 21.0906 8.33203 19.5104V17.9479C8.33203 17.5166 8.68203 17.1666 9.11328 17.1666C9.54453 17.1666 9.89453 17.5166 9.89453 17.9479V19.5104C9.89453 20.2281 10.4788 20.8125 11.1965 20.8125H15.3633C15.7945 20.8125 16.1445 21.1625 16.1445 21.5938C16.1445 22.025 15.7945 22.375 15.3633 22.375Z" fill="currentColor"/>
</svg>
