<svg width="20" height="21" viewBox="0 0 20 21" fill="none" xmlns="http://www.w3.org/2000/svg">
<path d="M9.9999 1C11.7175 1.00217 13.3678 1.70902 14.5878 2.97138C15.8085 4.23446 16.498 5.95051 16.5 7.74391C16.4999 8.88665 16.1363 10.199 15.5573 11.554C14.9806 12.9033 14.205 14.2612 13.4145 15.4856C11.8334 17.9344 10.2178 19.8102 10.0913 19.9559C10.078 19.9712 10.0628 19.9823 10.0473 19.9894C10.0318 19.9966 10.0157 20 10 20C9.9843 20 9.96825 19.9966 9.95272 19.9894C9.93714 19.9823 9.92187 19.9711 9.90855 19.9558L9.90834 19.9556C9.78227 19.8106 8.16668 17.9348 6.58553 15.486C5.79499 14.2616 5.01936 12.9036 4.44274 11.5543C3.86365 10.1991 3.50006 8.88654 3.5 7.74362C3.50203 5.95034 4.19152 4.2344 5.41208 2.97139C6.63202 1.70902 8.28229 1.00217 9.9999 1ZM9.9999 11.8876H10.0005C11.0722 11.8863 12.0961 11.4451 12.8485 10.6665C13.6004 9.88844 14.0205 8.8371 14.0217 7.74391V7.74335C14.0217 6.92742 13.788 6.12848 13.3482 5.44747C12.9084 4.76628 12.2814 4.23271 11.5446 3.91691C10.8076 3.60103 9.99562 3.51808 9.21203 3.67936C8.42858 3.84062 7.71136 4.2382 7.15008 4.819C6.58897 5.39962 6.20868 6.13734 6.05477 6.938C5.90087 7.7386 5.97972 8.56862 6.282 9.32377C6.58433 10.079 7.09741 10.7273 7.75894 11.1847C8.4207 11.6423 9.20059 11.8876 9.9999 11.8876Z" stroke="currentColor"/>
</svg>
