<svg width="248" height="74" viewBox="0 0 248 74" fill="none" xmlns="http://www.w3.org/2000/svg">
<g clip-path="url(#clip0_1_10427)">
<path d="M238.801 0H9.199C4.11853 0 0 4.13578 0 9.23752V64.7625C0 69.8642 4.11853 74 9.199 74H238.801C243.881 74 248 69.8642 248 64.7625V9.23752C248 4.13578 243.881 0 238.801 0Z" fill="black"/>
<path d="M238.815 1.48C243.076 1.48 246.53 4.95875 246.53 9.25V64.75C246.53 69.0413 243.076 72.52 238.815 72.52H9.18519C4.924 72.52 1.46963 69.0413 1.46963 64.75V9.25C1.46963 4.95875 4.924 1.48 9.18519 1.48H238.815ZM238.815 0H9.18519C4.11235 0 0 4.14137 0 9.25V64.75C0 69.8586 4.11235 74 9.18519 74H238.815C243.888 74 248 69.8586 248 64.75V9.25C248 4.14137 243.888 0 238.815 0Z" fill="#A6A6A6"/>
<path d="M125.177 40.2372C120.869 40.2576 117.392 43.7868 117.406 48.1243C117.419 52.4618 120.918 55.9689 125.225 55.9621C129.533 55.9553 133.021 52.4372 133.021 48.0997C133.051 45.9988 132.233 43.9755 130.754 42.4933C129.275 41.0111 127.263 40.1969 125.177 40.2372ZM125.177 52.8727C123.235 53.0094 121.408 51.9372 120.569 50.1688C119.73 48.4005 120.05 46.2954 121.376 44.8604C122.701 43.4255 124.763 42.9523 126.575 43.6673C128.387 44.3822 129.581 46.1399 129.585 48.0997C129.645 49.3257 129.211 50.5239 128.381 51.4226C127.55 52.3213 126.395 52.8443 125.177 52.8727ZM108.074 40.2372C103.764 40.2474 100.278 43.7721 100.285 48.112C100.291 52.4519 103.789 55.9656 108.098 55.9622C112.408 55.9588 115.899 52.4396 115.899 48.0997C115.93 45.9988 115.112 43.9755 113.633 42.4933C112.154 41.0111 110.141 40.1969 108.055 40.2372H108.074ZM108.074 52.8727C106.131 53.0171 104.299 51.9503 103.454 50.183C102.609 48.4157 102.924 46.3079 104.248 44.8691C105.571 43.4302 107.634 42.9532 109.448 43.6665C111.263 44.3799 112.459 46.1383 112.464 48.0997C112.524 49.3257 112.09 50.5239 111.259 51.4226C110.429 52.3213 109.274 52.8443 108.055 52.8727H108.074ZM87.701 42.6607V45.9907H95.637C95.5125 47.5592 94.8651 49.0391 93.7999 50.1902C92.1944 51.8371 89.9725 52.7241 87.6826 52.6322C82.8127 52.6322 78.8648 48.6565 78.8648 43.7522C78.8648 38.8479 82.8127 34.8722 87.6826 34.8722C89.9197 34.8355 92.08 35.6937 93.6897 37.2587L96.0227 34.9092C93.8273 32.6705 90.8252 31.4224 87.701 31.4497C83.2534 31.2754 79.0676 33.5655 76.7924 37.4179C74.5171 41.2703 74.5171 46.0676 76.7924 49.92C79.0676 53.7724 83.2534 56.0625 87.701 55.8882C90.8823 56.033 93.9703 54.785 96.1697 52.4657C98.0943 50.3362 99.1219 47.5369 99.0355 44.6587C99.0414 43.9575 98.9799 43.2574 98.8518 42.5682L87.701 42.6607ZM170.937 45.2507C169.956 42.3448 167.296 40.3502 164.25 40.2372C162.219 40.2332 160.277 41.076 158.885 42.5655C157.493 44.055 156.775 46.0583 156.902 48.0997C156.857 50.1889 157.657 52.2068 159.12 53.6896C160.582 55.1725 162.58 55.9929 164.654 55.9622C167.265 55.9764 169.707 54.6699 171.158 52.4842L168.494 50.6342C167.685 51.992 166.227 52.8212 164.654 52.8172C163.026 52.8797 161.525 51.9333 160.87 50.4307L171.323 46.0832L170.937 45.2507ZM160.282 47.8777C160.207 46.7218 160.597 45.584 161.364 44.7209C162.131 43.8577 163.211 43.3419 164.361 43.2897C165.572 43.2093 166.714 43.8645 167.263 44.9547L160.282 47.8777ZM151.795 55.4997H155.23V32.3747H151.795V55.4997ZM146.174 41.9947H146.045C144.998 40.8157 143.501 40.1426 141.93 40.1447C137.76 40.3483 134.484 43.8123 134.484 48.0165C134.484 52.2206 137.76 55.6846 141.93 55.8882C143.506 55.9149 145.013 55.2375 146.045 54.0382H146.155V55.1667C146.155 58.1822 144.557 59.7917 141.985 59.7917C140.233 59.7504 138.68 58.6466 138.054 56.9982L135.06 58.2562C136.213 61.0808 138.953 62.918 141.985 62.8997C146.009 62.8997 149.334 60.5132 149.334 54.7042V40.6997H146.174V41.9947ZM142.243 52.8727C139.786 52.6547 137.902 50.583 137.902 48.0997C137.902 45.6165 139.786 43.5447 142.243 43.3267C143.43 43.3881 144.542 43.9294 145.327 44.828C146.112 45.7266 146.503 46.9063 146.413 48.0997C146.514 49.2986 146.124 50.487 145.332 51.3886C144.541 52.2902 143.418 52.8265 142.224 52.8727H142.243ZM187.03 32.3747H178.818V55.4997H182.253V46.7307H187.048C189.717 46.9238 192.269 45.5995 193.662 43.2989C195.054 40.9984 195.054 38.1071 193.662 35.8065C192.269 33.506 189.717 32.1816 187.048 32.3747H187.03ZM187.03 43.4747H182.235V35.5937H187.103C189.279 35.5937 191.043 37.3704 191.043 39.562C191.043 41.7536 189.279 43.5302 187.103 43.5302L187.03 43.4747ZM208.211 40.1447C205.655 39.9909 203.252 41.3788 202.093 43.6782L205.143 44.9547C205.757 43.8145 206.982 43.147 208.266 43.2527C209.147 43.1491 210.032 43.4062 210.723 43.9663C211.414 44.5264 211.852 45.3424 211.94 46.2312V46.4717C210.836 45.8834 209.606 45.5784 208.358 45.5837C205.069 45.5837 201.744 47.4337 201.744 50.7822C201.81 52.2247 202.452 53.5791 203.525 54.5373C204.597 55.4956 206.009 55.9761 207.439 55.8697C209.201 55.9971 210.892 55.1458 211.848 53.6497H211.958V55.4997H215.265V46.6012C215.265 42.5497 212.215 40.2002 208.302 40.2002L208.211 40.1447ZM207.788 52.8172C206.667 52.8172 205.106 52.2437 205.106 50.8562C205.106 49.0062 207.053 48.3957 208.78 48.3957C209.871 48.3686 210.95 48.6369 211.903 49.1727C211.665 51.2436 209.949 52.8219 207.88 52.8727L207.788 52.8172ZM227.316 40.6997L223.385 50.7267H223.274L219.196 40.6997H215.522L221.639 54.7227L218.149 62.5112H221.731L231.137 40.6997H227.316ZM196.435 55.4997H199.87V32.3747H196.435V55.4997Z" fill="white"/>
<path d="M87.11 18.9437C87.1731 20.315 86.6751 21.6524 85.7322 22.6437C84.6786 23.746 83.209 24.3447 81.6908 24.2902C79.362 24.2719 77.2711 22.8495 76.3848 20.6807C75.4985 18.512 75.9896 16.0195 77.6309 14.3557C78.6974 13.2593 80.1671 12.6565 81.6908 12.6907C82.4674 12.6881 83.2363 12.8455 83.9503 13.1532C84.6151 13.4232 85.2068 13.848 85.6771 14.3927L84.7035 15.3732C83.9601 14.4828 82.8442 13.9963 81.6908 14.0597C80.5313 14.054 79.4196 14.5242 78.612 15.362C77.8043 16.1998 77.3705 17.3328 77.4105 18.4997C77.3859 20.2631 78.4171 21.8683 80.0244 22.5684C81.6318 23.2684 83.4995 22.9259 84.7586 21.7002C85.3239 21.0833 85.6499 20.2822 85.6771 19.4432H81.6908V18.1112H87.0365C87.0855 18.386 87.1101 18.6646 87.11 18.9437ZM95.5237 14.3187H90.5636V17.8337H95.0828V19.1657H90.5636V22.6807H95.5237V24.0497H89.094V12.9497H95.5237V14.3187ZM101.549 24.0497H100.135V14.3187H97.0484V12.9497H104.709V14.3187H101.549V24.0497ZM110.11 24.0497V12.9497H111.524V24.0497H110.11ZM117.807 24.0497H116.392V14.3187H113.306V12.9497H120.875V14.3187H117.807V24.0497ZM135.222 22.6067C132.986 24.8456 129.375 24.8456 127.139 22.6067C124.972 20.2965 124.972 16.6844 127.139 14.3742C128.208 13.2897 129.663 12.6797 131.181 12.6797C132.698 12.6797 134.153 13.2897 135.222 14.3742C137.398 16.6807 137.398 20.3002 135.222 22.6067ZM128.186 21.6817C129.842 23.3422 132.519 23.3422 134.175 21.6817C135.801 19.8764 135.801 17.123 134.175 15.3177C132.519 13.6572 129.842 13.6572 128.186 15.3177C126.56 17.123 126.56 19.8764 128.186 21.6817ZM138.841 24.0497V12.9497H140.568L145.932 21.5892V12.9497H147.346V24.0497H145.877L140.274 15.0032V24.0497H138.841Z" fill="white" stroke="white" stroke-width="0.5"/>
<path d="M19.1797 13.9488C18.581 14.6724 18.2788 15.5987 18.3347 16.5388V57.4608C18.2788 58.401 18.581 59.3273 19.1797 60.0508L19.3083 60.1803L42.0692 37.2773V36.7408L19.3083 13.8193L19.1797 13.9488Z" fill="url(#paint0_linear_1_10427)"/>
<path d="M49.6022 44.918L42.0703 37.2775V36.741L49.6022 29.082L49.7675 29.1745L58.7873 34.336C61.3592 35.7975 61.3592 38.2025 58.7873 39.6825L49.8042 44.8255L49.6022 44.918Z" fill="url(#paint1_linear_1_10427)"/>
<path d="M49.8215 44.807L42.0692 37L19.1797 60.051C20.2612 61.0084 21.8662 61.055 23.0007 60.162L49.8398 44.807" fill="url(#paint2_linear_1_10427)"/>
<path d="M49.8242 29.1929L22.9851 13.8379C21.8506 12.9449 20.2456 12.9915 19.1641 13.9489L42.0719 36.9999L49.8242 29.1929Z" fill="url(#paint3_linear_1_10427)"/>
<path opacity="0.2" d="M49.601 44.6406L22.9824 59.9031C21.8931 60.7233 20.3976 60.7233 19.3083 59.9031L19.1797 60.0326L19.3083 60.1621C20.3955 60.9885 21.8951 60.9885 22.9824 60.1621L49.8215 44.8071L49.601 44.6406Z" fill="black"/>
<path opacity="0.12" d="M19.1797 59.792C18.581 59.0684 18.2788 58.1422 18.3347 57.202V57.4795C18.2788 58.4197 18.581 59.3459 19.1797 60.0695L19.3083 59.94L19.1797 59.792ZM58.7863 39.405L49.6011 44.6405L49.7664 44.807L58.7863 39.664C59.828 39.1712 60.5286 38.1551 60.6233 37C60.4139 38.045 59.7355 38.9332 58.7863 39.405Z" fill="black"/>
<path opacity="0.25" d="M22.9825 14.097L58.7863 34.595C59.7355 35.0668 60.414 35.9551 60.6234 37C60.5287 35.8449 59.8281 34.8288 58.7863 34.336L22.9825 13.838C20.4106 12.3765 18.3164 13.5975 18.3164 16.5575V16.835C18.3715 13.8565 20.429 12.6355 22.9825 14.097Z" fill="white"/>
</g>
<defs>
<linearGradient id="paint0_linear_1_10427" x1="2190.36" y1="243.219" x2="-1457.58" y2="1206.6" gradientUnits="userSpaceOnUse">
<stop stop-color="#00A0FF"/>
<stop offset="0.01" stop-color="#00A1FF"/>
<stop offset="0.26" stop-color="#00BEFF"/>
<stop offset="0.51" stop-color="#00D2FF"/>
<stop offset="0.76" stop-color="#00DFFF"/>
<stop offset="1" stop-color="#00E3FF"/>
</linearGradient>
<linearGradient id="paint1_linear_1_10427" x1="2049.95" y1="820.882" x2="-2393.84" y2="820.882" gradientUnits="userSpaceOnUse">
<stop stop-color="#FFE000"/>
<stop offset="0.41" stop-color="#FFBD00"/>
<stop offset="0.78" stop-color="#FFA500"/>
<stop offset="1" stop-color="#FF9C00"/>
</linearGradient>
<linearGradient id="paint2_linear_1_10427" x1="2662.68" y1="462.5" x2="-295.43" y2="5403.44" gradientUnits="userSpaceOnUse">
<stop stop-color="#FF3A44"/>
<stop offset="1" stop-color="#C31162"/>
</linearGradient>
<linearGradient id="paint3_linear_1_10427" x1="-555.829" y1="-1273.33" x2="764.535" y2="933.048" gradientUnits="userSpaceOnUse">
<stop stop-color="#32A071"/>
<stop offset="0.07" stop-color="#2DA771"/>
<stop offset="0.48" stop-color="#15CF74"/>
<stop offset="0.8" stop-color="#06E775"/>
<stop offset="1" stop-color="#00F076"/>
</linearGradient>
<clipPath id="clip0_1_10427">
<rect width="248" height="74" fill="white"/>
</clipPath>
</defs>
</svg>
