<svg width="51" height="51" viewBox="0 0 51 51" fill="none" xmlns="http://www.w3.org/2000/svg">
<g clip-path="url(#clip0_2116_189)">
<path d="M22.6667 39.6662C22.6667 41.2245 23.9417 42.4995 25.5 42.4995C27.0583 42.4995 28.3333 41.2245 28.3333 39.6662C28.3333 38.1078 27.0583 36.8328 25.5 36.8328C23.9417 36.8328 22.6667 38.1078 22.6667 39.6662ZM22.6667 -0.000488281V11.3328H28.3333V5.89284C37.9383 7.28118 45.3333 15.4978 45.3333 25.4995C45.3333 36.4645 36.465 45.3328 25.5 45.3328C14.535 45.3328 5.66667 36.4645 5.66667 25.4995C5.66667 20.7395 7.33833 16.3762 10.1433 12.9762L25.5 28.3328L29.495 24.3378L10.2283 5.07118V5.12784C4.02333 9.77451 0 17.1412 0 25.4995C0 39.5812 11.39 50.9995 25.5 50.9995C39.5817 50.9995 51 39.5812 51 25.4995C51 11.4178 39.5817 -0.000488281 25.5 -0.000488281H22.6667ZM42.5 25.4995C42.5 23.9412 41.225 22.6662 39.6667 22.6662C38.1083 22.6662 36.8333 23.9412 36.8333 25.4995C36.8333 27.0578 38.1083 28.3328 39.6667 28.3328C41.225 28.3328 42.5 27.0578 42.5 25.4995ZM8.5 25.4995C8.5 27.0578 9.775 28.3328 11.3333 28.3328C12.8917 28.3328 14.1667 27.0578 14.1667 25.4995C14.1667 23.9412 12.8917 22.6662 11.3333 22.6662C9.775 22.6662 8.5 23.9412 8.5 25.4995Z" fill="#1397D6"/>
</g>
<defs>
<clipPath id="clip0_2116_189">
<rect width="51" height="51" fill="white" transform="translate(0 -0.000488281)"/>
</clipPath>
</defs>
</svg>
