<svg width="52" height="48" viewBox="0 0 52 48" fill="none" xmlns="http://www.w3.org/2000/svg">
<g clip-path="url(#clip0_2116_181)">
<path d="M31.5103 28.6506C37.0403 28.6506 41.5194 24.4045 41.5194 19.1622C41.5194 13.9199 37.0403 9.67383 31.5103 9.67383C25.9803 9.67383 21.5012 13.9199 21.5012 19.1622C21.5012 24.4045 25.9803 28.6506 31.5103 28.6506ZM31.5103 33.3948C24.8293 33.3948 11.4922 36.5734 11.4922 42.8831V47.6273H51.5284V42.8831C51.5284 36.5734 38.1914 33.3948 31.5103 33.3948Z" fill="#1397D6"/>
<path d="M7.40629 13.9098L2.09119 8.50055L0.28125 10.3296L7.40629 17.5809L22.7015 2.01459L20.9043 0.185547L7.40629 13.9098Z" fill="#1397D6"/>
</g>
<defs>
<clipPath id="clip0_2116_181">
<rect width="52" height="48" fill="white" transform="translate(0 -0.000488281)"/>
</clipPath>
</defs>
</svg>
