<svg width="616" height="122" viewBox="0 0 616 122" fill="none" xmlns="http://www.w3.org/2000/svg">
<g clip-path="url(#clip0_722_584)">
<path d="M122.88 20.39L98.65 1.42004L87.27 16.63H29.85C13.92 16.63 1 29.55 1 45.48V79.69C1 91.9901 13.99 103.78 19.53 106.63L43.1 120.26L51.06 108.54H108.64C124.57 108.54 137.49 95.62 137.49 79.69V45.48C137.49 34.73 132.87 29.83 122.88 20.39Z" fill="white" stroke="#2B2B2B" stroke-width="2" stroke-miterlimit="10"/>
<path d="M117.37 31.15L98.8 16.24L89.85 27.9L33.45 27.2C21.13 27.05 11.01 36.91 10.86 49.24L10.53 75.7C10.41 85.21 20.34 94.46 24.61 96.72L42.71 107.49L48.98 98.5L105.51 99.2C117.83 99.35 127.95 89.49 128.1 77.16L128.43 50.7C128.53 42.38 125.01 38.55 117.37 31.15Z" fill="#2B2B2B"/>
<path d="M36.07 71.2701C40.5767 71.2701 44.23 67.6167 44.23 63.1101C44.23 58.6034 40.5767 54.9501 36.07 54.9501C31.5634 54.9501 27.91 58.6034 27.91 63.1101C27.91 67.6167 31.5634 71.2701 36.07 71.2701Z" fill="#0095D4"/>
<path d="M69.43 70.7601C73.9367 70.7601 77.59 67.1067 77.59 62.6001C77.59 58.0934 73.9367 54.4401 69.43 54.4401C64.9234 54.4401 61.27 58.0934 61.27 62.6001C61.27 67.1067 64.9234 70.7601 69.43 70.7601Z" fill="#0095D4"/>
<path d="M102.43 70.7601C106.937 70.7601 110.59 67.1067 110.59 62.6001C110.59 58.0934 106.937 54.4401 102.43 54.4401C97.9234 54.4401 94.27 58.0934 94.27 62.6001C94.27 67.1067 97.9234 70.7601 102.43 70.7601Z" fill="#0095D4"/>
<path d="M171.49 43.03L190.74 62.28H182.99L166.49 45.78H157.75V62.28H152.25V23.78H157.75V40.28H166.49L182.99 23.78H190.74L171.49 43.03Z" fill="white"/>
<path d="M231.44 51.27C231.44 57.32 226.49 62.27 220.44 62.27H203.94C197.84 62.27 192.94 57.38 192.94 51.27V34.77C192.94 28.72 197.89 23.77 203.94 23.77H220.44C226.27 23.77 231.44 28.77 231.44 34.77V51.27ZM225.94 34.77C225.94 31.75 223.47 29.27 220.44 29.27H203.94C200.92 29.27 198.44 31.74 198.44 34.77V51.27C198.44 54.3 200.91 56.77 203.94 56.77H220.44C223.46 56.77 225.94 54.3 225.94 51.27V34.77Z" fill="white"/>
<path d="M241.9 40.28H269.4V23.78H274.9V62.27H269.4V45.77H241.9V62.27H236.4V23.78H241.9V40.28Z" fill="white"/>
<path d="M307.34 23.78C313.22 23.78 318.17 28.67 318.34 34.78H312.84C312.84 31.76 310.37 29.28 307.34 29.28H290.84C287.82 29.28 285.34 31.75 285.34 34.78V51.28C285.34 54.31 287.81 56.78 290.84 56.78H307.34C310.36 56.78 312.84 54.31 312.84 51.28H318.34C318.34 57.11 313.5 62.28 307.34 62.28H290.84C284.96 62.28 279.84 57.5 279.84 51.28V34.78C279.84 28.84 284.68 23.95 290.84 23.78H307.34Z" fill="white"/>
<path d="M349.69 56.77C352.71 56.77 355.19 54.3 355.19 51.27V45.77H333.19C327.31 45.77 322.19 40.99 322.19 34.77V23.77H327.69V34.77C327.69 37.79 330.16 40.27 333.19 40.27H355.19V23.78H360.69V51.28C360.69 57.11 355.85 62.28 349.69 62.28H334.29C328.3 62.28 323.46 57.5 323.29 51.28H328.79C328.79 54.31 331.26 56.78 334.29 56.78H349.69V56.77Z" fill="white"/>
<path d="M404.69 23.78V62.27H399.19V29.28H377.19C374.17 29.28 371.69 31.75 371.69 34.78V62.28H366.19V34.78C366.19 28.84 371.03 23.95 377.19 23.78H404.69Z" fill="white"/>
<path d="M448.69 51.27C448.69 57.1 443.85 62.27 437.69 62.27H410.19V23.78H415.69V37.53H437.69C443.57 37.53 448.52 42.42 448.69 48.53V51.28V51.27ZM443.19 48.52C443.19 45.5 440.72 43.02 437.69 43.02H415.69V56.77H437.69C440.71 56.77 443.19 54.3 443.19 51.27V48.52Z" fill="white"/>
<path d="M472.34 29.28V62.27H466.84V29.28H450.34V23.78H488.84V29.28H472.34Z" fill="white"/>
<path d="M530.09 62.27H524.59V51.27H497.09V62.27H491.59V34.77C491.59 28.94 496.43 23.77 502.59 23.77H519.09C524.97 23.77 529.92 28.66 530.09 34.77V62.27ZM502.59 29.27C499.57 29.27 497.09 31.74 497.09 34.77V45.77H524.59V34.77C524.59 31.75 522.12 29.27 519.09 29.27H502.59Z" fill="white"/>
<path d="M541.09 40.28H568.59V23.78H574.09V62.27H568.59V45.77H541.09V62.27H535.59V23.78H541.09V40.28Z" fill="white"/>
<path d="M598.84 29.28V62.27H593.34V29.28H576.84V23.78H615.34V29.28H598.84Z" fill="white"/>
<path d="M154.7 84.98H157.5V82.18C157.5 79.21 159.96 76.58 163.1 76.58H171.5C174.44 76.58 177.1 79.07 177.1 82.18V90.58C177.1 93.55 174.64 96.18 171.5 96.18H163.1C160.1 96.18 157.5 93.74 157.5 90.58V87.78H154.7V96.18H151.9V76.58H154.7V84.98ZM174.3 82.18C174.3 80.64 173.04 79.38 171.5 79.38H163.1C161.56 79.38 160.3 80.64 160.3 82.18V90.58C160.3 92.12 161.56 93.38 163.1 93.38H171.5C173.04 93.38 174.3 92.12 174.3 90.58V82.18Z" fill="white"/>
<path d="M199.22 84.98C199.22 87.95 196.76 90.58 193.62 90.58H182.42V96.18H179.62V76.58H193.62C196.62 76.58 199.14 79.07 199.22 82.18V84.98ZM196.42 82.18C196.42 80.64 195.16 79.38 193.62 79.38H182.42V87.78H193.62C195.16 87.78 196.42 86.52 196.42 84.98V82.18Z" fill="white"/>
<path d="M201.46 76.58H204.26V92.12L218.26 76.58H221.06V96.18H218.26V80.36L204.26 96.18H201.46V76.58Z" fill="white"/>
<path d="M222.46 93.38H225.26V82.18C225.26 79.21 227.72 76.58 230.86 76.58H244.86V93.38H247.66V96.18H222.46V93.38ZM228.06 93.38H242.06V79.38H230.86C229.32 79.38 228.06 80.64 228.06 82.18V93.38Z" fill="white"/>
<path d="M249.06 76.58H251.86V92.12L265.86 76.58H268.66V96.18H265.86V80.36L251.86 96.18H249.06V76.58Z" fill="white"/>
<path d="M287.98 86.35V76.58H290.78V96.18H287.98V89.15H276.78C273.78 89.15 271.18 86.71 271.18 83.55V76.58H273.98V83.55C273.98 85.09 275.24 86.35 276.78 86.35H287.98Z" fill="white"/>
<path d="M296.38 84.98H310.38V76.58H313.18V96.18H310.38V87.78H296.38V96.18H293.58V76.58H296.38V84.98Z" fill="white"/>
<path d="M315.98 76.58H318.78V92.12L332.78 76.58H335.58V96.18H332.78V80.36L318.78 96.18H315.98V76.58Z" fill="white"/>
<path d="M338.37 76.58H341.17V92.12L355.17 76.58H357.97V96.18H355.17V80.36L341.17 96.18H338.37V76.58ZM353.77 70.98C353.77 73.95 351.31 76.58 348.17 76.58C345.03 76.58 342.65 74.14 342.57 70.98H345.37C345.37 72.52 346.63 73.78 348.17 73.78C349.71 73.78 350.97 72.52 350.97 70.98H353.77Z" fill="white"/>
<path d="M374.77 81.6V96.19H371.97V76.59H374.77L383.17 88.71L391.57 76.59H394.37V96.19H391.57V81.6L383.17 93.72L374.77 81.6Z" fill="white"/>
<path d="M416.77 96.18H413.97V90.58H399.97V96.18H397.17V82.18C397.17 79.21 399.63 76.58 402.77 76.58H411.17C414.16 76.58 416.69 79.07 416.77 82.18V96.18ZM402.77 79.38C401.23 79.38 399.97 80.64 399.97 82.18V87.78H413.97V82.18C413.97 80.64 412.71 79.38 411.17 79.38H402.77Z" fill="white"/>
<path d="M439.17 84.98C439.17 87.95 436.71 90.58 433.57 90.58H422.37V96.18H419.57V76.58H433.57C436.57 76.58 439.09 79.07 439.17 82.18V84.98ZM436.37 82.18C436.37 80.64 435.11 79.38 433.57 79.38H422.37V87.78H433.57C435.11 87.78 436.37 86.52 436.37 84.98V82.18Z" fill="white"/>
<path d="M451.21 86.38L461.01 96.18H457.06L448.66 87.78H444.21V96.18H441.41V76.58H444.21V84.98H448.66L457.06 76.58H461.01L451.21 86.38Z" fill="white"/>
<path d="M465.21 84.98H479.21V87.78H465.21V93.38H482.01V96.18H462.41V76.58H482.01V79.38H465.21V84.98Z" fill="white"/>
<path d="M494.05 79.38V96.18H491.25V79.38H482.85V76.58H502.45V79.38H494.05Z" fill="white"/>
<path d="M523.45 96.18H520.65V79.38H506.65V96.18H503.85V76.58H523.45V96.18Z" fill="white"/>
<path d="M545.85 76.58V96.18H543.05V79.38H531.85C530.31 79.38 529.05 80.64 529.05 82.18V96.18H526.25V82.18C526.25 79.16 528.71 76.66 531.85 76.58H545.85Z" fill="white"/>
<path d="M551.45 84.98H565.45V87.78H551.45V93.38H568.25V96.18H548.65V76.58H568.25V79.38H551.45V84.98Z" fill="white"/>
<path d="M570.49 76.58H573.29V92.12L587.29 76.58H590.09V96.18H587.29V80.36L573.29 96.18H570.49V76.58ZM585.89 70.98C585.89 73.95 583.43 76.58 580.29 76.58C577.15 76.58 574.77 74.14 574.69 70.98H577.49C577.49 72.52 578.75 73.78 580.29 73.78C581.83 73.78 583.09 72.52 583.09 70.98H585.89Z" fill="white"/>
<path d="M606.61 76.58C609.61 76.58 612.13 79.07 612.21 82.18H609.41C609.41 80.64 608.15 79.38 606.61 79.38H598.21C596.67 79.38 595.41 80.64 595.41 82.18V90.58C595.41 92.12 596.67 93.38 598.21 93.38H606.61C608.15 93.38 609.41 92.12 609.41 90.58H612.21C612.21 93.55 609.75 96.18 606.61 96.18H598.21C595.21 96.18 592.61 93.74 592.61 90.58V82.18C592.61 79.16 595.07 76.66 598.21 76.58H606.61Z" fill="white"/>
</g>
<defs>
<clipPath id="clip0_722_584">
<rect width="615.34" height="121.6" fill="white"/>
</clipPath>
</defs>
</svg>
