<svg width="24" height="24" viewBox="0 0 24 24" fill="none" xmlns="http://www.w3.org/2000/svg">
<g clip-path="url(#clip0_206_135807)">
<path d="M12.0022 5.99991C11.0133 5.99991 10.0466 6.29315 9.22437 6.84256C8.40213 7.39196 7.76126 8.17286 7.38283 9.08649C7.00439 10.0001 6.90537 11.0055 7.0983 11.9754C7.29122 12.9453 7.76743 13.8362 8.46669 14.5354C9.16595 15.2347 10.0569 15.7109 11.0268 15.9038C11.9967 16.0968 13.002 15.9977 13.9156 15.6193C14.8293 15.2409 15.6102 14.6 16.1596 13.7778C16.709 12.9555 17.0022 11.9888 17.0022 10.9999C17.0006 9.67431 16.4733 8.40346 15.536 7.46613C14.5987 6.52879 13.3278 6.00149 12.0022 5.99991ZM13.7092 12.7069C13.5217 12.8944 13.2674 12.9997 13.0022 12.9997C12.7371 12.9997 12.4828 12.8944 12.2952 12.7069L11.2952 11.7069C11.1077 11.5194 11.0023 11.2651 11.0022 10.9999V8.99991C11.0022 8.73469 11.1076 8.48034 11.2951 8.2928C11.4827 8.10526 11.737 7.99991 12.0022 7.99991C12.2674 7.99991 12.5218 8.10526 12.7093 8.2928C12.8969 8.48034 13.0022 8.73469 13.0022 8.99991V10.5859L13.7092 11.2929C13.8967 11.4804 14.002 11.7347 14.002 11.9999C14.002 12.2651 13.8967 12.5194 13.7092 12.7069ZM19.7792 3.2219C18.7609 2.1804 17.5458 1.35152 16.2046 0.783372C14.8633 0.21522 13.4226 -0.0808878 11.966 -0.0877679C10.5094 -0.094648 9.06596 0.187837 7.7194 0.743293C6.37285 1.29875 5.15003 2.11611 4.1219 3.14795C3.09377 4.17979 2.28081 5.40554 1.73021 6.75409C1.17961 8.10263 0.90232 9.5471 0.914444 11.0037C0.926568 12.4602 1.22786 13.8999 1.80084 15.2391C2.37381 16.5783 3.20706 17.7903 4.25222 18.8049L8.19422 22.4479C9.20825 23.4394 10.5691 23.9962 11.9874 23.9997C13.4056 24.0033 14.7692 23.4534 15.7882 22.4669L19.7792 18.7779C21.842 16.715 23.0009 13.9172 23.0009 10.9999C23.0009 8.08261 21.842 5.28479 19.7792 3.2219ZM12.0022 17.9999C10.6178 17.9999 9.26438 17.5894 8.11323 16.8202C6.96209 16.051 6.06488 14.9578 5.53507 13.6787C5.00525 12.3996 4.86663 10.9921 5.13673 9.63427C5.40682 8.27641 6.07351 7.02913 7.05248 6.05016C8.03144 5.07119 9.27872 4.4045 10.6366 4.13441C11.9945 3.86431 13.4019 4.00293 14.681 4.53275C15.9601 5.06256 17.0533 5.95977 17.8225 7.11091C18.5917 8.26206 19.0022 9.61544 19.0022 10.9999C19.0001 12.8558 18.2619 14.635 16.9496 15.9473C15.6373 17.2596 13.8581 17.9978 12.0022 17.9999Z" fill="white"/>
</g>
<defs>
<clipPath id="clip0_206_135807">
<rect width="24" height="24" fill="white"/>
</clipPath>
</defs>
</svg>
