<svg width="26" height="26" viewBox="0 0 26 26" fill="none" xmlns="http://www.w3.org/2000/svg">
<path d="M19.941 16.4034C18.95 15.8484 17.9409 16.1938 17.5236 16.739L16.651 17.8315C16.2076 18.3864 15.3791 18.3127 15.3791 18.3127C9.33269 16.7662 7.71577 10.6463 7.71577 10.6463C7.71577 10.6463 7.64154 9.81776 8.19523 9.37342L9.28655 8.50025C9.83221 8.08113 10.1773 7.07214 9.62157 6.08062C8.13705 3.48634 7.14001 2.59184 6.63247 1.90495C6.09884 1.2588 5.2964 1.11328 4.46185 1.54986H4.4438C2.70851 2.53168 0.808725 4.36921 1.41658 6.26107C2.45374 8.25577 4.35954 14.6143 10.434 19.4187C13.2887 21.6909 17.8065 24.0193 19.7243 24.5568L19.7424 24.584C21.6322 25.1932 23.4698 23.2839 24.4507 21.555V21.5415C24.8861 20.7052 24.7416 19.9135 24.1057 19.3954C22.9783 18.3321 21.2771 17.1582 19.941 16.4034Z" fill="#1397D6"/>
</svg>
