<svg width="26" height="38" viewBox="0 0 26 38" fill="none" xmlns="http://www.w3.org/2000/svg">
<path d="M12.9998 0C9.55325 0.00412373 6.24896 1.45541 3.81186 4.03546C1.37477 6.61551 0.00389524 10.1136 0 13.7624C0 23.1801 11.6336 37.0059 12.129 37.5889C12.2388 37.7183 12.3731 37.8217 12.5232 37.8926C12.6732 37.9634 12.8357 38 13 38C13.1643 38 13.3268 37.9634 13.4768 37.8926C13.6269 37.8217 13.7612 37.7183 13.871 37.5889C14.3664 37.0048 26 23.1793 26 13.7624C25.996 10.1136 24.6251 6.61548 22.1879 4.03544C19.7508 1.4554 16.4464 0.00412354 12.9998 0V0ZM12.9998 20.6865C11.7062 20.6865 10.4417 20.2804 9.36613 19.5196C8.29055 18.7587 7.45225 17.6773 6.95721 16.4121C6.46218 15.1469 6.33266 13.7547 6.58502 12.4115C6.83739 11.0684 7.46031 9.83463 8.37501 8.86627C9.28971 7.89792 10.4551 7.23846 11.7238 6.97129C12.9926 6.70412 14.3076 6.84124 15.5027 7.36531C16.6979 7.88938 17.7193 8.77686 18.438 9.91553C19.1567 11.0542 19.5403 12.3929 19.5403 13.7624C19.5383 15.5981 18.8486 17.3581 17.6224 18.6561C16.3963 19.9542 14.7339 20.6844 12.9998 20.6865Z" fill="#1397D6"/>
</svg>
