<svg width="32" height="32" viewBox="0 0 32 32" fill="none" xmlns="http://www.w3.org/2000/svg">
<g clip-path="url(#clip0_55_86099)">
<path fill-rule="evenodd" clip-rule="evenodd" d="M5.29636 0.127202C2.80279 0.650881 0.86484 2.50432 0.171643 5.02846L0 5.65352V15.9983V26.3432L0.171643 26.9682C0.87009 29.5116 2.81585 31.3597 5.33574 31.8732C5.94524 31.9974 6.15814 32 15.9079 32C25.6577 32 25.8706 31.9974 26.4801 31.8732C28.9999 31.3597 30.9457 29.5116 31.6442 26.9682L31.8158 26.3432V15.9983V5.65352L31.6442 5.02846C30.9457 2.48513 28.9999 0.636942 26.4801 0.123452C25.8699 -0.000873842 25.667 -0.00324913 15.8668 0.00112632C6.21733 0.00543927 5.85579 0.0097521 5.29636 0.127202ZM21.9398 2.49939C22.1804 2.53376 22.5236 2.63309 22.7025 2.7201C23.0955 2.9113 23.5454 3.39342 23.6469 3.73233C23.7017 3.91534 23.7212 5.34762 23.7212 9.19689C23.7212 14.9152 23.7328 14.7282 23.3491 15.1937C23.1037 15.4914 22.5218 15.7898 22.0314 15.8693C21.4777 15.9592 10.3381 15.9592 9.78439 15.8693C9.29403 15.7898 8.71209 15.4914 8.46669 15.1937C8.08296 14.7282 8.09459 14.9152 8.09459 9.19689C8.09459 5.34762 8.11409 3.91534 8.16891 3.73233C8.27042 3.39342 8.71997 2.91162 9.11494 2.71835C9.29471 2.6304 9.60981 2.53395 9.8152 2.50407C10.3496 2.42619 21.3975 2.42194 21.9398 2.49939ZM5.79191 2.997L5.62558 3.4658V9.15389V14.842L5.77179 15.3108C6.22558 16.766 7.35514 17.7986 9.00093 18.2626L9.50098 18.4035H15.9079H22.3148L22.8149 18.2626C24.4607 17.7986 25.5902 16.766 26.044 15.3108L26.1902 14.842V9.18514V3.5283L26.0459 3.09076C25.9665 2.85011 25.8876 2.62034 25.8705 2.58008C25.8482 2.52789 25.9406 2.53339 26.1931 2.59933C27.6049 2.968 28.694 3.9946 29.1683 5.4035L29.3155 5.84104V15.9983V26.1556L29.1418 26.6613C28.716 27.901 27.6654 28.9486 26.4811 29.3143C25.9986 29.4634 25.1965 29.5611 24.449 29.5617C23.9433 29.5622 23.8999 29.5527 23.9479 29.4529C24.031 29.2796 24.0518 25.8563 23.9721 25.4722C23.7297 24.3046 22.7471 23.2713 21.5377 22.9123C21.2374 22.8232 20.6024 22.8115 16.0329 22.8115C10.3561 22.8115 10.6205 22.7951 9.82296 23.1977C9.35503 23.4338 8.68627 24.1039 8.424 24.5994C8.0639 25.2797 8.02089 25.6197 8.04546 27.5901C8.05752 28.5545 8.09059 29.3927 8.1189 29.4529C8.16635 29.5535 8.11622 29.5622 7.49184 29.5617C5.71634 29.5604 4.77437 29.2676 3.80989 28.4172C3.36704 28.0268 2.88936 27.2884 2.67396 26.6613L2.50026 26.1556V15.9983V5.84104L2.64752 5.4035C3.11732 4.0076 4.15731 3.01413 5.56308 2.61821C5.76935 2.56014 5.94262 2.51614 5.94818 2.52039C5.95368 2.5247 5.88336 2.73916 5.79191 2.997ZM21.1438 25.4261C21.5173 25.6925 21.5335 25.7754 21.5332 27.4183C21.533 28.7835 21.523 28.9224 21.411 29.106C21.3439 29.2161 21.1963 29.3567 21.0831 29.4185C20.8899 29.5241 20.5783 29.531 16.0329 29.531C11.4875 29.531 11.176 29.5241 10.9828 29.4185C10.8695 29.3567 10.7219 29.2161 10.6549 29.106C10.5428 28.9224 10.5328 28.7835 10.5326 27.4183C10.5323 25.8786 10.5562 25.7129 10.8089 25.5033C11.1063 25.2564 11.1982 25.2523 16.1579 25.2667L20.9397 25.2806L21.1438 25.4261ZM11.72 27.1557V28.1871H12.6888H13.6577V27.1557V26.1244H12.6888H11.72V27.1557Z" fill="#1397D6"/>
</g>
<defs>
<clipPath id="clip0_55_86099">
<rect width="32" height="32" fill="white"/>
</clipPath>
</defs>
</svg>
