<svg width="32" height="32" viewBox="0 0 32 32" fill="none" xmlns="http://www.w3.org/2000/svg">
<g clip-path="url(#clip0_55_86094)">
<path d="M17.1805 10.853L17.1805 10.853C17.8705 10.1449 18.5161 9.49335 19.0005 9.01387C19.2425 8.77429 19.4452 8.5768 19.5934 8.43643C19.6672 8.36646 19.7291 8.30926 19.7762 8.26769C19.7995 8.2471 19.8212 8.22852 19.8401 8.21355L19.8416 8.21232C19.8525 8.20366 19.8876 8.17558 19.9284 8.15856C20.2966 8.00506 20.6703 8.14093 20.9066 8.37525C21.143 8.60964 21.2828 8.98174 21.1476 9.35497M17.1805 10.853L15.1979 15.495L15.0958 15.2668L15.1979 15.495C15.2375 15.4773 15.2728 15.4499 15.2895 15.4369C15.313 15.4186 15.3399 15.396 15.3689 15.3706C15.4272 15.3195 15.5024 15.2502 15.5908 15.1664C15.7681 14.9985 16.0054 14.7662 16.2813 14.4915C16.8335 13.9418 17.5448 13.2181 18.2502 12.4909C18.9555 11.7638 19.6558 11.032 20.1857 10.4661C20.4506 10.1833 20.6739 9.94071 20.8344 9.76039C20.9144 9.67048 20.9805 9.59423 21.0287 9.53536C21.0526 9.50615 21.0741 9.47888 21.0913 9.45508L21.092 9.45414C21.1032 9.43867 21.1315 9.39954 21.1476 9.35497M17.1805 10.853L14.8535 13.2408M17.1805 10.853L14.8535 13.2408M21.1476 9.35497L20.9125 9.26984L21.1476 9.35493C21.1476 9.35494 21.1476 9.35496 21.1476 9.35497ZM14.8535 13.2408L13.9228 12.2803C13.6161 11.9638 13.3174 11.6651 13.0829 11.4384C12.9658 11.3252 12.8636 11.2288 12.7837 11.1567C12.7439 11.1208 12.7082 11.0896 12.6781 11.0649C12.6534 11.0445 12.6172 11.0155 12.5818 10.9962L12.5818 10.9962C12.4004 10.8974 12.2074 10.8482 12.0087 10.8806C11.811 10.9128 11.6417 11.0202 11.4963 11.1696C11.4029 11.2656 11.3216 11.3603 11.271 11.4781C11.2191 11.5988 11.2098 11.7195 11.2098 11.8461L11.2098 11.8519C11.2097 11.9204 11.2097 12.0131 11.2509 12.1219C11.2903 12.2258 11.3602 12.3278 11.4608 12.4498C11.6612 12.693 12.0537 13.0975 12.8093 13.8761L12.8108 13.8777L12.9902 13.7036L14.8535 13.2408ZM10.2539 28.6035L10.4869 28.5127L10.2539 28.6035C10.9223 30.3198 12.3644 31.6105 14.154 32.0964C14.5381 32.2007 15.0344 32.25 15.5202 32.25C16.0059 32.25 16.5022 32.2007 16.8863 32.0964C18.5352 31.6487 19.8906 30.5187 20.6091 28.9892C20.873 28.4274 21.0232 28.0776 21.104 27.5027C21.1821 26.9464 21.1956 26.1761 21.2108 24.7697L21.2362 22.4196L21.6512 22.1592C22.4446 21.6611 23.1493 21.0967 23.7993 20.4385L23.6215 20.2628L23.7993 20.4385C27.7207 16.4677 28.4168 10.2509 25.4875 5.42023L25.2738 5.54985L25.4875 5.42022C24.7324 4.17499 23.5049 2.8375 22.3267 1.9764C21.5577 1.41432 20.1181 0.667834 19.2164 0.36357L19.2163 0.363566C17.6617 -0.160884 16.0666 -0.34962 14.4443 -0.200741C10.7951 0.134101 7.3608 2.33918 5.46911 5.55656C3.6689 8.61827 3.26595 12.2067 4.33869 15.6132C4.63266 16.5468 5.3564 18.0236 5.91062 18.8204C6.77781 20.0672 8.0587 21.3031 9.30571 22.0949L9.8041 22.4113L9.83115 24.7661C9.8465 26.1008 9.85804 26.8226 9.91235 27.3245C9.96854 27.8439 10.0714 28.1349 10.2539 28.6035ZM25.1984 13.8691L25.4437 13.9176L19.76 21.3663L19.5858 21.187L19.5858 21.187L19.4064 21.3612L19.3305 21.4348V21.5405V23.2727V24.7549H15.5202H11.7098V23.2727V21.5405V21.4348L11.6339 21.3612L11.4545 21.187C11.4545 21.187 11.4545 21.187 11.4545 21.187C11.3861 21.1205 11.2627 21.0324 11.1344 20.9481C11.0001 20.86 10.8412 20.7637 10.6889 20.6798L10.5683 20.8988L10.6889 20.6798C8.63843 19.5507 6.93853 17.4506 6.1773 15.0943C5.46853 12.9005 5.4625 10.8467 6.15928 8.62706L6.15928 8.62706C7.10157 5.62499 9.53008 3.15441 12.4909 2.18283L12.4129 1.94529L12.4909 2.18283C13.8329 1.74244 15.0445 1.60069 16.3524 1.72804C18.7187 1.95844 20.7757 2.93182 22.4378 4.60662C24.8119 6.99886 25.8613 10.5155 25.1984 13.8691ZM19.2963 26.7517L19.2963 26.7517C19.1282 28.1778 18.4098 29.2669 17.2431 29.8952L17.3616 30.1153L17.2431 29.8952C16.6935 30.1912 16.1941 30.3138 15.5202 30.3138C13.5441 30.3138 11.9862 28.866 11.7431 26.7524C11.7431 26.7524 11.7431 26.7524 11.7431 26.7524L11.7358 26.6888H15.5202H19.3037L19.2963 26.7517Z" fill="#1397D6" stroke="#1397D6" stroke-width="0.5"/>
</g>
<defs>
<clipPath id="clip0_55_86094">
<rect width="32" height="32" fill="white"/>
</clipPath>
</defs>
</svg>
