<svg width="32" height="32" viewBox="0 0 32 32" fill="none" xmlns="http://www.w3.org/2000/svg">
<g clip-path="url(#clip0_55_86102)">
<mask id="path-1-outside-1_55_86102" maskUnits="userSpaceOnUse" x="-1" y="1" width="34" height="30" fill="black">
<rect fill="white" x="-1" y="1" width="34" height="30"/>
<path fill-rule="evenodd" clip-rule="evenodd" d="M15.0644 2.93037V3.86067L15.6878 3.88574C16.3587 3.91268 16.5092 3.97487 16.7795 4.33679C16.8898 4.4845 16.9114 4.6192 16.9291 5.2706L16.9498 6.03176L16.0227 6.32942C15.5128 6.49313 14.8144 6.76266 14.4706 6.92831C10.9768 8.61177 8.51682 11.7581 7.71841 15.5642C7.49757 16.617 7.4375 18.4294 7.58789 19.5022C8.10752 23.209 10.1535 26.3556 13.3265 28.3279C15.9321 29.9475 19.2244 30.5151 22.3063 29.8761C25.8787 29.1354 29.0567 26.6887 30.7064 23.4089C31.3333 22.1625 31.7179 20.9261 31.9138 19.5268C32.0676 18.4282 32.0098 16.6285 31.7866 15.5642C31.3979 13.7113 30.6019 11.9761 29.4496 10.4698C29.0052 9.88874 28.0959 8.97263 27.4366 8.44162C26.2517 7.48713 24.9967 6.81679 23.483 6.32979L22.5567 6.03176L22.5767 5.2706C22.5937 4.61839 22.615 4.48469 22.7255 4.33679C22.9958 3.97487 23.1463 3.91268 23.8172 3.88574L24.4406 3.86067V2.93037V2H19.7525H15.0644V2.93037ZM20.7794 3.98462C20.7524 4.04482 20.7184 4.46675 20.704 4.92224L20.6778 5.75047H19.7525H18.8271L18.8009 4.92224C18.7866 4.46675 18.7526 4.04482 18.7256 3.98462C18.6798 3.8828 18.7507 3.87524 19.7525 3.87524C20.7543 3.87524 20.8251 3.8828 20.7794 3.98462ZM18.8149 8.59458V9.50094H19.7525H20.6901V8.59077V7.68053L20.987 7.71984C22.7902 7.95825 24.4151 8.59845 25.8686 9.64321L26.3903 10.0181L25.7443 10.6663L25.0984 11.3144L25.7692 11.9853L26.4401 12.6561L27.0882 12.0102L27.7362 11.3644L28.0947 11.8547C29.0547 13.168 29.6799 14.6289 29.9448 16.1785C30.0116 16.5695 30.0663 16.9146 30.0663 16.9456C30.0663 16.9766 29.6584 17.0019 29.1599 17.0019H28.2536V17.9395V18.8771H29.1599C29.6584 18.8771 30.0663 18.9024 30.0663 18.9334C30.0663 18.9644 30.0116 19.3096 29.9448 19.7005C29.6799 21.2501 29.0547 22.711 28.0947 24.0243L27.7362 24.5146L27.0882 23.8688L26.4401 23.2229L25.7692 23.8938L25.0984 24.5646L25.7402 25.2086L26.3821 25.8526L25.9274 26.1918C24.5351 27.2303 22.8102 27.9172 20.987 28.159L20.6901 28.1985V27.2882V26.3781H19.7525H18.8149V27.2866V28.1951L18.4867 28.155C16.7208 27.9393 14.8839 27.1854 13.4226 26.0768L13.1247 25.8508L13.7657 25.2077L14.4066 24.5646L13.7357 23.8938L13.0649 23.2229L12.4168 23.8688L11.7687 24.5146L11.4102 24.0243C10.4503 22.711 9.82511 21.2501 9.5602 19.7005C9.49338 19.3096 9.43869 18.9644 9.43869 18.9334C9.43869 18.9024 9.84655 18.8771 10.3451 18.8771H11.2514V17.9395V17.0019H10.3451C9.84655 17.0019 9.43869 16.9766 9.43869 16.9456C9.43869 16.9146 9.49519 16.5588 9.5642 16.155C9.83161 14.591 10.4573 13.1484 11.4561 11.7932L11.7707 11.3663L12.4177 12.0112L13.0649 12.6561L13.7357 11.9853L14.4066 11.3144L13.7647 10.6704L13.1229 10.0264L13.5467 9.71141C15.0063 8.62658 17.1026 7.80754 18.7055 7.69584C18.805 7.6889 18.8149 7.77016 18.8149 8.59458ZM0 12.3138V13.2514H1.87524H3.75047V12.3138V11.3762H1.87524H0V12.3138ZM17.6425 16.2832C16.9465 17.6757 16.3771 18.829 16.3771 18.8461C16.3771 18.8631 17.2069 18.8771 18.221 18.8771C19.2352 18.8771 20.065 18.8915 20.065 18.9091C20.065 18.9266 19.8119 19.4467 19.5025 20.0648C19.193 20.6828 18.9399 21.2168 18.9399 21.2513C18.9399 21.3111 20.5591 22.1562 20.5961 22.1157C20.6303 22.0782 23.1279 17.0646 23.1279 17.0335C23.1279 17.0161 22.2981 17.0019 21.2839 17.0019C20.2697 17.0019 19.4399 16.9875 19.4399 16.9699C19.4399 16.9524 19.6931 16.4323 20.0025 15.8142C20.3119 15.1962 20.5651 14.6622 20.5651 14.6277C20.5651 14.5805 19.0132 13.7515 18.9248 13.7515C18.9155 13.7515 18.3385 14.8907 17.6425 16.2832ZM0 16.0643V17.0019H2.81285H5.62571V16.0643V15.1267H2.81285H0V16.0643ZM0 19.8147V20.7524H1.87524H3.75047V19.8147V18.8771H1.87524H0V19.8147ZM0 23.5652V24.5028H2.81285H5.62571V23.5652V22.6276H2.81285H0V23.5652ZM0 27.3157V28.2533H4.68809H9.37618V27.3157V26.3781H4.68809H0V27.3157Z"/>
</mask>
<path fill-rule="evenodd" clip-rule="evenodd" d="M15.0644 2.93037V3.86067L15.6878 3.88574C16.3587 3.91268 16.5092 3.97487 16.7795 4.33679C16.8898 4.4845 16.9114 4.6192 16.9291 5.2706L16.9498 6.03176L16.0227 6.32942C15.5128 6.49313 14.8144 6.76266 14.4706 6.92831C10.9768 8.61177 8.51682 11.7581 7.71841 15.5642C7.49757 16.617 7.4375 18.4294 7.58789 19.5022C8.10752 23.209 10.1535 26.3556 13.3265 28.3279C15.9321 29.9475 19.2244 30.5151 22.3063 29.8761C25.8787 29.1354 29.0567 26.6887 30.7064 23.4089C31.3333 22.1625 31.7179 20.9261 31.9138 19.5268C32.0676 18.4282 32.0098 16.6285 31.7866 15.5642C31.3979 13.7113 30.6019 11.9761 29.4496 10.4698C29.0052 9.88874 28.0959 8.97263 27.4366 8.44162C26.2517 7.48713 24.9967 6.81679 23.483 6.32979L22.5567 6.03176L22.5767 5.2706C22.5937 4.61839 22.615 4.48469 22.7255 4.33679C22.9958 3.97487 23.1463 3.91268 23.8172 3.88574L24.4406 3.86067V2.93037V2H19.7525H15.0644V2.93037ZM20.7794 3.98462C20.7524 4.04482 20.7184 4.46675 20.704 4.92224L20.6778 5.75047H19.7525H18.8271L18.8009 4.92224C18.7866 4.46675 18.7526 4.04482 18.7256 3.98462C18.6798 3.8828 18.7507 3.87524 19.7525 3.87524C20.7543 3.87524 20.8251 3.8828 20.7794 3.98462ZM18.8149 8.59458V9.50094H19.7525H20.6901V8.59077V7.68053L20.987 7.71984C22.7902 7.95825 24.4151 8.59845 25.8686 9.64321L26.3903 10.0181L25.7443 10.6663L25.0984 11.3144L25.7692 11.9853L26.4401 12.6561L27.0882 12.0102L27.7362 11.3644L28.0947 11.8547C29.0547 13.168 29.6799 14.6289 29.9448 16.1785C30.0116 16.5695 30.0663 16.9146 30.0663 16.9456C30.0663 16.9766 29.6584 17.0019 29.1599 17.0019H28.2536V17.9395V18.8771H29.1599C29.6584 18.8771 30.0663 18.9024 30.0663 18.9334C30.0663 18.9644 30.0116 19.3096 29.9448 19.7005C29.6799 21.2501 29.0547 22.711 28.0947 24.0243L27.7362 24.5146L27.0882 23.8688L26.4401 23.2229L25.7692 23.8938L25.0984 24.5646L25.7402 25.2086L26.3821 25.8526L25.9274 26.1918C24.5351 27.2303 22.8102 27.9172 20.987 28.159L20.6901 28.1985V27.2882V26.3781H19.7525H18.8149V27.2866V28.1951L18.4867 28.155C16.7208 27.9393 14.8839 27.1854 13.4226 26.0768L13.1247 25.8508L13.7657 25.2077L14.4066 24.5646L13.7357 23.8938L13.0649 23.2229L12.4168 23.8688L11.7687 24.5146L11.4102 24.0243C10.4503 22.711 9.82511 21.2501 9.5602 19.7005C9.49338 19.3096 9.43869 18.9644 9.43869 18.9334C9.43869 18.9024 9.84655 18.8771 10.3451 18.8771H11.2514V17.9395V17.0019H10.3451C9.84655 17.0019 9.43869 16.9766 9.43869 16.9456C9.43869 16.9146 9.49519 16.5588 9.5642 16.155C9.83161 14.591 10.4573 13.1484 11.4561 11.7932L11.7707 11.3663L12.4177 12.0112L13.0649 12.6561L13.7357 11.9853L14.4066 11.3144L13.7647 10.6704L13.1229 10.0264L13.5467 9.71141C15.0063 8.62658 17.1026 7.80754 18.7055 7.69584C18.805 7.6889 18.8149 7.77016 18.8149 8.59458ZM0 12.3138V13.2514H1.87524H3.75047V12.3138V11.3762H1.87524H0V12.3138ZM17.6425 16.2832C16.9465 17.6757 16.3771 18.829 16.3771 18.8461C16.3771 18.8631 17.2069 18.8771 18.221 18.8771C19.2352 18.8771 20.065 18.8915 20.065 18.9091C20.065 18.9266 19.8119 19.4467 19.5025 20.0648C19.193 20.6828 18.9399 21.2168 18.9399 21.2513C18.9399 21.3111 20.5591 22.1562 20.5961 22.1157C20.6303 22.0782 23.1279 17.0646 23.1279 17.0335C23.1279 17.0161 22.2981 17.0019 21.2839 17.0019C20.2697 17.0019 19.4399 16.9875 19.4399 16.9699C19.4399 16.9524 19.6931 16.4323 20.0025 15.8142C20.3119 15.1962 20.5651 14.6622 20.5651 14.6277C20.5651 14.5805 19.0132 13.7515 18.9248 13.7515C18.9155 13.7515 18.3385 14.8907 17.6425 16.2832ZM0 16.0643V17.0019H2.81285H5.62571V16.0643V15.1267H2.81285H0V16.0643ZM0 19.8147V20.7524H1.87524H3.75047V19.8147V18.8771H1.87524H0V19.8147ZM0 23.5652V24.5028H2.81285H5.62571V23.5652V22.6276H2.81285H0V23.5652ZM0 27.3157V28.2533H4.68809H9.37618V27.3157V26.3781H4.68809H0V27.3157Z" fill="#1397D6"/>
<path fill-rule="evenodd" clip-rule="evenodd" d="M15.0644 2.93037V3.86067L15.6878 3.88574C16.3587 3.91268 16.5092 3.97487 16.7795 4.33679C16.8898 4.4845 16.9114 4.6192 16.9291 5.2706L16.9498 6.03176L16.0227 6.32942C15.5128 6.49313 14.8144 6.76266 14.4706 6.92831C10.9768 8.61177 8.51682 11.7581 7.71841 15.5642C7.49757 16.617 7.4375 18.4294 7.58789 19.5022C8.10752 23.209 10.1535 26.3556 13.3265 28.3279C15.9321 29.9475 19.2244 30.5151 22.3063 29.8761C25.8787 29.1354 29.0567 26.6887 30.7064 23.4089C31.3333 22.1625 31.7179 20.9261 31.9138 19.5268C32.0676 18.4282 32.0098 16.6285 31.7866 15.5642C31.3979 13.7113 30.6019 11.9761 29.4496 10.4698C29.0052 9.88874 28.0959 8.97263 27.4366 8.44162C26.2517 7.48713 24.9967 6.81679 23.483 6.32979L22.5567 6.03176L22.5767 5.2706C22.5937 4.61839 22.615 4.48469 22.7255 4.33679C22.9958 3.97487 23.1463 3.91268 23.8172 3.88574L24.4406 3.86067V2.93037V2H19.7525H15.0644V2.93037ZM20.7794 3.98462C20.7524 4.04482 20.7184 4.46675 20.704 4.92224L20.6778 5.75047H19.7525H18.8271L18.8009 4.92224C18.7866 4.46675 18.7526 4.04482 18.7256 3.98462C18.6798 3.8828 18.7507 3.87524 19.7525 3.87524C20.7543 3.87524 20.8251 3.8828 20.7794 3.98462ZM18.8149 8.59458V9.50094H19.7525H20.6901V8.59077V7.68053L20.987 7.71984C22.7902 7.95825 24.4151 8.59845 25.8686 9.64321L26.3903 10.0181L25.7443 10.6663L25.0984 11.3144L25.7692 11.9853L26.4401 12.6561L27.0882 12.0102L27.7362 11.3644L28.0947 11.8547C29.0547 13.168 29.6799 14.6289 29.9448 16.1785C30.0116 16.5695 30.0663 16.9146 30.0663 16.9456C30.0663 16.9766 29.6584 17.0019 29.1599 17.0019H28.2536V17.9395V18.8771H29.1599C29.6584 18.8771 30.0663 18.9024 30.0663 18.9334C30.0663 18.9644 30.0116 19.3096 29.9448 19.7005C29.6799 21.2501 29.0547 22.711 28.0947 24.0243L27.7362 24.5146L27.0882 23.8688L26.4401 23.2229L25.7692 23.8938L25.0984 24.5646L25.7402 25.2086L26.3821 25.8526L25.9274 26.1918C24.5351 27.2303 22.8102 27.9172 20.987 28.159L20.6901 28.1985V27.2882V26.3781H19.7525H18.8149V27.2866V28.1951L18.4867 28.155C16.7208 27.9393 14.8839 27.1854 13.4226 26.0768L13.1247 25.8508L13.7657 25.2077L14.4066 24.5646L13.7357 23.8938L13.0649 23.2229L12.4168 23.8688L11.7687 24.5146L11.4102 24.0243C10.4503 22.711 9.82511 21.2501 9.5602 19.7005C9.49338 19.3096 9.43869 18.9644 9.43869 18.9334C9.43869 18.9024 9.84655 18.8771 10.3451 18.8771H11.2514V17.9395V17.0019H10.3451C9.84655 17.0019 9.43869 16.9766 9.43869 16.9456C9.43869 16.9146 9.49519 16.5588 9.5642 16.155C9.83161 14.591 10.4573 13.1484 11.4561 11.7932L11.7707 11.3663L12.4177 12.0112L13.0649 12.6561L13.7357 11.9853L14.4066 11.3144L13.7647 10.6704L13.1229 10.0264L13.5467 9.71141C15.0063 8.62658 17.1026 7.80754 18.7055 7.69584C18.805 7.6889 18.8149 7.77016 18.8149 8.59458ZM0 12.3138V13.2514H1.87524H3.75047V12.3138V11.3762H1.87524H0V12.3138ZM17.6425 16.2832C16.9465 17.6757 16.3771 18.829 16.3771 18.8461C16.3771 18.8631 17.2069 18.8771 18.221 18.8771C19.2352 18.8771 20.065 18.8915 20.065 18.9091C20.065 18.9266 19.8119 19.4467 19.5025 20.0648C19.193 20.6828 18.9399 21.2168 18.9399 21.2513C18.9399 21.3111 20.5591 22.1562 20.5961 22.1157C20.6303 22.0782 23.1279 17.0646 23.1279 17.0335C23.1279 17.0161 22.2981 17.0019 21.2839 17.0019C20.2697 17.0019 19.4399 16.9875 19.4399 16.9699C19.4399 16.9524 19.6931 16.4323 20.0025 15.8142C20.3119 15.1962 20.5651 14.6622 20.5651 14.6277C20.5651 14.5805 19.0132 13.7515 18.9248 13.7515C18.9155 13.7515 18.3385 14.8907 17.6425 16.2832ZM0 16.0643V17.0019H2.81285H5.62571V16.0643V15.1267H2.81285H0V16.0643ZM0 19.8147V20.7524H1.87524H3.75047V19.8147V18.8771H1.87524H0V19.8147ZM0 23.5652V24.5028H2.81285H5.62571V23.5652V22.6276H2.81285H0V23.5652ZM0 27.3157V28.2533H4.68809H9.37618V27.3157V26.3781H4.68809H0V27.3157Z" stroke="#1397D6" stroke-width="0.4" mask="url(#path-1-outside-1_55_86102)"/>
</g>
<defs>
<clipPath id="clip0_55_86102">
<rect width="32" height="32" fill="white"/>
</clipPath>
</defs>
</svg>
