<svg width="32" height="32" viewBox="0 0 32 32" fill="none" xmlns="http://www.w3.org/2000/svg">
<g clip-path="url(#clip0_55_86105)">
<path d="M8.64108 8.81895L8.54242 8.80264C9.23301 4.62679 12.8361 1.3442 17.17 0.935113C18.6483 0.795613 20.3923 1.07733 21.796 1.68168C24.6901 2.92781 26.7616 5.4637 27.4423 8.59141C27.5617 9.14032 27.5831 9.44014 27.5831 10.4986C27.5831 11.564 27.5621 11.8553 27.4396 12.4187C27.3773 12.7052 27.3206 12.9669 27.297 13.0765C27.3092 13.0838 27.3248 13.0925 27.344 13.1023C27.4102 13.136 27.506 13.176 27.6147 13.2134C28.6283 13.5619 29.5478 14.1607 30.302 14.9626C32.446 17.2422 32.6997 20.6558 30.9168 23.2317C30.2194 24.2393 29.0176 25.1932 27.9002 25.625L27.8642 25.5317L27.9002 25.625C27.4234 25.8093 27.0578 25.9187 26.5676 25.9813C26.0808 26.0434 25.4728 26.059 24.5122 26.0595L22.8383 26.0603L22.6555 26.3153C22.4758 26.5662 22.1591 26.9045 21.815 27.2293C21.4702 27.5547 21.0921 27.8722 20.7865 28.0803C20.4711 28.2952 20.2307 28.4488 20.0595 28.5435C19.9744 28.5905 19.9027 28.6251 19.8455 28.645C19.8171 28.6549 19.788 28.6626 19.7602 28.6651C19.7345 28.6674 19.6952 28.6665 19.6594 28.6429L8.64108 8.81895ZM8.64108 8.81895L8.54242 8.80264L8.45112 9.35485L7.81171 9.38608C4.13453 9.56575 1.0234 12.1452 0.112957 15.7657C-0.112694 16.6628 -0.167039 18.1053 -0.0113984 19.0509C0.540685 22.4053 3.04966 25.0985 6.3369 25.8638L6.35957 25.7664L6.33691 25.8638C6.92353 26.0003 8.10121 26.1187 8.88933 26.1213M8.64108 8.81895L12.9645 13.5089M8.88933 26.1213C8.88932 26.1213 8.88931 26.1213 8.88931 26.1213L8.88966 26.0213L8.88933 26.1213ZM8.88933 26.1213C9.00064 26.1217 9.1026 26.1286 9.17649 26.1389C9.2083 26.1433 9.23261 26.1481 9.24932 26.1525M9.24932 26.1525C9.26322 26.1799 9.28176 26.2091 9.30169 26.2381C9.33252 26.2828 9.37236 26.335 9.41863 26.3919C9.51127 26.506 9.63278 26.6433 9.76684 26.7866C10.0346 27.0728 10.357 27.3878 10.6064 27.5944C11.7983 28.5818 13.3027 29.2709 14.7044 29.4685L14.8098 29.4834M9.24932 26.1525C9.25228 26.1532 9.255 26.154 9.25748 26.1548C9.26405 26.1567 9.2667 26.158 9.26671 26.158C9.26671 26.1579 9.26647 26.1578 9.26601 26.1576C9.26493 26.157 9.26045 26.1544 9.25487 26.1492C9.24951 26.1442 9.23946 26.1332 9.2332 26.1155L9.32752 26.0822M9.24932 26.1525C9.24279 26.1396 9.23729 26.1271 9.23314 26.1153L9.32752 26.0822M14.8098 29.4834L14.4607 29.834L14.5316 29.9046M14.8098 29.4834L14.9335 29.5009L14.5316 29.9046M14.8098 29.4834L14.8979 29.3948L14.7183 29.3695C13.3367 29.1747 11.8493 28.4942 10.6702 27.5174C10.1802 27.1115 9.39351 26.2707 9.32752 26.0822M14.5316 29.9046L14.4607 29.834L13.9707 30.3264L13.9002 30.3971L13.9709 30.4677L14.6903 31.1862L15.4097 31.9048L15.4806 31.9755L15.5512 31.9046L17.0618 30.389C17.1798 30.2706 17.2916 30.1591 17.3972 30.0539C17.7737 29.6787 18.071 29.3824 18.2849 29.1328C18.5574 28.8149 18.715 28.5506 18.715 28.2718C18.715 27.9929 18.5574 27.7286 18.2849 27.4107C18.071 27.1611 17.7737 26.8648 17.3972 26.4896C17.2916 26.3844 17.1798 26.2729 17.0618 26.1545L15.5512 24.6389L15.4806 24.568L15.4097 24.6387L14.6902 25.3574L13.9706 26.0762L13.8998 26.1468L13.9704 26.2175L14.5881 26.8367L14.9777 27.2273M14.5316 29.9046L14.0415 30.3969L14.761 31.1155L15.4097 31.7633L15.4096 31.7634L15.4804 31.834L15.5511 31.7633L15.551 31.7632M14.9777 27.2273L14.8082 27.1953C12.5428 26.7681 10.6419 24.973 10.0693 22.7186C9.36252 19.9361 10.7148 16.9495 13.2215 15.7417L13.2215 15.7417C13.3476 15.6809 13.4634 15.6194 13.5486 15.569C13.5909 15.5439 13.6276 15.5205 13.6547 15.5005C13.668 15.4907 13.6816 15.4797 13.693 15.4683C13.6986 15.4626 13.706 15.4545 13.7126 15.4444C13.718 15.4363 13.7306 15.4155 13.7315 15.3864L13.7315 15.3863C13.7321 15.3692 13.7281 15.3534 13.727 15.3489C13.726 15.3444 13.7247 15.3395 13.7233 15.3346C13.7222 15.3308 13.721 15.3268 13.7198 15.3229C13.7142 15.3048 13.7063 15.2816 13.6968 15.2547C13.6776 15.2008 13.6503 15.1283 13.6176 15.044C13.5522 14.8751 13.4644 14.6561 13.375 14.4379C13.2856 14.2196 13.1944 14.0015 13.122 13.8341C13.0859 13.7506 13.0543 13.6791 13.0298 13.6264C13.0176 13.6002 13.0068 13.5778 12.9979 13.5606C12.9935 13.552 12.989 13.5438 12.9848 13.5366C12.9819 13.5318 12.9747 13.5197 12.9645 13.5089M14.9777 27.2273L15.1516 27.2601M14.9777 27.2273L15.1027 27.3526L14.7897 27.2936C12.4856 26.8591 10.5544 25.0349 9.97237 22.7433C9.2544 19.9166 10.6267 16.8809 13.1781 15.6516C13.4266 15.5318 13.6307 15.411 13.6316 15.3832C13.6337 15.3147 12.9451 13.6337 12.892 13.5777L12.9645 13.5089M12.9645 13.5089L15.1516 27.2601M15.1516 27.2601L14.6589 26.7661L14.0412 26.1469L14.7608 25.4282L15.4097 24.7802L15.4096 24.7801L15.4804 24.7095L15.5511 24.7802L15.551 24.7803L16.991 26.2251C18.0737 27.3115 18.615 27.7916 18.615 28.2718C18.615 28.7519 18.0737 29.232 16.991 30.3184L15.551 31.7632M15.1516 27.2601L15.551 31.7632M2.17343 19.1076L2.27046 19.0834C2.92074 21.6905 5.11297 23.5799 7.71249 23.7801C7.83197 23.7893 7.92151 23.7958 7.98862 23.7987C8.01827 23.8 8.04206 23.8005 8.06109 23.8005C8.02722 23.6965 7.96226 23.4631 7.90483 23.2398C7.04503 19.8979 8.39066 16.2853 11.2243 14.3292C11.5096 14.1322 11.9007 13.9054 12.2281 13.7359C12.3917 13.6513 12.5415 13.5798 12.6555 13.5334C12.712 13.5104 12.7629 13.4922 12.8038 13.4819C12.8238 13.477 12.846 13.4727 12.8674 13.4721C12.8815 13.4718 12.9289 13.4714 12.9645 13.5089L2.17343 19.1076ZM2.17343 19.1076L2.27046 19.0834C2.07081 18.2831 2.08289 16.9855 2.29772 16.1773C3.06759 13.2815 5.65997 11.4035 8.61762 11.5964L8.61763 11.5964C9.11316 11.6287 9.4141 11.6426 9.6202 11.6297C9.83379 11.6163 9.95273 11.5736 10.0824 11.4935C10.27 11.3777 10.399 11.2345 10.4838 11.0136C10.5662 10.7992 10.6056 10.5149 10.6269 10.1196C10.8105 6.70517 13.0551 4.02636 16.419 3.21047C16.7685 3.12572 17.1032 3.10296 18.0426 3.10665C18.5826 3.10881 18.8893 3.11388 19.1303 3.1365C19.3683 3.15886 19.5432 3.19845 19.8194 3.27248C21.2017 3.64287 22.1624 4.20006 23.1935 5.22987C24.2242 6.25923 24.7813 7.21713 25.154 8.59965C25.2291 8.87829 25.2687 9.05085 25.2907 9.29063C25.313 9.53357 25.3173 9.84631 25.3187 10.4051C25.3203 11.0897 25.311 11.4814 25.2497 11.8424C25.1886 12.2025 25.0752 12.5358 24.8613 13.1025C24.7191 13.4794 24.6387 13.712 24.6208 13.898C24.6018 14.0957 24.6534 14.2369 24.7453 14.4265C24.8491 14.6406 24.9604 14.7902 25.153 14.8942C25.3379 14.9942 25.5896 15.0471 25.9587 15.096C26.5887 15.1796 27.0707 15.3035 27.4966 15.5072C27.9221 15.7106 28.2971 15.9962 28.7095 16.4103C28.9347 16.6364 29.0773 16.7921 29.1929 16.9504C29.3079 17.1081 29.3983 17.2712 29.5157 17.5141L29.6057 17.4705M2.17343 19.1076L29.6057 17.4705M29.6057 17.4705L29.5157 17.5141C30.1722 18.8713 30.1251 20.3941 29.3902 21.6621L29.4767 21.7122M29.6057 17.4705L29.4767 21.7122M29.4767 21.7122L29.3902 21.6621C29.2205 21.955 28.9451 22.2857 28.6348 22.5832C28.3245 22.8808 27.9852 23.1395 27.6908 23.2919C27.2753 23.5071 26.9709 23.6331 26.5961 23.7117C26.2186 23.7909 25.7657 23.823 25.0513 23.8437C24.445 23.8613 24.1409 23.869 23.9924 23.8588C23.9809 23.858 23.9708 23.8572 23.9619 23.8562C23.9789 23.8027 24.004 23.715 24.0325 23.6112C24.0713 23.4701 24.1184 23.2922 24.1643 23.1112C24.241 22.8097 24.2843 22.6135 24.3076 22.3512C24.3307 22.0917 24.3342 21.7684 24.3342 21.2125C24.3342 20.6563 24.3307 20.3331 24.3076 20.0731C24.2842 19.8103 24.2408 19.6133 24.1639 19.31C24.0711 18.944 23.9061 18.4196 23.796 18.142C22.8055 15.6439 20.6186 13.7293 18.0501 13.1136C17.8361 13.0623 17.6323 13.0119 17.5153 12.9818C17.5194 12.9763 17.5239 12.9705 17.5288 12.9642C17.595 12.8792 17.7119 12.752 17.8831 12.5802L18.395 12.0661L18.4656 11.9953L18.3948 11.9247L17.6754 11.2082L16.9559 10.4917L16.8854 10.4215L16.8148 10.4916L15.3388 11.959C14.9322 12.3631 14.5525 12.7534 14.2682 13.0568C14.1261 13.2085 14.0073 13.339 13.9206 13.4389C13.8774 13.4888 13.8415 13.5318 13.8145 13.5665C13.7902 13.5978 13.7659 13.6311 13.7541 13.6583L13.7541 13.6583C13.6908 13.8037 13.6613 13.9844 13.6618 14.1551C13.6622 14.3247 13.6921 14.4979 13.7596 14.6249L13.7596 14.6249C13.7715 14.6473 13.7951 14.677 13.8192 14.7059C13.846 14.7379 13.8816 14.7785 13.9248 14.8263C14.0113 14.922 14.1299 15.0487 14.2719 15.1972C14.556 15.4945 14.9351 15.8809 15.3409 16.2848L16.8148 17.7522L16.8853 17.8224L16.9559 17.7522L17.6754 17.0355L18.3949 16.319L18.4658 16.2484L18.3952 16.1775L17.8179 15.5986C17.695 15.4753 17.5836 15.361 17.4947 15.2674M29.4767 21.7122L17.4947 15.2674M17.4947 15.2674C17.5751 15.2898 17.6659 15.3155 17.7604 15.3429L17.7882 15.2468L17.7604 15.3429C19.8052 15.9347 21.4069 17.5787 21.9627 19.6579C22.1003 20.1728 22.1234 20.3809 22.1265 21.1816C22.1307 22.2888 22.0061 22.882 21.5867 23.7661C21.2794 24.414 20.9659 24.9057 20.5471 25.351C20.1275 25.797 19.5986 26.2 18.8559 26.6665M17.4947 15.2674L18.8559 26.6665M18.8559 26.6665C18.8235 26.6868 18.7757 26.7215 18.7593 26.7886C18.7452 26.8465 18.7598 26.9095 18.7821 26.9735C18.828 27.1052 18.94 27.3277 19.1425 27.7223C19.2632 27.9574 19.3782 28.1748 19.4662 28.3358C19.5102 28.4161 19.5478 28.4831 19.5762 28.5313C19.5904 28.5553 19.6028 28.5756 19.6129 28.591C19.6179 28.5986 19.6232 28.6062 19.6283 28.6128L19.6287 28.6133C19.6314 28.6169 19.6427 28.6318 19.6593 28.6428L18.8559 26.6665ZM15.551 31.7632L9.32752 26.0822M17.4745 13.0467C17.4745 13.0468 17.4746 13.0463 17.475 13.0453L17.4745 13.0467Z" fill="#1397D6" stroke="#1397D6" stroke-width="0.2"/>
</g>
<defs>
<clipPath id="clip0_55_86105">
<rect width="32" height="32" fill="white"/>
</clipPath>
</defs>
</svg>
