<svg xmlns="http://www.w3.org/2000/svg" width="32" height="32" viewBox="0 0 32 32" fill="none">
	<path fill-rule="evenodd" clip-rule="evenodd" d="M21.7668 19.8653L28.9401 27.0387C29.1922 27.291 29.3338 27.6331 29.3337 27.9898C29.3336 28.3465 29.1917 28.6885 28.9394 28.9407C28.6871 29.1928 28.345 29.3344 27.9883 29.3342C27.6316 29.3341 27.2896 29.1923 27.0374 28.94L19.8641 21.7667C17.7197 23.4276 15.0231 24.2092 12.3229 23.9525C9.62273 23.6958 7.12174 22.42 5.32874 20.3848C3.53574 18.3496 2.58542 15.7077 2.6711 12.9967C2.75678 10.2857 3.87203 7.70913 5.78997 5.79119C7.70791 3.87325 10.2845 2.758 12.9955 2.67232C15.7065 2.58664 18.3484 3.53696 20.3836 5.32996C22.4188 7.12296 23.6945 9.62395 23.9512 12.3242C24.2079 15.0244 23.4263 17.7209 21.7654 19.8653H21.7668ZM13.3334 21.3333C15.4552 21.3333 17.49 20.4905 18.9903 18.9902C20.4906 17.4899 21.3334 15.4551 21.3334 13.3333C21.3334 11.2116 20.4906 9.17676 18.9903 7.67646C17.49 6.17617 15.4552 5.33332 13.3334 5.33332C11.2117 5.33332 9.17687 6.17617 7.67658 7.67646C6.17629 9.17676 5.33343 11.2116 5.33343 13.3333C5.33343 15.4551 6.17629 17.4899 7.67658 18.9902C9.17687 20.4905 11.2117 21.3333 13.3334 21.3333Z" fill="currentColor"/>
</svg>