<svg width="36" height="36" viewBox="0 0 36 36" fill="none" xmlns="http://www.w3.org/2000/svg">
<path d="M16 28C16 29.1 16.9 30 18 30C19.1 30 20 29.1 20 28C20 26.9 19.1 26 18 26C16.9 26 16 26.9 16 28ZM16 0V8H20V4.16C26.78 5.14 32 10.94 32 18C32 25.74 25.74 32 18 32C10.26 32 4 25.74 4 18C4 14.64 5.18 11.56 7.16 9.16L18 20L20.82 17.18L7.22 3.58V3.62C2.84 6.9 0 12.1 0 18C0 27.94 8.04 36 18 36C27.94 36 36 27.94 36 18C36 8.06 27.94 0 18 0H16ZM30 18C30 16.9 29.1 16 28 16C26.9 16 26 16.9 26 18C26 19.1 26.9 20 28 20C29.1 20 30 19.1 30 18ZM6 18C6 19.1 6.9 20 8 20C9.1 20 10 19.1 10 18C10 16.9 9.1 16 8 16C6.9 16 6 16.9 6 18Z" fill="#1499D8"/>
</svg>
