<svg width="32" height="24" viewBox="0 0 32 24" fill="none" xmlns="http://www.w3.org/2000/svg">
<path d="M30.7304 8.415L29.2304 7.59L15.7304 0.0899999H15.5654C15.4735 0.0511181 15.378 0.0209851 15.2804 0H14.9954H14.7254C14.6229 0.0209989 14.5225 0.0511187 14.4254 0.0899999H14.2604L0.760422 7.59C0.529576 7.72083 0.337563 7.91055 0.203974 8.1398C0.0703847 8.36906 0 8.62966 0 8.895C0 9.16034 0.0703847 9.42093 0.203974 9.65019C0.337563 9.87945 0.529576 10.0692 0.760422 10.2L4.49542 12.27V19.38C4.49542 20.5735 4.96953 21.7181 5.81344 22.562C6.65736 23.4059 7.80195 23.88 8.99542 23.88H20.9954C22.1889 23.88 23.3335 23.4059 24.1774 22.562C25.0213 21.7181 25.4954 20.5735 25.4954 19.38V12.27L28.4954 10.59V14.88C28.4954 15.2778 28.6535 15.6594 28.9348 15.9407C29.2161 16.222 29.5976 16.38 29.9954 16.38C30.3932 16.38 30.7748 16.222 31.0561 15.9407C31.3374 15.6594 31.4954 15.2778 31.4954 14.88V9.72C31.495 9.4542 31.4239 9.1933 31.2895 8.964C31.1551 8.7347 30.9621 8.54524 30.7304 8.415ZM22.4954 19.38C22.4954 19.7778 22.3374 20.1594 22.0561 20.4407C21.7748 20.722 21.3932 20.88 20.9954 20.88H8.99542C8.5976 20.88 8.21607 20.722 7.93476 20.4407C7.65346 20.1594 7.49542 19.7778 7.49542 19.38V13.935L14.2604 17.685L14.4854 17.775H14.6204C14.7449 17.7907 14.8709 17.7907 14.9954 17.775C15.1199 17.7907 15.2459 17.7907 15.3704 17.775H15.5054C15.5851 17.7582 15.6612 17.7278 15.7304 17.685L22.4954 13.935V19.38ZM14.9954 14.67L4.58542 8.88L14.9954 3.09L25.4054 8.88L14.9954 14.67Z" fill="#1499D8"/>
</svg>
