<svg width="38" height="36" viewBox="0 0 38 36" fill="none" xmlns="http://www.w3.org/2000/svg">
<path d="M17 28C17 29.1 17.9 30 19 30C20.1 30 21 29.1 21 28C21 26.9 20.1 26 19 26C17.9 26 17 26.9 17 28ZM17 0V8H21V4.16C27.78 5.14 33 10.94 33 18C33 25.74 26.74 32 19 32C11.26 32 5 25.74 5 18C5 14.64 6.18 11.56 8.16 9.16L19 20L21.82 17.18L8.22 3.58V3.62C3.84 6.9 1 12.1 1 18C1 27.94 9.04 36 19 36C28.94 36 37 27.94 37 18C37 8.06 28.94 0 19 0H17ZM31 18C31 16.9 30.1 16 29 16C27.9 16 27 16.9 27 18C27 19.1 27.9 20 29 20C30.1 20 31 19.1 31 18ZM7 18C7 19.1 7.9 20 9 20C10.1 20 11 19.1 11 18C11 16.9 10.1 16 9 16C7.9 16 7 16.9 7 18Z" fill="#1499D8"/>
</svg>
