<svg width="21" height="36" viewBox="0 0 21 36" fill="none" xmlns="http://www.w3.org/2000/svg">
<path d="M10.96 15.8C6.42 14.62 4.96 13.4 4.96 11.5C4.96 9.32 6.98 7.8 10.36 7.8C13.92 7.8 15.24 9.5 15.36 12H19.78C19.64 8.56 17.54 5.4 13.36 4.38V0H7.36V4.32C3.48 5.16 0.36 7.68 0.36 11.54C0.36 16.16 4.18 18.46 9.76 19.8C14.76 21 15.76 22.76 15.76 24.62C15.76 26 14.78 28.2 10.36 28.2C6.24 28.2 4.62 26.36 4.4 24H0C0.24 28.38 3.52 30.84 7.36 31.66V36H13.36V31.7C17.26 30.96 20.36 28.7 20.36 24.6C20.36 18.92 15.5 16.98 10.96 15.8Z" fill="#1499D8"/>
</svg>
