<svg width="30" height="30" viewBox="0 0 30 30" fill="none" xmlns="http://www.w3.org/2000/svg">
<path d="M28.5 6C28.1022 6 27.7206 6.15804 27.4393 6.43934C27.158 6.72064 27 7.10218 27 7.5V22.5C27 23.6935 26.5259 24.8381 25.682 25.682C24.8381 26.5259 23.6935 27 22.5 27H7.5C7.10218 27 6.72064 27.158 6.43934 27.4393C6.15804 27.7206 6 28.1022 6 28.5C6 28.8978 6.15804 29.2794 6.43934 29.5607C6.72064 29.842 7.10218 30 7.5 30H22.5C24.4891 30 26.3968 29.2098 27.8033 27.8033C29.2098 26.3968 30 24.4891 30 22.5V7.5C30 7.10218 29.842 6.72064 29.5607 6.43934C29.2794 6.15804 28.8978 6 28.5 6ZM24 19.5V4.5C24 3.30653 23.5259 2.16193 22.682 1.31802C21.8381 0.474106 20.6935 0 19.5 0H4.5C3.30653 0 2.16193 0.474106 1.31802 1.31802C0.474106 2.16193 0 3.30653 0 4.5V19.5C0 20.6935 0.474106 21.8381 1.31802 22.682C2.16193 23.5259 3.30653 24 4.5 24H19.5C20.6935 24 21.8381 23.5259 22.682 22.682C23.5259 21.8381 24 20.6935 24 19.5V19.5ZM12 3H15V10.29L14.46 9.84C14.1905 9.6155 13.8508 9.49256 13.5 9.49256C13.1492 9.49256 12.8095 9.6155 12.54 9.84L12 10.29V3ZM3 19.5V4.5C3 4.10218 3.15804 3.72064 3.43934 3.43934C3.72064 3.15804 4.10218 3 4.5 3H9V13.5C8.99998 13.7867 9.08215 14.0675 9.23678 14.309C9.39141 14.5505 9.61201 14.7426 9.87246 14.8625C10.1329 14.9825 10.4223 15.0253 10.7063 14.9858C10.9903 14.9464 11.2571 14.8264 11.475 14.64L13.5 12.945L15.525 14.64C15.7967 14.8724 16.1425 15 16.5 15C16.717 14.9985 16.9314 14.9525 17.13 14.865C17.3904 14.7445 17.6107 14.5519 17.7649 14.3099C17.9191 14.068 18.0007 13.7869 18 13.5V3H19.5C19.8978 3 20.2794 3.15804 20.5607 3.43934C20.842 3.72064 21 4.10218 21 4.5V19.5C21 19.8978 20.842 20.2794 20.5607 20.5607C20.2794 20.842 19.8978 21 19.5 21H4.5C4.10218 21 3.72064 20.842 3.43934 20.5607C3.15804 20.2794 3 19.8978 3 19.5Z" fill="#1499D8"/>
</svg>
