<svg width="48" height="49" viewBox="0 0 48 49" fill="none" xmlns="http://www.w3.org/2000/svg">
<g clip-path="url(#clip0_1_205552)">
<path fill-rule="evenodd" clip-rule="evenodd" d="M26.42 7.57179C25.9253 7.71422 25.4793 8.09783 25.2156 8.60797C25.1682 8.69974 25.0535 9.21586 24.9606 9.75486C24.6279 11.6873 24.1124 12.6721 22.6804 14.1105C21.7633 15.0318 19.3787 17.2517 16.7135 19.6653L15.4319 20.826V30.239V39.652H25.3863C32.3818 39.652 35.4516 39.6289 35.7137 39.5742C37.0291 39.2999 38.1661 38.1401 38.4477 36.7851C38.5673 36.2097 38.497 35.4057 38.28 34.8685L38.1009 34.4253L38.5868 33.9546C39.6598 32.9151 39.9843 31.3866 39.4136 30.06L39.2661 29.7172L39.6633 29.3537C40.476 28.6101 40.8369 27.7909 40.8369 26.69C40.8369 26.1912 40.798 25.9458 40.6523 25.5237L40.4679 24.9892L40.8307 24.6766C41.2875 24.283 41.5665 23.8792 41.8001 23.2731C42.0537 22.6157 42.0676 21.6098 41.8327 20.9191C41.5312 20.032 40.8794 19.2345 40.1571 18.8687C39.3571 18.4636 39.4381 18.4694 34.5608 18.4694C32.0906 18.4694 30.0697 18.4443 30.0697 18.4135C30.0697 18.3828 30.3488 17.599 30.69 16.6718C31.6031 14.1901 31.5816 14.2828 31.5776 12.8395C31.5737 11.4172 31.4668 10.8889 30.9844 9.90715C30.3787 8.67455 29.4855 7.91936 28.2567 7.60099C27.7907 7.48023 26.7933 7.4644 26.42 7.57179ZM6.95181 18.5331C6.62119 18.6155 6.4454 18.7323 6.23336 19.0102L6.03695 19.2677L6.01851 30.1469L6 41.0261L6.15926 41.3378C6.47798 41.9616 6.34342 41.9364 9.47654 41.959L12.2374 41.9789L12.4735 41.8183C12.6033 41.7299 12.7757 41.5683 12.8567 41.459L13.004 41.2603L13.0222 30.3459C13.0403 19.5392 13.0391 19.4285 12.899 19.1393C12.8055 18.946 12.6565 18.7893 12.4586 18.6759L12.1595 18.5046L9.66121 18.4926C8.28715 18.4859 7.06792 18.5042 6.95181 18.5331Z" fill="#1397D6"/>
</g>
<defs>
<clipPath id="clip0_1_205552">
<rect width="48" height="48" fill="white" transform="translate(0 0.5)"/>
</clipPath>
</defs>
</svg>
