<svg width="29" height="30" viewBox="0 0 29 30" fill="none" xmlns="http://www.w3.org/2000/svg">
<path d="M7.5 12H9C9.39782 12 9.77936 11.842 10.0607 11.5607C10.342 11.2794 10.5 10.8978 10.5 10.5C10.5 10.1022 10.342 9.72064 10.0607 9.43934C9.77936 9.15804 9.39782 9 9 9H7.5C7.10218 9 6.72064 9.15804 6.43934 9.43934C6.15804 9.72064 6 10.1022 6 10.5C6 10.8978 6.15804 11.2794 6.43934 11.5607C6.72064 11.842 7.10218 12 7.5 12ZM13.5 21H7.5C7.10218 21 6.72064 21.158 6.43934 21.4393C6.15804 21.7206 6 22.1022 6 22.5C6 22.8978 6.15804 23.2794 6.43934 23.5607C6.72064 23.842 7.10218 24 7.5 24H13.5C13.8978 24 14.2794 23.842 14.5607 23.5607C14.842 23.2794 15 22.8978 15 22.5C15 22.1022 14.842 21.7206 14.5607 21.4393C14.2794 21.158 13.8978 21 13.5 21ZM13.5 15H7.5C7.10218 15 6.72064 15.158 6.43934 15.4393C6.15804 15.7206 6 16.1022 6 16.5C6 16.8978 6.15804 17.2794 6.43934 17.5607C6.72064 17.842 7.10218 18 7.5 18H13.5C13.8978 18 14.2794 17.842 14.5607 17.5607C14.842 17.2794 15 16.8978 15 16.5C15 16.1022 14.842 15.7206 14.5607 15.4393C14.2794 15.158 13.8978 15 13.5 15ZM23.88 11.07C23.9949 10.7968 24.0263 10.4958 23.9702 10.2048C23.9141 9.9138 23.7731 9.64594 23.565 9.435L14.565 0.435C14.441 0.318324 14.2992 0.222121 14.145 0.15C14.1002 0.14364 14.0548 0.14364 14.01 0.15L13.59 0H4.5C3.30653 0 2.16193 0.474106 1.31802 1.31802C0.474106 2.16193 0 3.30653 0 4.5V25.5C0 26.6935 0.474106 27.8381 1.31802 28.682C2.16193 29.5259 3.30653 30 4.5 30H13.5C13.8978 30 14.2794 29.842 14.5607 29.5607C14.842 29.2794 15 28.8978 15 28.5C15 28.1022 14.842 27.7206 14.5607 27.4393C14.2794 27.158 13.8978 27 13.5 27H4.5C4.10218 27 3.72064 26.842 3.43934 26.5607C3.15804 26.2794 3 25.8978 3 25.5V4.5C3 4.10218 3.15804 3.72064 3.43934 3.43934C3.72064 3.15804 4.10218 3 4.5 3H12V7.5C12 8.69347 12.4741 9.83807 13.318 10.682C14.1619 11.5259 15.3065 12 16.5 12H22.5C22.7961 11.9985 23.0852 11.9094 23.3308 11.7439C23.5764 11.5784 23.7675 11.3439 23.88 11.07ZM16.5 9C16.1022 9 15.7206 8.84196 15.4393 8.56066C15.158 8.27936 15 7.89782 15 7.5V5.115L18.885 9H16.5ZM27 15H19.5C19.1022 15 18.7206 15.158 18.4393 15.4393C18.158 15.7206 18 16.1022 18 16.5V28.5C18.0007 28.7714 18.075 29.0374 18.215 29.2699C18.355 29.5023 18.5555 29.6925 18.795 29.82C19.0296 29.9404 19.2917 29.9969 19.5551 29.9838C19.8184 29.9706 20.0736 29.8882 20.295 29.745L23.25 27.795L26.25 29.745C26.4741 29.8746 26.7279 29.944 26.9868 29.9464C27.2456 29.9489 27.5007 29.8843 27.7272 29.759C27.9537 29.6337 28.1439 29.4518 28.2793 29.2312C28.4147 29.0106 28.4908 28.7587 28.5 28.5V16.5C28.5 16.1022 28.342 15.7206 28.0607 15.4393C27.7794 15.158 27.3978 15 27 15ZM25.5 25.68L24.09 24.735C23.8419 24.5673 23.5494 24.4777 23.25 24.4777C22.9506 24.4777 22.6581 24.5673 22.41 24.735L21 25.68V18H25.5V25.68Z" fill="#1499D8"/>
</svg>
