<svg width="54" height="54" viewBox="0 0 54 54" fill="none" xmlns="http://www.w3.org/2000/svg">
<rect width="54" height="54" rx="10" fill="#55ACE3"/>
<path d="M41.3096 20.115C40.3646 20.52 39.2846 20.79 38.2046 20.925C39.2846 20.25 40.2296 19.17 40.6346 17.955C39.5546 18.63 38.4746 19.035 37.1246 19.305C36.1796 18.225 34.6946 17.55 33.2096 17.55C30.2396 17.55 27.8096 19.98 27.8096 22.95C27.8096 23.355 27.8096 23.76 27.9446 24.165C23.4896 23.895 19.4396 21.735 16.7396 18.495C16.3346 19.305 16.0646 20.25 16.0646 21.195C16.0646 23.085 17.0096 24.705 18.4946 25.65C17.5496 25.65 16.7396 25.38 16.0646 24.975C16.0646 27.54 17.9546 29.835 20.3846 30.24C19.9796 30.375 19.4396 30.375 18.8996 30.375C18.4946 30.375 18.2246 30.375 17.8196 30.24C18.4946 32.4 20.5196 34.02 22.9496 34.02C21.0596 35.505 18.7646 36.315 16.1996 36.315C15.7946 36.315 15.3896 36.315 14.8496 36.18C17.2796 37.665 20.1146 38.61 23.2196 38.61C33.2096 38.61 38.6096 30.375 38.6096 23.22V22.545C39.6896 22.14 40.6346 21.195 41.3096 20.115Z" fill="white"/>
</svg>
