<svg width="54" height="54" viewBox="0 0 54 54" fill="none" xmlns="http://www.w3.org/2000/svg">
<rect width="54" height="54" rx="10" fill="#1397D6"/>
<path fill-rule="evenodd" clip-rule="evenodd" d="M33.0842 13.5602C32.2777 13.7016 31.3664 14.0686 30.6555 14.5384C30.4726 14.6592 30.0804 14.9785 29.7839 15.248C28.8222 16.1221 24.0712 20.942 23.7962 21.3226C23.2657 22.0568 22.9043 22.8437 22.7092 23.6893C22.5565 24.3512 22.5446 25.7076 22.6857 26.3666C22.9689 27.6892 23.6059 28.8533 24.5164 29.7122C24.8838 30.0587 25.5465 30.5392 25.6571 30.5392C25.6889 30.5392 25.9904 30.2578 26.3271 29.9139C27.0616 29.1635 27.1362 28.9961 27.0937 28.192L27.0684 27.7135L26.6724 27.3173C26.0437 26.6884 25.7627 25.9924 25.7662 25.0726C25.7684 24.521 25.8675 24.1309 26.142 23.5937C26.3135 23.2582 26.6076 22.9473 29.3196 20.2354C32.0317 17.5234 32.3426 17.2293 32.6781 17.0579C33.2238 16.779 33.6023 16.6854 34.1834 16.6854C34.5032 16.6854 34.8002 16.7187 35.0021 16.7772C36.0813 17.0897 36.9111 17.9195 37.2236 18.9986C37.346 19.4213 37.346 20.2132 37.2236 20.6359C36.9953 21.4244 36.9013 21.5418 34.8327 23.6233L32.9137 25.5545L33.0988 26.317C33.3385 27.3047 33.4285 28.2503 33.3572 29.0343C33.3282 29.3536 33.3136 29.6263 33.3247 29.6402C33.3597 29.684 38.959 24.0322 39.2104 23.6993C39.7678 22.9614 40.2121 22.0036 40.3987 21.1374C40.5338 20.5102 40.5338 19.1243 40.3987 18.4971C40.0879 17.0548 39.219 15.684 38.0392 14.7749C37.3686 14.2582 36.3762 13.7933 35.5567 13.6121C35.0003 13.489 33.6516 13.4607 33.0842 13.5602ZM28.1216 23.6341C27.3918 24.366 27.3169 24.522 27.3169 25.3115V25.8398L27.7019 26.222C28.3458 26.8616 28.6374 27.5651 28.6374 28.4793C28.6374 29.0607 28.5373 29.4832 28.2808 29.9846C28.1088 30.3208 27.8016 30.6444 24.8917 33.5543C21.9799 36.466 21.6583 36.7712 21.3219 36.9431C21.1186 37.0469 20.8096 37.1733 20.6353 37.2237C20.2126 37.3461 19.4206 37.3461 18.9979 37.2237C17.9187 36.9112 17.0889 36.0814 16.7764 35.0023C16.654 34.5796 16.654 33.7877 16.7764 33.365C17.0077 32.5663 17.079 32.4786 19.374 30.1695L21.5001 28.0304L21.3237 27.3143C21.0718 26.2919 21.0096 25.7065 21.0491 24.732L21.0824 23.9106L18.0555 26.9476C16.3908 28.618 14.921 30.1272 14.7895 30.3015C14.2319 31.0401 13.7879 31.9975 13.6013 32.8635C13.4662 33.4907 13.4662 34.8765 13.6013 35.5038C14.1235 37.9274 16.0726 39.8765 18.4964 40.3987C19.1236 40.5338 20.5095 40.5338 21.1368 40.3987C22.0008 40.2125 22.9543 39.7709 23.6988 39.2119C23.8731 39.081 25.4559 37.5337 27.2161 35.7733C30.0625 32.9268 30.4552 32.5141 30.7661 32.0427C31.3161 31.2087 31.5867 30.5256 31.756 29.5437C31.9192 28.5971 31.8783 27.7792 31.6184 26.7932C31.3318 25.7054 30.787 24.7697 29.9572 23.94C29.6447 23.6275 29.0057 23.1489 28.791 23.0665C28.7441 23.0485 28.4942 23.2604 28.1216 23.6341Z" fill="white"/>
</svg>
