<svg width="54" height="54" viewBox="0 0 54 54" fill="none" xmlns="http://www.w3.org/2000/svg">
<rect width="54" height="54" rx="10" fill="#2878B7"/>
<path d="M37.8008 28.0049V35.4511H33.442V28.459C33.442 26.7336 32.8064 25.5531 31.2627 25.5531C30.0822 25.5531 29.3557 26.3704 29.0833 27.0969C28.9925 27.3693 28.9017 27.7325 28.9017 28.1865V35.4511H24.5429C24.5429 35.4511 24.6337 23.6462 24.5429 22.4657H28.9017V24.2818C29.4465 23.3738 30.5362 22.1025 32.8064 22.1025C35.6214 22.1025 37.8008 24.0094 37.8008 28.0049ZM20.0026 16.2C18.5497 16.2 17.5508 17.1989 17.5508 18.4702C17.5508 19.7415 18.4589 20.7404 19.9118 20.7404C21.4555 20.7404 22.3636 19.7415 22.3636 18.4702C22.4544 17.1081 21.5463 16.2 20.0026 16.2ZM17.8232 35.4511H22.1819V22.4657H17.8232V35.4511Z" fill="white"/>
</svg>
