<svg width="19" height="22" viewBox="0 0 19 22" fill="none" xmlns="http://www.w3.org/2000/svg">
<path d="M18.9764 5.25351C18.2865 5.25352 17.6033 5.11764 16.966 4.85363C16.3286 4.58962 15.7494 4.20265 15.2616 3.71482C14.7737 3.22698 14.3868 2.64784 14.1227 2.01045C13.8587 1.37306 13.7228 0.689907 13.7228 0H9.9695V14.6974C9.96878 15.3675 9.75719 16.0203 9.3647 16.5635C8.97222 17.1066 8.41875 17.5124 7.78275 17.7234C7.14675 17.9344 6.46047 17.9398 5.82119 17.739C5.18191 17.5382 4.62205 17.1412 4.22097 16.6044C3.81989 16.0676 3.59792 15.4182 3.58653 14.7482C3.57515 14.0782 3.77492 13.4217 4.15753 12.8715C4.54015 12.3214 5.0862 11.9057 5.71828 11.6833C6.35037 11.4608 7.03644 11.443 7.67924 11.6322V7.98372C6.31316 7.79951 4.9234 8.03645 3.69552 8.66289C2.46765 9.28933 1.46011 10.2755 0.807445 11.4896C0.154777 12.7037 -0.111954 14.0881 0.0428692 15.4578C0.197692 16.8275 0.7667 18.1174 1.67391 19.1552C2.58112 20.1931 3.78336 20.9294 5.12008 21.266C6.4568 21.6025 7.86439 21.5233 9.15489 21.0388C10.4454 20.5543 11.5574 19.6877 12.3423 18.5546C13.1273 17.4215 13.5479 16.0758 13.548 14.6974L13.6569 7.26826C15.1991 8.40038 17.0629 9.00954 18.976 9.0067L18.9764 5.25351Z" fill="currentColor"/>
</svg>
