<svg width="28" height="28" viewBox="0 0 28 28" fill="none" xmlns="http://www.w3.org/2000/svg">
<path d="M7.67605 11.1838C7.19264 11.3116 7.1927 11.3118 7.19277 11.312L7.19294 11.3127L7.19343 11.3145L7.19495 11.3202L7.20022 11.3393C7.20473 11.3554 7.21127 11.3784 7.21993 11.4079C7.23726 11.4667 7.26312 11.5512 7.29834 11.6583C7.36876 11.8724 7.47674 12.1772 7.62903 12.5473C7.93332 13.2866 8.41627 14.291 9.13304 15.3558C10.5666 17.4854 12.9509 19.8772 16.722 20.8417L16.7612 20.8517L16.8015 20.8553L16.8459 20.3573C16.8015 20.8553 16.8017 20.8553 16.8019 20.8554L16.8023 20.8554L16.8031 20.8555L16.8051 20.8556L16.8101 20.856L16.8244 20.8571C16.8299 20.8574 16.8363 20.8578 16.8434 20.8582C16.8512 20.8586 16.86 20.859 16.8697 20.8594C16.9068 20.8609 16.9577 20.8619 17.0195 20.8606C17.1421 20.858 17.3118 20.8464 17.5031 20.8093C17.877 20.7367 18.3895 20.5553 18.7584 20.0936L18.7584 20.0936L19.8026 18.7864L19.8027 18.7864L19.809 18.7782C20.1532 18.3285 21.0852 17.9634 22.0595 18.5085C23.634 19.3981 25.6334 20.7797 26.9449 22.0166L26.9581 22.0291L26.9721 22.0405C27.2665 22.2803 27.4303 22.5669 27.4819 22.8762C27.534 23.1893 27.4776 23.5668 27.2573 23.9899L27.2008 24.0984V24.1034C26.6405 25.0626 25.8649 26.0396 24.9905 26.6992C24.1345 27.345 23.2465 27.6448 22.3814 27.4313L22.359 27.3975L22.1802 27.3474C21.0878 27.0413 19.202 26.2056 17.1452 25.0934C15.0959 23.9852 12.9176 22.6247 11.2401 21.2895L11.2389 21.2886C5.34488 16.627 2.80558 10.7571 1.37313 7.4459C1.07521 6.75722 0.825165 6.17922 0.602776 5.74578C0.327793 4.83963 0.623324 3.90669 1.29786 3.01014C1.95588 2.13552 2.93188 1.35981 3.89419 0.79921H3.90536L4.01425 0.742247C4.43484 0.52222 4.81443 0.465211 5.13314 0.518876C5.44535 0.571448 5.73819 0.736442 5.98634 1.03295C6.15148 1.25526 6.34604 1.48399 6.5725 1.75023C7.24874 2.54523 8.20953 3.67475 9.52139 5.96696C10.0662 6.9412 9.70204 7.87299 9.25105 8.21939L9.25099 8.21931L9.24325 8.2255L7.93739 9.27032L7.93682 9.27078C7.47618 9.64045 7.29559 10.1532 7.2235 10.527C7.18662 10.7183 7.17508 10.888 7.17263 11.0106C7.17139 11.0723 7.17244 11.1233 7.17393 11.1603C7.17468 11.1789 7.17555 11.1941 7.1763 11.2056L7.17734 11.2199L7.17774 11.2249L7.17791 11.2269L7.17798 11.2277L7.17801 11.2281C7.17803 11.2283 7.17805 11.2285 7.67605 11.1838ZM7.67605 11.1838L7.17805 11.2285L7.18182 11.2706L7.19264 11.3116L7.67605 11.1838Z" stroke="currentColor"/>
</svg>
