<svg width="25" height="13" viewBox="0 0 25 13" fill="none" xmlns="http://www.w3.org/2000/svg">
<path d="M14.4499 4.18247V8.1626C14.4345 8.28182 14.4449 8.40322 14.4792 8.51755C14.5134 8.63188 14.5707 8.73618 14.6473 8.82243C14.7235 8.90874 14.8168 8.97472 14.92 9.0155C15.0233 9.05623 15.1337 9.07062 15.2423 9.05757H16.5352V10.3775H15.1224C13.6944 10.3775 13.0817 9.55256 13.0817 8.1626V4.18247H11.7402V2.91208H13.0781L13.2585 0.919922H14.4381V2.91208H16.5239V4.18247H14.4499Z" fill="white"/>
<path d="M24.637 2.89551L21.6646 11.4085C21.5577 11.8405 21.3197 12.2193 20.9893 12.482C20.6589 12.7446 20.2568 12.8752 19.8497 12.8521H18.4667V11.5322H19.6694C19.8141 11.5482 19.9597 11.5105 20.0828 11.4254C20.2063 11.3402 20.3001 11.2123 20.3492 11.0621L20.5525 10.4887L17.6738 2.89551H19.1772L21.2625 8.76878L23.1675 2.89551H24.637Z" fill="white"/>
<path d="M8.93359 2.88672H10.2936V10.3521H8.93359V2.88672Z" fill="white"/>
<path d="M10.5645 0.940398C10.5645 1.45595 10.354 1.87664 9.61377 1.87664C8.8736 1.87664 8.66309 1.4642 8.66309 0.940398C8.66309 0.416593 8.9074 0 9.61377 0C10.3201 0 10.5645 0.412441 10.5645 0.940398Z" fill="white"/>
<path d="M6.26942 7.58525C5.9426 8.5215 5.48056 8.99167 4.48839 8.99167C2.84621 8.99167 2.1398 7.64704 2.1398 5.4404C2.1398 3.23381 2.89133 1.88928 4.48839 1.88928C5.48056 1.88928 5.93855 2.3594 6.26581 3.29155L7.62987 2.80076C7.08487 1.31594 6.12652 0.495117 4.51093 0.495117C2.03837 0.495117 0.636719 2.49964 0.636719 5.44455C0.636719 8.38942 1.97071 10.3939 4.51093 10.3939C5.1889 10.4371 5.86101 10.235 6.42449 9.81858C6.98796 9.40208 7.41124 8.79435 7.62987 8.08839L6.26942 7.58525Z" fill="white"/>
</svg>
