<svg width="22" height="13" viewBox="0 0 22 13" fill="none" xmlns="http://www.w3.org/2000/svg">
<path fill-rule="evenodd" clip-rule="evenodd" d="M13.237 0.390188C13.5668 0.616185 13.6924 0.829498 13.6924 1.16394C13.6924 1.53689 13.5049 1.81817 13.1472 1.98171C12.8061 2.13763 12.5122 2.13442 12.177 1.97107C11.4835 1.6331 11.4713 0.704457 12.1558 0.358288C12.4764 0.196157 12.9753 0.21089 13.237 0.390188ZM7.38182 5.24258V9.15012H7.89091H8.4V10.8797V12.6092H7.66818H6.93636V11.5843V10.5594H4.2H1.46364V11.5843V12.6092H0.731818H0V10.8829V9.15652L0.365909 9.1373L0.731818 9.11809L0.956264 8.66257C1.2138 8.13986 1.43545 7.31031 1.52734 6.5254C1.56234 6.22689 1.59091 4.9369 1.59091 3.65881V1.33504H4.48636H7.38182V5.24258ZM3.03533 4.65004C2.99899 6.68292 2.94057 7.19334 2.63435 8.15324C2.5452 8.43292 2.41646 8.77166 2.34844 8.90593L2.22466 9.15012H4.03964H5.85454V5.94722V2.74432H4.46199H3.06937L3.03533 4.65004ZM13.2993 3.14468C13.2989 3.18875 12.916 4.57958 12.4485 6.23548C11.9809 7.89138 11.6074 9.25658 11.6183 9.26926C11.6293 9.28195 12.1851 8.91304 12.8535 8.44951C13.5219 7.98599 14.1055 7.59255 14.1504 7.57519C14.1999 7.55603 14.3761 7.76147 14.5978 8.09681C14.799 8.40102 14.9544 8.65854 14.9432 8.66898C14.8051 8.79741 12.196 10.5365 12.0452 10.6005C11.7428 10.729 11.1764 10.7107 10.8891 10.5632C10.4339 10.3294 10.1196 9.82983 10.1186 9.33845C10.1182 9.21078 11.1578 5.24027 11.3565 4.61001C11.3991 4.4751 11.3905 4.47388 10.377 4.47388C9.81464 4.47388 9.35454 4.46665 9.35454 4.45787C9.35461 4.42296 9.80802 3.16742 9.8385 3.11771C9.85645 3.0885 10.6426 3.06461 11.5856 3.06461C12.9151 3.06461 13.2998 3.08261 13.2993 3.14468ZM21.6364 6.812V10.5594H20.9045H20.1727V9.18214V7.8049H19.5388H18.9049L18.0911 9.18093L17.2773 10.557L16.3955 10.5582C15.6762 10.5591 15.5198 10.5432 15.547 10.472C15.5653 10.4238 15.9866 9.75905 16.4832 8.99465C16.9798 8.23018 17.3758 7.59588 17.3634 7.58505C17.3511 7.57416 17.2058 7.50594 17.0407 7.43336C16.6249 7.25067 16.1352 6.76934 15.9281 6.33964C15.7776 6.02768 15.7545 5.9018 15.7557 5.40273C15.757 4.92056 15.7841 4.76721 15.9216 4.46588C16.1183 4.03464 16.4704 3.62672 16.8281 3.41577C17.3485 3.10874 17.6426 3.07338 19.7114 3.06884L21.6364 3.06461V6.812ZM18.0806 4.40912C17.6036 4.5243 17.3091 4.93023 17.3091 5.47236C17.3091 5.8346 17.461 6.12331 17.775 6.3577C17.9407 6.48146 18.038 6.49171 19.0477 6.49171H20.1409V5.43475V4.3778L19.2182 4.36748C18.7107 4.36185 18.1987 4.38061 18.0806 4.40912Z" fill="white"/>
</svg>
