<svg width="60" height="52" viewBox="0 0 60 52" fill="none" xmlns="http://www.w3.org/2000/svg">
<g clip-path="url(#clip0_1_46038)">
<path d="M53.4359 12.8955H5.09532C3.94674 12.8955 3.01562 13.8087 3.01562 14.9351V49.3548C3.01562 50.4812 3.94674 51.3944 5.09532 51.3944H53.4359C54.5845 51.3944 55.5156 50.4812 55.5156 49.3548V14.9351C55.5156 13.8087 54.5845 12.8955 53.4359 12.8955Z" fill="#4989F5"/>
<path d="M52.8272 12.6064H5.64203C4.18037 12.6064 3.04297 23.7003 3.04297 25.1338L28.883 51.3946H52.8272C54.2933 51.3906 55.4809 50.226 55.4849 48.7881V15.2123C55.4805 13.7747 54.2931 12.6104 52.8272 12.6064Z" fill="url(#paint0_linear_1_46038)"/>
<path d="M15 19.3427H30V0.0351562H17.2461L15 19.3427Z" fill="#3C4BA6"/>
<path d="M45 19.3427H30V0.0351562H42.7539L45 19.3427ZM55.5124 3.69513L55.531 3.76094C55.5265 3.73771 55.5175 3.71615 55.5124 3.69513Z" fill="#7BABF7"/>
<path d="M55.531 3.76045L55.5124 3.69464C55.0368 1.55899 53.1094 0.0360506 50.8804 0.034668H42.7539L44.9983 19.3427H59.9983L55.531 3.76045Z" fill="#3F51B5"/>
<path d="M4.48736 3.69531L4.46875 3.76112C4.47326 3.7379 4.48228 3.71633 4.48736 3.69531Z" fill="#7BABF7"/>
<path d="M4.47011 3.76045L4.48872 3.69464C4.96427 1.55899 6.89171 0.0360506 9.12068 0.034668H17.2477L15 19.3427H0L4.47011 3.76045Z" fill="#7BABF7"/>
<path fill-rule="evenodd" clip-rule="evenodd" d="M15.0267 19.3379C15.0267 23.3978 11.6707 26.6891 7.53093 26.6891C3.39115 26.6891 0.0351562 23.3978 0.0351562 19.3379H15.0267Z" fill="#709BE0"/>
<path fill-rule="evenodd" clip-rule="evenodd" d="M30.0189 19.3379C30.0189 23.3978 26.6629 26.6891 22.5231 26.6891C18.3833 26.6891 15.0273 23.3978 15.0273 19.3379H30.0189Z" fill="#3C4BA6"/>
<path fill-rule="evenodd" clip-rule="evenodd" d="M45.0111 19.3379C45.0111 23.3978 41.6551 26.6891 37.5153 26.6891C33.3755 26.6891 30.0195 23.3978 30.0195 19.3379H45.0111Z" fill="#709BE0"/>
<path fill-rule="evenodd" clip-rule="evenodd" d="M59.9994 19.3379C59.9994 23.3978 56.6434 26.6891 52.5036 26.6891C48.3638 26.6891 45.0078 23.3978 45.0078 19.3379H59.9994Z" fill="#3C4BA6"/>
<path d="M52.505 39.2542C52.4785 38.9041 52.4345 38.5845 52.3719 38.1763H44.1952C44.1952 39.2979 44.1952 40.5218 44.1907 41.6439H48.9276C48.8269 42.1668 48.6219 42.6651 48.3244 43.1101C48.0268 43.5551 47.6425 43.9381 47.1935 44.237C47.1935 44.237 47.1935 44.2177 47.1902 44.2171C46.6104 44.5905 45.9572 44.8405 45.2729 44.951C44.5867 45.0741 43.8833 45.0711 43.1982 44.9422C42.5027 44.801 41.8441 44.5211 41.2635 44.1198C40.4064 43.5237 39.7454 42.6954 39.3614 41.7362C39.3321 41.6616 39.305 41.5863 39.2774 41.51V41.5017L39.2847 41.4962C38.912 40.4235 38.911 39.2601 39.2819 38.1868C39.5431 37.4339 39.973 36.748 40.54 36.1793C41.8701 34.83 43.8574 34.3225 45.6896 34.8642C46.3921 35.0755 47.0341 35.4461 47.5635 35.946L49.1616 34.3787C49.4435 34.0994 49.7362 33.8289 50.0075 33.5403C49.1971 32.799 48.246 32.2213 47.2082 31.8402C45.3196 31.1686 43.2535 31.1509 41.3531 31.7899C41.287 31.812 41.2212 31.8351 41.1558 31.859C39.1056 32.6149 37.419 34.0973 36.4291 36.0134C36.0795 36.6916 35.825 37.413 35.6723 38.1581C34.7671 42.5697 37.5119 46.9123 41.9435 48.0795C43.3922 48.46 44.9323 48.4506 46.3922 48.1254C47.7187 47.8317 48.9452 47.2066 49.9528 46.3109C51.0039 45.3625 51.7573 44.0988 52.152 42.7566C52.482 41.6192 52.6016 40.433 52.505 39.2542Z" fill="white"/>
</g>
<defs>
<linearGradient id="paint0_linear_1_46038" x1="3.04297" y1="18023.3" x2="55800.7" y2="18023.3" gradientUnits="userSpaceOnUse">
<stop offset="0.03" stop-color="#4079D8"/>
<stop offset="1" stop-color="#4989F5"/>
</linearGradient>
<clipPath id="clip0_1_46038">
<rect width="60" height="51.4286" fill="white"/>
</clipPath>
</defs>
</svg>
