<svg width="54" height="68" viewBox="0 0 54 68" fill="none" xmlns="http://www.w3.org/2000/svg">
<path fill-rule="evenodd" clip-rule="evenodd" d="M3 8.33349L26.2932 3.96602C26.5368 3.92035 26.7867 3.92035 27.0303 3.96602L50.3235 8.33349V43.6448C50.3235 47.4375 48.3697 50.9627 45.1535 52.9728L27.1918 64.1989C26.8675 64.4016 26.456 64.4016 26.1318 64.1989L8.17001 52.9728C4.95381 50.9627 3 47.4375 3 43.6448L3 8.33349Z" stroke="#1499D8" stroke-width="6"/>
<path d="M35.3036 26.5935C35.1991 26.4614 35.066 26.3547 34.9141 26.2817C34.7623 26.2086 34.5958 26.1712 34.4274 26.1721H22.2268V25.6175C22.2282 25.1347 22.387 24.6655 22.6793 24.2811C22.9716 23.8968 23.3812 23.6183 23.8461 23.4879C24.1448 23.7761 24.5404 23.9423 24.9553 23.9538H26.0644C26.5057 23.9538 26.9288 23.7785 27.2408 23.4665C27.5529 23.1545 27.7281 22.7313 27.7281 22.2901C27.7281 21.8488 27.5529 21.4256 27.2408 21.1136C26.9288 20.8016 26.5057 20.6263 26.0644 20.6263H24.9553C24.7052 20.6267 24.4585 20.6838 24.2338 20.7933C24.009 20.9028 23.812 21.0619 23.6576 21.2586C22.6352 21.4429 21.71 21.9802 21.0432 22.7768C20.3763 23.5734 20.0102 24.5787 20.0085 25.6175V26.1721H18.8993C18.7309 26.1712 18.5644 26.2086 18.4126 26.2817C18.2608 26.3547 18.1276 26.4614 18.0231 26.5935C17.912 26.7252 17.8331 26.881 17.7927 27.0485C17.7523 27.216 17.7514 27.3906 17.7902 27.5585L18.4779 30.3203C18.6421 30.9564 18.9909 31.5297 19.4804 31.9679C19.9699 32.4061 20.5782 32.6895 21.2285 32.7826L22.0937 40.5466H21.1176C20.8235 40.5466 20.5414 40.6634 20.3334 40.8714C20.1253 41.0795 20.0085 41.3616 20.0085 41.6557C20.0085 41.9499 20.1253 42.232 20.3334 42.44C20.5414 42.648 20.8235 42.7649 21.1176 42.7649H32.2091C32.5032 42.7649 32.7854 42.648 32.9934 42.44C33.2014 42.232 33.3182 41.9499 33.3182 41.6557C33.3182 41.3616 33.2014 41.0795 32.9934 40.8714C32.7854 40.6634 32.5032 40.5466 32.2091 40.5466H31.233L32.0982 32.7826C32.7439 32.6827 33.346 32.3948 33.8292 31.955C34.3125 31.5151 34.6555 30.9427 34.8156 30.3092L35.5365 27.5585C35.5753 27.3906 35.5745 27.216 35.534 27.0485C35.4936 26.881 35.4147 26.7252 35.3036 26.5935ZM28.9926 40.591H24.3342L23.469 32.8269H29.8577L28.9926 40.591ZM32.6638 29.7768C32.6031 30.0229 32.4599 30.2407 32.2581 30.3941C32.0563 30.5475 31.8081 30.6271 31.5547 30.6197H21.7388C21.4854 30.6271 21.2371 30.5475 21.0353 30.3941C20.8335 30.2407 20.6903 30.0229 20.6296 29.7768L20.3191 28.3904H33.0077L32.6638 29.7768Z" fill="#1499D8"/>
</svg>
