<svg width="54" height="69" viewBox="0 0 54 69" fill="none" xmlns="http://www.w3.org/2000/svg">
<path fill-rule="evenodd" clip-rule="evenodd" d="M3 8.39544L26.6314 3.96455C26.875 3.91888 27.125 3.91888 27.3686 3.96455L51 8.39544V44.2987C51 48.0914 49.0462 51.6166 45.83 53.6267L27.53 65.0642C27.2057 65.2669 26.7943 65.2669 26.47 65.0642L8.17001 53.6267C4.95382 51.6166 3 48.0914 3 44.2987L3 8.39544Z" stroke="#1499D8" stroke-width="6"/>
<path d="M21.9414 30.1456H23.0664C23.3648 30.1456 23.6509 30.027 23.8619 29.8161C24.0729 29.6051 24.1914 29.3189 24.1914 29.0206C24.1914 28.7222 24.0729 28.4361 23.8619 28.2251C23.6509 28.0141 23.3648 27.8956 23.0664 27.8956H21.9414C21.643 27.8956 21.3569 28.0141 21.1459 28.2251C20.9349 28.4361 20.8164 28.7222 20.8164 29.0206C20.8164 29.3189 20.9349 29.6051 21.1459 29.8161C21.3569 30.027 21.643 30.1456 21.9414 30.1456ZM26.4414 36.8956H21.9414C21.643 36.8956 21.3569 37.0141 21.1459 37.2251C20.9349 37.4361 20.8164 37.7222 20.8164 38.0206C20.8164 38.3189 20.9349 38.6051 21.1459 38.8161C21.3569 39.027 21.643 39.1456 21.9414 39.1456H26.4414C26.7398 39.1456 27.0259 39.027 27.2369 38.8161C27.4479 38.6051 27.5664 38.3189 27.5664 38.0206C27.5664 37.7222 27.4479 37.4361 27.2369 37.2251C27.0259 37.0141 26.7398 36.8956 26.4414 36.8956ZM26.4414 32.3956H21.9414C21.643 32.3956 21.3569 32.5141 21.1459 32.7251C20.9349 32.9361 20.8164 33.2222 20.8164 33.5206C20.8164 33.8189 20.9349 34.1051 21.1459 34.3161C21.3569 34.527 21.643 34.6456 21.9414 34.6456H26.4414C26.7398 34.6456 27.0259 34.527 27.2369 34.3161C27.4479 34.1051 27.5664 33.8189 27.5664 33.5206C27.5664 33.2222 27.4479 32.9361 27.2369 32.7251C27.0259 32.5141 26.7398 32.3956 26.4414 32.3956ZM34.2264 29.4481C34.3126 29.2432 34.3361 29.0174 34.2941 28.7992C34.252 28.5809 34.1463 28.38 33.9902 28.2218L27.2402 21.4718C27.1472 21.3843 27.0408 21.3122 26.9252 21.2581C26.8916 21.2533 26.8575 21.2533 26.8239 21.2581L26.5089 21.1456H19.6914C18.7963 21.1456 17.9379 21.5011 17.3049 22.1341C16.672 22.767 16.3164 23.6255 16.3164 24.5206V40.2706C16.3164 41.1657 16.672 42.0241 17.3049 42.6571C17.9379 43.29 18.7963 43.6456 19.6914 43.6456H26.4414C26.7398 43.6456 27.0259 43.527 27.2369 43.3161C27.4479 43.1051 27.5664 42.8189 27.5664 42.5206C27.5664 42.2222 27.4479 41.9361 27.2369 41.7251C27.0259 41.5141 26.7398 41.3956 26.4414 41.3956H19.6914C19.393 41.3956 19.1069 41.277 18.8959 41.0661C18.6849 40.8551 18.5664 40.5689 18.5664 40.2706V24.5206C18.5664 24.2222 18.6849 23.9361 18.8959 23.7251C19.1069 23.5141 19.393 23.3956 19.6914 23.3956H25.3164V26.7706C25.3164 27.6657 25.672 28.5241 26.3049 29.1571C26.9379 29.79 27.7963 30.1456 28.6914 30.1456H33.1914C33.4135 30.1445 33.6303 30.0776 33.8145 29.9535C33.9987 29.8294 34.142 29.6535 34.2264 29.4481ZM28.6914 27.8956C28.393 27.8956 28.1069 27.777 27.8959 27.5661C27.6849 27.3551 27.5664 27.0689 27.5664 26.7706V24.9818L30.4802 27.8956H28.6914ZM36.5664 32.3956H30.9414C30.643 32.3956 30.3569 32.5141 30.1459 32.7251C29.9349 32.9361 29.8164 33.2222 29.8164 33.5206V42.5206C29.817 42.7241 29.8727 42.9236 29.9777 43.098C30.0827 43.2723 30.233 43.4149 30.4127 43.5106C30.5886 43.6009 30.7852 43.6433 30.9827 43.6334C31.1802 43.6235 31.3716 43.5617 31.5377 43.4543L33.7539 41.9918L36.0039 43.4543C36.172 43.5515 36.3623 43.6036 36.5565 43.6054C36.7506 43.6072 36.9419 43.5588 37.1118 43.4648C37.2817 43.3708 37.4243 43.2345 37.5259 43.069C37.6275 42.9035 37.6845 42.7146 37.6914 42.5206V33.5206C37.6914 33.2222 37.5729 32.9361 37.3619 32.7251C37.1509 32.5141 36.8648 32.3956 36.5664 32.3956ZM35.4414 40.4056L34.3839 39.6968C34.1979 39.5711 33.9785 39.5039 33.7539 39.5039C33.5294 39.5039 33.3099 39.5711 33.1239 39.6968L32.0664 40.4056V34.6456H35.4414V40.4056Z" fill="#1499D8"/>
</svg>
