<svg width="54" height="68" viewBox="0 0 54 68" fill="none" xmlns="http://www.w3.org/2000/svg">
<path fill-rule="evenodd" clip-rule="evenodd" d="M3 8.33349L26.2932 3.96602C26.5368 3.92035 26.7867 3.92035 27.0303 3.96602L50.3235 8.33349V43.6448C50.3235 47.4375 48.3697 50.9627 45.1535 52.9728L27.1918 64.1989C26.8675 64.4016 26.456 64.4016 26.1318 64.1989L8.17001 52.9728C4.95381 50.9627 3 47.4375 3 43.6448L3 8.33349Z" stroke="#1499D8" stroke-width="6"/>
<path d="M36.648 36.432H21.1199C20.8258 36.432 20.5437 36.3151 20.3357 36.1071C20.1277 35.8991 20.0108 35.617 20.0108 35.3228C20.0108 35.0287 20.1277 34.7465 20.3357 34.5385C20.5437 34.3305 20.8258 34.2137 21.1199 34.2137H32.6994C33.441 34.2137 34.1614 33.966 34.7462 33.5098C35.331 33.0537 35.7466 32.4153 35.927 31.6959L37.7571 24.4976C37.7987 24.3339 37.8023 24.1628 37.7677 23.9975C37.7331 23.8322 37.6612 23.677 37.5575 23.5437C37.4496 23.407 37.3111 23.2976 37.153 23.2244C36.995 23.1511 36.822 23.1161 36.648 23.1222H20.8537C20.6249 22.475 20.2015 21.9144 19.6415 21.5172C19.0816 21.1201 18.4125 20.9059 17.726 20.9039H16.6834C16.3892 20.9039 16.1071 21.0208 15.8991 21.2288C15.6911 21.4368 15.5742 21.7189 15.5742 22.0131C15.5742 22.3072 15.6911 22.5894 15.8991 22.7974C16.1071 23.0054 16.3892 23.1222 16.6834 23.1222H17.726C17.9793 23.1148 18.2276 23.1945 18.4294 23.3478C18.6312 23.5012 18.7744 23.7191 18.8351 23.9652L18.9017 24.4976L20.8205 31.9954C19.938 32.0351 19.1074 32.4237 18.5115 33.0758C17.9155 33.7279 17.6031 34.5901 17.6428 35.4725C17.6825 36.355 18.0711 37.1856 18.7232 37.7815C19.3753 38.3775 20.2375 38.69 21.1199 38.6502H21.3196C21.1372 39.1528 21.0786 39.692 21.1487 40.222C21.2188 40.7521 21.4157 41.2574 21.7226 41.6952C22.0294 42.1331 22.4373 42.4905 22.9116 42.7373C23.3859 42.9841 23.9127 43.1129 24.4474 43.1129C24.982 43.1129 25.5088 42.9841 25.9832 42.7373C26.4575 42.4905 26.8653 42.1331 27.1722 41.6952C27.4791 41.2574 27.6759 40.7521 27.7461 40.222C27.8162 39.692 27.7576 39.1528 27.5752 38.6502H30.1927C30.0103 39.1528 29.9517 39.692 30.0219 40.222C30.092 40.7521 30.2889 41.2574 30.5957 41.6952C30.9026 42.1331 31.3104 42.4905 31.7848 42.7373C32.2591 42.9841 32.7859 43.1129 33.3205 43.1129C33.8552 43.1129 34.382 42.9841 34.8563 42.7373C35.3306 42.4905 35.7385 42.1331 36.0454 41.6952C36.3522 41.2574 36.5491 40.7521 36.6192 40.222C36.6894 39.692 36.6307 39.1528 36.4483 38.6502H36.648C36.9421 38.6502 37.2242 38.5334 37.4323 38.3254C37.6403 38.1174 37.7571 37.8353 37.7571 37.5411C37.7571 37.2469 37.6403 36.9648 37.4323 36.7568C37.2242 36.5488 36.9421 36.432 36.648 36.432ZM35.2283 25.3405L33.7753 31.1524C33.7146 31.3985 33.5714 31.6164 33.3696 31.7698C33.1678 31.9231 32.9195 32.0028 32.6661 31.9954H23.0942L21.4305 25.3405H35.2283ZM24.4474 40.8685C24.228 40.8685 24.0136 40.8035 23.8312 40.6816C23.6488 40.5597 23.5066 40.3865 23.4227 40.1838C23.3387 39.9812 23.3167 39.7582 23.3595 39.543C23.4023 39.3279 23.508 39.1302 23.6631 38.9751C23.8182 38.82 24.0158 38.7144 24.231 38.6716C24.4461 38.6288 24.6692 38.6507 24.8718 38.7347C25.0745 38.8186 25.2477 38.9608 25.3696 39.1432C25.4915 39.3256 25.5565 39.54 25.5565 39.7594C25.5565 40.0536 25.4397 40.3357 25.2317 40.5437C25.0237 40.7517 24.7415 40.8685 24.4474 40.8685ZM33.3205 40.8685C33.1012 40.8685 32.8867 40.8035 32.7043 40.6816C32.5219 40.5597 32.3798 40.3865 32.2958 40.1838C32.2119 39.9812 32.1899 39.7582 32.2327 39.543C32.2755 39.3279 32.3811 39.1302 32.5363 38.9751C32.6914 38.82 32.889 38.7144 33.1042 38.6716C33.3193 38.6288 33.5423 38.6507 33.745 38.7347C33.9477 38.8186 34.1209 38.9608 34.2428 39.1432C34.3646 39.3256 34.4297 39.54 34.4297 39.7594C34.4297 40.0536 34.3128 40.3357 34.1048 40.5437C33.8968 40.7517 33.6147 40.8685 33.3205 40.8685Z" fill="#1499D8"/>
</svg>
