<svg width="60" height="60" viewBox="0 0 60 60" fill="none" xmlns="http://www.w3.org/2000/svg">
<g clip-path="url(#clip0_1_46011)">
<path d="M16.6667 60H43.3333C52.5383 60 60 52.5383 60 43.3333V16.6667C60 7.46167 52.5383 0 43.3333 0H16.6667C7.46167 0 0 7.46167 0 16.6667V43.3333C0 52.5383 7.46167 60 16.6667 60Z" fill="#ECEFF1"/>
<path d="M35.8521 11C35.9289 11 36.0057 11 36.0869 11C36.2753 13.3272 35.387 15.0661 34.3074 16.3254C33.2481 17.5759 31.7976 18.7888 29.4515 18.6048C29.295 16.3109 30.1848 14.701 31.2629 13.4446C32.2628 12.2737 34.0958 11.2319 35.8521 11Z" fill="black"/>
<path d="M42.9545 35.2228C42.9545 35.246 42.9545 35.2662 42.9545 35.288C42.2951 37.2848 41.3547 38.9962 40.207 40.5844C39.1593 42.0262 37.8754 43.9665 35.583 43.9665C33.6021 43.9665 32.2863 42.6928 30.2562 42.658C28.1086 42.6232 26.9276 43.7231 24.9641 43.9999C24.7395 43.9999 24.5149 43.9999 24.2946 43.9999C22.8528 43.7912 21.6892 42.6493 20.8415 41.6205C18.3418 38.5803 16.4102 34.6533 16.0508 29.6279C16.0508 29.1352 16.0508 28.6439 16.0508 28.1512C16.2029 24.5546 17.9505 21.6304 20.2734 20.2132C21.4993 19.4596 23.1846 18.8177 25.0612 19.1046C25.8654 19.2292 26.6871 19.5046 27.4073 19.777C28.0898 20.0393 28.9433 20.5044 29.7519 20.4798C30.2996 20.4638 30.8445 20.1784 31.3966 19.977C33.0138 19.393 34.5991 18.7235 36.6886 19.0379C39.1999 19.4176 40.9823 20.5334 42.0836 22.2549C39.9592 23.6069 38.2797 25.6443 38.5667 29.1236C38.8217 32.284 40.6591 34.1331 42.9545 35.2228Z" fill="black"/>
</g>
<defs>
<clipPath id="clip0_1_46011">
<rect width="60" height="60" fill="white"/>
</clipPath>
</defs>
</svg>
