<svg width="68" height="23" viewBox="0 0 68 23" fill="none" xmlns="http://www.w3.org/2000/svg">
<g clip-path="url(#clip0_1_54084)">
<path fill-rule="evenodd" clip-rule="evenodd" d="M44.3096 0.705078C47.4004 0.705078 49.5922 1.64739 49.5922 1.64739L48.6175 6.13768C48.6175 6.13768 46.603 5.12119 44.1339 5.12119C41.946 5.12119 40.8909 6.08045 40.8909 6.95579C40.8909 9.41945 48.5724 9.7734 48.5724 15.3565C48.5724 20.0422 44.4202 22.658 39.1435 22.658C35.5831 22.658 32.9014 21.4775 32.9014 21.4775L33.8974 16.8282C33.8974 16.8282 36.2253 18.2262 39.3399 18.2262C41.5343 18.2262 42.8195 17.2258 42.8195 16.108C42.8195 13.4541 35.1698 13.0891 35.1698 7.80569C35.1698 3.19883 39.4828 0.705078 44.3096 0.705078ZM0.152104 1.04377H9.36591C10.6966 1.04377 11.7836 1.84408 11.9983 3.24673L14.3381 15.5019L20.0728 1.04377H25.8522L16.928 22.3087H11.135L6.81347 5.70361C6.41712 4.17167 6.24914 3.67826 3.89444 2.8309C2.0658 2.09205 0.0351562 1.72157 0.0351562 1.72157L0.152104 1.04377ZM28.1763 1.04377H33.672L29.154 22.3087H23.6425L28.1763 1.04377ZM58.9153 1.04377H63.5605L68.0096 22.3087H62.9099L62.2299 19.0893H55.1887L54.0707 22.3087H48.2909L56.3654 2.9924C56.8821 1.75336 57.5864 1.04377 58.9153 1.04377ZM59.6668 6.7892L56.7903 14.7685H61.3802L59.6668 6.7892Z" fill="white"/>
</g>
<defs>
<clipPath id="clip0_1_54084">
<rect width="68" height="22" fill="white" transform="translate(0 0.670898)"/>
</clipPath>
</defs>
</svg>
