<svg width="190" height="27" viewBox="0 0 190 27" fill="none" xmlns="http://www.w3.org/2000/svg">
<g clip-path="url(#clip0_1_54071)">
<path d="M18.3754 3.97901H2.83317V6.46728L18.4098 6.44207C18.6004 6.44207 18.736 6.39944 18.8166 6.31419C18.8972 6.22893 18.941 6.07884 18.9481 5.8639V4.52386C18.9481 4.33053 18.9066 4.19275 18.8236 4.1105C18.7407 4.02824 18.5966 3.98442 18.3913 3.97901H18.3754ZM187.185 9.33109V4.61572C187.185 4.38937 187.138 4.22817 187.045 4.13211C186.951 4.03605 186.795 3.98802 186.577 3.98802H171.644C171.421 3.98802 171.263 4.03305 171.169 4.1231C171.075 4.21316 171.03 4.35725 171.035 4.55538V9.30587C171.035 9.52201 171.081 9.67601 171.173 9.76787C171.264 9.85972 171.421 9.90625 171.643 9.90746H186.597C186.811 9.90746 186.964 9.86273 187.054 9.77327C187.145 9.68381 187.189 9.53672 187.188 9.33199L187.185 9.33109ZM171.177 12.6236C170.224 12.6236 169.501 12.3807 169.008 11.895C168.515 11.4093 168.267 10.6922 168.263 9.74355V4.14202C168.263 3.20002 168.509 2.48557 169 1.99866C169.491 1.51176 170.208 1.2692 171.15 1.271H186.979C187.947 1.271 188.682 1.51866 189.185 2.01397C189.688 2.50928 189.94 3.23905 189.94 4.20325V9.79578C189.94 10.7156 189.695 11.4135 189.207 11.8896C188.718 12.3657 188.005 12.6014 187.069 12.5966L171.177 12.6227V12.6236ZM166.794 12.6236H164.109C164.059 12.6236 164.009 12.6093 163.966 12.5822C163.923 12.5552 163.888 12.5165 163.866 12.4705L161.346 8.30985H146.394V12.3453C146.394 12.4188 146.366 12.4892 146.315 12.5412C146.264 12.5931 146.195 12.6224 146.123 12.6227H143.923C143.851 12.6227 143.782 12.5935 143.73 12.5415C143.679 12.4895 143.65 12.4189 143.65 12.3453V12.3264L143.624 1.55288C143.624 1.47956 143.652 1.40923 143.703 1.35739C143.754 1.30554 143.823 1.27641 143.895 1.27641H146.12C146.192 1.27664 146.261 1.30594 146.312 1.35791C146.363 1.40988 146.392 1.48029 146.392 1.55378V5.59013H161.336L163.905 1.40789C163.93 1.36822 163.963 1.33551 164.004 1.31282C164.044 1.29014 164.089 1.27823 164.135 1.27821H166.792C166.841 1.27802 166.89 1.29161 166.932 1.31752C166.975 1.34344 167.009 1.38069 167.032 1.42526C167.056 1.46984 167.067 1.52004 167.064 1.57046C167.061 1.62088 167.045 1.66961 167.017 1.71138L163.999 6.93468L167.025 12.2138C167.05 12.2558 167.063 12.3037 167.063 12.3525C167.063 12.4013 167.051 12.4493 167.027 12.4916C167.003 12.534 166.969 12.5692 166.928 12.5936C166.886 12.618 166.839 12.6309 166.792 12.6308L166.794 12.6236ZM123.498 9.90655H139.073C139.286 9.90655 139.437 9.85972 139.526 9.76607C139.618 9.67 139.664 9.5097 139.664 9.28516V4.56708C139.664 4.35155 139.616 4.19815 139.52 4.10689C139.419 4.01023 139.25 3.9619 139.012 3.9619H123.498V9.90565L123.498 9.90655ZM121.017 1.24939H139.497C140.452 1.24939 141.177 1.49164 141.672 1.97615C142.167 2.46066 142.416 3.17601 142.418 4.1222V9.71473C142.418 10.6693 142.17 11.3931 141.673 11.886C141.176 12.3789 140.45 12.6245 139.496 12.6227H121.017C120.945 12.6224 120.876 12.5931 120.825 12.5412C120.774 12.4892 120.746 12.4188 120.745 12.3453V1.51956C120.746 1.44607 120.774 1.37566 120.825 1.32369C120.876 1.27172 120.945 1.24242 121.017 1.24219V1.24939ZM116.794 9.33559V4.61572C116.794 4.38937 116.747 4.22817 116.654 4.13211C116.56 4.03605 116.405 3.98802 116.187 3.98802H101.252C101.03 3.98802 100.872 4.03305 100.778 4.1231C100.684 4.21316 100.639 4.35725 100.644 4.55538V9.30587C100.644 9.52201 100.69 9.67601 100.782 9.76787C100.873 9.85972 101.03 9.90625 101.251 9.90746H116.203C116.417 9.90746 116.569 9.86273 116.66 9.77327C116.751 9.68381 116.795 9.53672 116.792 9.33199L116.794 9.33559ZM100.786 12.6236C99.8337 12.6236 99.111 12.3807 98.618 11.895C98.1251 11.4093 97.8772 10.6922 97.8742 9.74355V4.14202C97.8742 2.22801 98.836 1.271 100.76 1.271H116.59C117.558 1.271 118.293 1.51866 118.796 2.01397C119.299 2.50928 119.55 3.23905 119.55 4.20325V9.79578C119.55 10.7156 119.305 11.4135 118.816 11.8896C118.326 12.3657 117.614 12.6014 116.679 12.5966L100.786 12.6227V12.6236ZM96.3512 12.6236H94.1603C94.0883 12.6233 94.0193 12.594 93.9684 12.5421C93.9174 12.4901 93.8887 12.4197 93.8885 12.3462V8.30174H77.6854V12.3462C77.6851 12.4197 77.6564 12.4901 77.6055 12.5421C77.5546 12.594 77.4856 12.6233 77.4136 12.6236H75.2403C75.1683 12.6233 75.0993 12.594 75.0484 12.5421C74.9975 12.4901 74.9688 12.4197 74.9685 12.3462V1.54928C74.9688 1.47579 74.9975 1.40538 75.0484 1.35341C75.0993 1.30144 75.1683 1.27214 75.2403 1.27191H77.4136C77.4856 1.27214 77.5546 1.30144 77.6055 1.35341C77.6564 1.40538 77.6851 1.47579 77.6854 1.54928V5.58563H93.8876V1.54928C93.8878 1.47579 93.9166 1.40538 93.9675 1.35341C94.0184 1.30144 94.0874 1.27214 94.1594 1.27191H96.3503C96.4223 1.27214 96.4913 1.30144 96.5423 1.35341C96.5932 1.40538 96.6219 1.47579 96.6221 1.54928V12.3462C96.6219 12.4197 96.5932 12.4901 96.5423 12.5421C96.4913 12.594 96.4223 12.6233 96.3503 12.6236H96.3512ZM73.48 12.6236H70.7958C70.7452 12.6237 70.6957 12.6094 70.6527 12.5824C70.6096 12.5553 70.5749 12.5166 70.5522 12.4705L68.0313 8.30985H53.0811V12.3453C53.0809 12.4188 53.0522 12.4892 53.0013 12.5412C52.9503 12.5931 52.8814 12.6224 52.8093 12.6227H50.6087C50.5367 12.6224 50.4677 12.5931 50.4168 12.5412C50.3659 12.4892 50.3372 12.4188 50.3369 12.3453V12.3264L50.3104 1.55288C50.3104 1.51657 50.3175 1.48062 50.3311 1.44708C50.3447 1.41354 50.3646 1.38306 50.3898 1.35739C50.415 1.33171 50.4448 1.31135 50.4777 1.29745C50.5105 1.28356 50.5458 1.27641 50.5813 1.27641H52.8076C52.8796 1.27664 52.9486 1.30594 52.9995 1.35791C53.0504 1.40988 53.0791 1.48029 53.0794 1.55378V5.59013H68.0242L70.5919 1.40789C70.6163 1.36822 70.6501 1.33551 70.6902 1.31282C70.7304 1.29014 70.7755 1.27823 70.8214 1.27821H73.4755C73.5249 1.27832 73.5733 1.29211 73.6156 1.31809C73.6579 1.34407 73.6924 1.38128 73.7156 1.42574C73.7388 1.47021 73.7497 1.52026 73.7472 1.57056C73.7447 1.62087 73.7289 1.66954 73.7014 1.71138L70.6846 6.93468L73.7103 12.2138C73.7346 12.2558 73.7475 12.3037 73.7478 12.3525C73.7481 12.4013 73.7358 12.4493 73.7121 12.4916C73.6883 12.534 73.654 12.5692 73.6126 12.5936C73.5712 12.618 73.5242 12.6309 73.4764 12.6308L73.48 12.6236ZM48.7963 12.5893H46.5515C46.4795 12.5891 46.4105 12.5598 46.3596 12.5078C46.3087 12.4559 46.28 12.3855 46.2797 12.312V1.51956C46.28 1.44607 46.3087 1.37566 46.3596 1.32369C46.4105 1.27172 46.4795 1.24242 46.5515 1.24219H48.7954C48.8674 1.24242 48.9364 1.27172 48.9873 1.32369C49.0382 1.37566 49.0669 1.44607 49.0672 1.51956V12.3084C49.0669 12.3819 49.0382 12.4523 48.9873 12.5042C48.9364 12.5562 48.8674 12.5855 48.7954 12.5857L48.7963 12.5893ZM41.1849 3.97901H25.7133V6.45738H41.2687C41.4834 6.45738 41.6375 6.40905 41.7311 6.31239C41.8246 6.21572 41.8734 6.05212 41.8776 5.82158V4.54817C41.8776 4.35365 41.8287 4.21316 41.7311 4.12671C41.6223 4.02885 41.439 3.97991 41.1814 3.97991L41.1849 3.97901ZM44.3694 12.6245H41.6914C41.6461 12.6244 41.6016 12.6129 41.5619 12.5909C41.5221 12.5689 41.4884 12.5371 41.4637 12.4984L38.9048 9.15818H25.7133V12.3471C25.713 12.4206 25.6843 12.491 25.6334 12.543C25.5825 12.5949 25.5135 12.6242 25.4415 12.6245H23.2144C23.1424 12.6242 23.0734 12.5949 23.0224 12.543C22.9715 12.491 22.9428 12.4206 22.9426 12.3471V12.3219L22.9691 1.54117C22.9691 1.46785 22.9976 1.39753 23.0484 1.34568C23.0992 1.29383 23.1681 1.2647 23.2399 1.2647H41.7293C42.6705 1.2647 43.3864 1.50275 43.877 1.97885C44.3676 2.45495 44.6138 3.1595 44.6156 4.09249V6.30518C44.6156 7.24237 44.3647 7.95322 43.8629 8.43773C43.4635 8.82377 42.9152 9.05462 42.2182 9.13026L44.5829 12.1742C44.6148 12.215 44.6348 12.2642 44.6405 12.3161C44.6462 12.368 44.6375 12.4205 44.6152 12.4675C44.593 12.5146 44.5583 12.5543 44.5149 12.582C44.4716 12.6098 44.4214 12.6245 44.3703 12.6245H44.3694ZM2.83317 9.1834V12.3462C2.83294 12.4197 2.80423 12.4901 2.75331 12.5421C2.7024 12.594 2.6334 12.6233 2.5614 12.6236H0.334272C0.262265 12.6233 0.193274 12.594 0.142357 12.5421C0.0914403 12.4901 0.0627327 12.4197 0.0625 12.3462V1.53937C0.0627327 1.46588 0.0914403 1.39547 0.142357 1.3435C0.193274 1.29153 0.262265 1.26224 0.334272 1.262H18.7619C19.7331 1.262 20.4702 1.50215 20.9731 1.98245C21.4761 2.46276 21.7302 3.1721 21.7355 4.1105V6.23764C21.7355 7.20605 21.4852 7.94001 20.9846 8.43953C20.484 8.93904 19.7516 9.1882 18.7875 9.187L2.83317 9.1834Z" fill="white" stroke="white" stroke-width="0.236087" stroke-linecap="round" stroke-linejoin="round"/>
<path fill-rule="evenodd" clip-rule="evenodd" d="M76.3945 22.2326H70.067V23.4492L76.4086 23.4384C76.6222 23.4384 76.7301 23.3243 76.7325 23.0962V22.5676C76.7325 22.3442 76.6198 22.2326 76.3945 22.2326ZM70.067 24.3129V25.6889H69.1758V21.3662H76.5489C77.2695 21.3662 77.6299 21.7084 77.6299 22.3929V23.243C77.6299 23.955 77.2731 24.3111 76.5595 24.3111L70.067 24.3129Z" fill="white"/>
<path fill-rule="evenodd" clip-rule="evenodd" d="M79.2217 23.4251H85.9013V22.5651C85.9013 22.3363 85.7837 22.222 85.5484 22.222H79.5729C79.3376 22.222 79.22 22.3399 79.22 22.5759V23.4251H79.2217ZM86.7917 25.6765H85.9005V24.2888H79.2208V25.6783H78.3438V22.4291C78.3438 21.7146 78.6967 21.3574 79.4026 21.3574H85.7266C86.4355 21.3574 86.7899 21.7176 86.7899 22.4381V25.6801L86.7917 25.6765Z" fill="white"/>
<path fill-rule="evenodd" clip-rule="evenodd" d="M94.6758 22.2326H88.3765V23.4457H94.7111C94.9464 23.4457 95.064 23.3238 95.064 23.0801V22.5803C95.064 22.3479 94.9352 22.2317 94.6775 22.2317L94.6758 22.2326ZM95.9499 25.689H94.8778L93.8137 24.3039H88.3756V25.6899H87.4844L87.495 21.3672H94.8928C95.5899 21.3672 95.9384 21.707 95.9384 22.3866V23.2719C95.9384 23.9587 95.5828 24.3021 94.8716 24.3021L95.949 25.6881L95.9499 25.689Z" fill="white"/>
<path fill-rule="evenodd" clip-rule="evenodd" d="M102.112 25.6856H101.057V22.2365H96.6484V21.3584H106.507V22.2229H102.112V25.6856Z" fill="white"/>
<path fill-rule="evenodd" clip-rule="evenodd" d="M108.109 22.3571V25.6856H107.228L107.219 21.3584H108.102L114.789 24.6626L114.785 21.3683H115.672V25.6757H114.782L108.109 22.3571Z" fill="white"/>
<path fill-rule="evenodd" clip-rule="evenodd" d="M124.841 25.6856H116.391V21.3584H124.841V22.2229H117.285V23.0965H124.841V23.961H117.285V24.822H124.841V25.6856Z" fill="white"/>
<path fill-rule="evenodd" clip-rule="evenodd" d="M132.749 22.2326H126.45V23.4457H132.785C133.017 23.4457 133.134 23.3238 133.138 23.0801V22.5803C133.138 22.3479 133.011 22.2317 132.75 22.2317L132.749 22.2326ZM134.023 25.689H132.95L131.891 24.3039H126.453V25.6899H125.562L125.573 21.3672H132.97C133.668 21.3672 134.016 21.707 134.016 22.3866V23.2719C134.011 23.9599 133.656 24.3039 132.95 24.3039L134.027 25.6899L134.023 25.689Z" fill="white"/>
<path fill-rule="evenodd" clip-rule="evenodd" d="M143.175 24.6245C143.175 25.3318 142.815 25.6854 142.097 25.6854H134.721L134.732 24.8281H141.943C142.178 24.8281 142.296 24.7221 142.296 24.5102V24.303C142.302 24.0752 142.18 23.9608 141.932 23.9608H135.785C135.073 23.9608 134.718 23.6375 134.719 22.9909V22.4118C134.719 21.7124 135.067 21.3627 135.764 21.3627L143.176 21.3555V22.22H135.95C135.718 22.22 135.602 22.3353 135.602 22.5658V22.7387C135.602 22.9738 135.715 23.0918 135.942 23.0918H142.094C142.812 23.0918 143.171 23.4328 143.171 24.1148V24.6227L143.175 24.6245Z" fill="white"/>
<path fill-rule="evenodd" clip-rule="evenodd" d="M57.5321 18.4997C57.5101 18.4043 57.4527 18.2674 57.3556 17.9486C57.2247 17.5431 57.118 17.1299 57.0362 16.7112C56.9534 16.234 56.9821 15.7436 57.1201 15.2799C57.2581 14.8162 57.5015 14.3924 57.8304 14.0428C58.801 12.9883 60.8463 12.3624 61.8469 13.6745C62.4505 14.5544 62.1293 15.6621 61.4675 16.4068C60.9107 17.0372 59.8687 17.7577 59.1407 18.1863C59.0706 18.2218 59.0039 18.2637 58.9413 18.3115C58.9175 18.3358 58.9077 18.3656 58.9245 18.4313C58.9779 18.5884 59.0437 18.7408 59.1213 18.887C59.258 19.1734 59.4883 19.6444 59.6136 19.8992C59.7389 20.1541 59.7575 20.1937 59.8034 20.1811C59.8492 20.1685 59.9207 20.1055 60.1254 19.9434C60.4076 19.7098 60.7128 19.5067 61.036 19.3373C61.4102 19.1572 61.8231 19.0455 62.3781 18.9644C63.9752 18.7483 65.5547 18.8582 67.1103 18.6645C68.2213 18.5259 69.0957 18.2044 69.2228 16.9418C69.3013 16.161 68.5839 15.8935 68.7171 15.6558L68.733 15.6278C68.8438 15.4771 68.9641 15.334 69.093 15.1992C69.2422 15.0326 69.3904 14.8614 69.4795 14.7651C69.5686 14.6687 69.5969 14.6498 69.656 14.7354C69.7635 14.9054 69.8422 15.0926 69.889 15.2892C70.2843 16.8688 69.5748 18.0098 68.3007 18.8726C67.4395 19.457 66.4141 19.6993 65.4021 19.8443C65.1123 19.8906 64.8189 19.9087 64.5258 19.8983C64.3838 19.8938 64.3361 19.8938 64.307 19.9298C64.2779 19.9659 64.2682 20.0397 64.2188 20.2559C64.1484 20.5845 64.0495 20.9061 63.9232 21.2168C63.7403 21.6433 63.5116 22.0477 63.2411 22.4226C62.9838 22.7771 62.7072 23.1166 62.4125 23.4394C62.2061 23.6672 62.1293 23.7356 62.0834 23.7798C61.9334 23.9815 62.2652 24.1985 62.3923 24.3201C64.5629 26.3914 65.0959 23.7239 65.2423 24.3408C65.3632 24.8487 64.2911 25.6376 63.9108 25.8448C62.852 26.422 61.9264 25.734 61.2955 24.8659C61.2546 24.8034 61.2079 24.7452 61.156 24.6921C61.1296 24.6677 61.1155 24.6623 61.0625 24.6993C61.0096 24.7362 60.9187 24.8145 60.7096 24.9541C59.2563 25.9114 56.7256 26.6652 55.1223 25.7412C53.872 25.0208 53.4352 23.1953 53.9602 21.8634C54.4244 20.6863 55.6544 19.8344 56.6833 19.2085C57.0142 19.0077 57.2356 18.8708 57.3556 18.7969C57.4756 18.7231 57.4951 18.7132 57.5118 18.6817C57.5369 18.6249 57.5403 18.5607 57.5215 18.5015L57.5321 18.4997ZM57.3486 19.1193C57.4414 19.0624 57.5473 19.0313 57.6556 19.0293C57.8259 19.0518 58.1851 19.9199 58.2733 20.091C58.7939 21.1546 59.401 22.338 60.0134 23.3448C60.1983 23.659 60.4125 23.9543 60.6531 24.2265C60.7157 24.294 60.8057 24.3796 60.7784 24.4813C60.7519 24.548 60.6513 24.6065 60.4378 24.7218C59.2333 25.3675 58.336 25.7124 56.9824 25.1721C55.1806 24.3733 54.7632 22.7135 55.5565 20.9601C55.9182 20.1613 56.5986 19.5309 57.3495 19.1193H57.3486ZM60.0187 20.4855C60.0548 20.4135 60.1316 20.3225 60.444 20.2072C60.8861 20.055 61.3423 19.9493 61.8055 19.892C62.2016 19.8455 62.6012 19.8398 62.9985 19.8749C63.234 19.8983 63.2482 19.9253 63.2411 20.0676C63.2189 20.3548 63.1663 20.6386 63.084 20.9142C62.941 21.438 62.7587 21.9499 62.5387 22.4451C62.3994 22.757 62.2166 23.0467 61.9961 23.3052C61.8699 23.4502 61.824 23.4745 61.7861 23.479C61.7481 23.4835 61.7164 23.4691 61.4561 23.0665C61.1958 22.664 60.706 21.8724 60.4237 21.4068C60.1413 20.9412 60.0707 20.8016 60.0275 20.7043C60.0076 20.6709 59.9963 20.6329 59.9948 20.5938C59.9932 20.5548 60.0014 20.5159 60.0187 20.481V20.4855ZM58.636 17.8054C58.4972 17.5037 58.3758 17.194 58.2724 16.8778C58.1448 16.5036 58.0601 16.1156 58.0201 15.7215C57.9898 15.3623 58.0076 15.0005 58.073 14.6462C58.1089 14.4019 58.2018 14.1699 58.3439 13.9699C58.4723 13.8031 58.6394 13.6716 58.8301 13.5871C59.0462 13.4898 59.2805 13.4413 59.5167 13.445C59.7529 13.4488 59.9856 13.5046 60.1987 13.6088C60.407 13.7216 60.5879 13.8807 60.7281 14.0744C60.8761 14.2616 60.9886 14.4754 61.0599 14.7048C61.1303 14.95 61.1403 15.2093 61.089 15.4594C61.0214 15.7733 60.8986 16.0721 60.7263 16.3411C60.5223 16.6677 60.2786 16.9667 60.001 17.2308C59.7668 17.4485 59.5153 17.6461 59.2492 17.8216C59.1506 17.8925 59.0468 17.9554 58.9386 18.0098C58.8979 18.0351 58.85 18.0456 58.8027 18.0396C58.7639 18.0296 58.7286 17.9963 58.636 17.8009V17.8054Z" fill="#0043EA"/>
<path fill-rule="evenodd" clip-rule="evenodd" d="M54.1333 17.4388L18.0352 17.1218L54.1333 16.8066V17.1218V17.4388Z" fill="white"/>
<path fill-rule="evenodd" clip-rule="evenodd" d="M72.3125 17.4388L171.892 17.1218L72.3125 16.8066V17.1218V17.4388Z" fill="white"/>
</g>
<defs>
<clipPath id="clip0_1_54071">
<rect width="190" height="26" fill="white" transform="translate(0 0.670898)"/>
</clipPath>
</defs>
</svg>
