<svg width="43" height="34" viewBox="0 0 43 34" fill="none" xmlns="http://www.w3.org/2000/svg">
<path d="M41.9851 32.8895V32.9763H42.0651C42.0828 32.9763 42.098 32.972 42.1089 32.9653C42.119 32.9586 42.1249 32.9468 42.1249 32.9325C42.1249 32.9181 42.119 32.9072 42.1089 32.9005C42.098 32.8929 42.0828 32.8895 42.0651 32.8895H41.9851ZM42.066 32.8289C42.1072 32.8289 42.1393 32.8381 42.162 32.8567C42.1847 32.8752 42.1957 32.9005 42.1957 32.9325C42.1957 32.9594 42.1873 32.9813 42.1687 32.999C42.151 33.0158 42.1258 33.0268 42.0921 33.031L42.1982 33.1531H42.1157L42.0171 33.0318H41.9851V33.1531H41.916V32.8289H42.066ZM42.0449 33.2652C42.0828 33.2652 42.1182 33.2576 42.1502 33.2433C42.1831 33.2289 42.2117 33.2096 42.2361 33.1851C42.2606 33.1607 42.2799 33.1321 42.2943 33.0984C42.3077 33.0655 42.3153 33.0302 42.3153 32.9923C42.3153 32.9544 42.3077 32.919 42.2943 32.8861C42.2799 32.8533 42.2606 32.8238 42.2361 32.7994C42.2117 32.775 42.1831 32.7556 42.1502 32.7413C42.1182 32.7278 42.0828 32.7211 42.0449 32.7211C42.007 32.7211 41.9708 32.7278 41.9379 32.7413C41.9042 32.7556 41.8747 32.775 41.8503 32.7994C41.8259 32.8238 41.8065 32.8533 41.793 32.8861C41.7787 32.919 41.772 32.9544 41.772 32.9923C41.772 33.0302 41.7787 33.0655 41.793 33.0984C41.8065 33.1321 41.8259 33.1607 41.8503 33.1851C41.8747 33.2096 41.9042 33.2289 41.9379 33.2433C41.9708 33.2576 42.007 33.2652 42.0449 33.2652ZM42.0449 32.6427C42.0946 32.6427 42.1401 32.652 42.1839 32.6705C42.2269 32.6882 42.2639 32.7135 42.2968 32.7455C42.3288 32.7766 42.3541 32.8137 42.3726 32.8567C42.3911 32.8988 42.4004 32.9443 42.4004 32.9923C42.4004 33.0403 42.3911 33.0858 42.3726 33.1279C42.3541 33.17 42.3288 33.207 42.2968 33.239C42.2639 33.2702 42.2269 33.2955 42.1839 33.314C42.1401 33.3325 42.0946 33.3418 42.0449 33.3418C41.9944 33.3418 41.948 33.3325 41.9042 33.314C41.8604 33.2955 41.8225 33.2702 41.7905 33.239C41.7585 33.207 41.7332 33.17 41.7147 33.1279C41.6962 33.0858 41.6869 33.0403 41.6869 32.9923C41.6869 32.9443 41.6962 32.8988 41.7147 32.8567C41.7332 32.8137 41.7585 32.7766 41.7905 32.7455C41.8225 32.7135 41.8604 32.6882 41.9042 32.6705C41.948 32.652 41.9944 32.6427 42.0449 32.6427ZM9.22481 31.3937C9.22481 30.7755 9.62999 30.2676 10.2921 30.2676C10.9247 30.2676 11.3518 30.7536 11.3518 31.3937C11.3518 32.0338 10.9247 32.5198 10.2921 32.5198C9.62999 32.5198 9.22481 32.0119 9.22481 31.3937ZM12.0729 31.3937V29.635H11.308V30.0621C11.0654 29.7454 10.6973 29.5466 10.1969 29.5466C9.21049 29.5466 8.43718 30.3198 8.43718 31.3937C8.43718 32.4684 9.21049 33.2407 10.1969 33.2407C10.6973 33.2407 11.0654 33.042 11.308 32.7253V33.1523H12.0729V31.3937ZM37.9206 31.3937C37.9206 30.7755 38.3258 30.2676 38.9879 30.2676C39.6214 30.2676 40.0476 30.7536 40.0476 31.3937C40.0476 32.0338 39.6214 32.5198 38.9879 32.5198C38.3258 32.5198 37.9206 32.0119 37.9206 31.3937ZM40.7695 31.3937V28.2226H40.0038V30.0621C39.7612 29.7454 39.3931 29.5466 38.8927 29.5466C37.9063 29.5466 37.133 30.3198 37.133 31.3937C37.133 32.4684 37.9063 33.2407 38.8927 33.2407C39.3931 33.2407 39.7612 33.042 40.0038 32.7253V33.1523H40.7695V31.3937ZM21.5674 30.2314C22.0602 30.2314 22.3769 30.5405 22.4578 31.0846H20.6324C20.7141 30.5767 21.0224 30.2314 21.5674 30.2314ZM21.5826 29.5466C20.5515 29.5466 19.8304 30.2971 19.8304 31.3937C19.8304 32.5122 20.581 33.2407 21.634 33.2407C22.1638 33.2407 22.649 33.1085 23.0761 32.748L22.7013 32.1812C22.4064 32.4162 22.0307 32.5492 21.6778 32.5492C21.185 32.5492 20.736 32.321 20.6256 31.6876H23.2379C23.2454 31.5924 23.253 31.4964 23.253 31.3937C23.2454 30.2971 22.5682 29.5466 21.5826 29.5466ZM30.8185 31.3937C30.8185 30.7755 31.2236 30.2676 31.8858 30.2676C32.5184 30.2676 32.9455 30.7536 32.9455 31.3937C32.9455 32.0338 32.5184 32.5198 31.8858 32.5198C31.2236 32.5198 30.8185 32.0119 30.8185 31.3937ZM33.6666 31.3937V29.635H32.9017V30.0621C32.6582 29.7454 32.2909 29.5466 31.7906 29.5466C30.8041 29.5466 30.0308 30.3198 30.0308 31.3937C30.0308 32.4684 30.8041 33.2407 31.7906 33.2407C32.2909 33.2407 32.6582 33.042 32.9017 32.7253V33.1523H33.6666V31.3937ZM26.4987 31.3937C26.4987 32.4608 27.2417 33.2407 28.3755 33.2407C28.9054 33.2407 29.2584 33.1228 29.6408 32.8213L29.2735 32.2031C28.9863 32.4094 28.6847 32.5198 28.3528 32.5198C27.7421 32.5122 27.2931 32.0708 27.2931 31.3937C27.2931 30.7165 27.7421 30.2752 28.3528 30.2676C28.6847 30.2676 28.9863 30.3779 29.2735 30.5843L29.6408 29.9661C29.2584 29.6645 28.9054 29.5466 28.3755 29.5466C27.2417 29.5466 26.4987 30.3265 26.4987 31.3937ZM36.3605 29.5466C35.9191 29.5466 35.6318 29.753 35.433 30.0621V29.635H34.6749V33.1523H35.4406V31.1806C35.4406 30.5986 35.6908 30.2752 36.1912 30.2752C36.3462 30.2752 36.5079 30.2971 36.6697 30.3636L36.9055 29.6426C36.7362 29.5761 36.5155 29.5466 36.3605 29.5466ZM15.856 29.9147C15.4879 29.6721 14.9808 29.5466 14.4215 29.5466C13.5302 29.5466 12.9566 29.9736 12.9566 30.6727C12.9566 31.2463 13.3837 31.6 14.1704 31.7104L14.5318 31.7617C14.9513 31.8207 15.1493 31.931 15.1493 32.1298C15.1493 32.4018 14.8696 32.5568 14.3473 32.5568C13.8175 32.5568 13.435 32.3875 13.1773 32.1888L12.8167 32.7842C13.2362 33.0933 13.7661 33.2407 14.3398 33.2407C15.3557 33.2407 15.9445 32.7623 15.9445 32.0927C15.9445 31.4745 15.4812 31.1511 14.7155 31.0408L14.3549 30.9885C14.0239 30.9448 13.7585 30.8791 13.7585 30.6432C13.7585 30.3855 14.0087 30.2314 14.4282 30.2314C14.8772 30.2314 15.3119 30.4007 15.525 30.5329L15.856 29.9147ZM25.7254 29.5466C25.284 29.5466 24.9967 29.753 24.7988 30.0621V29.635H24.0406V33.1523H24.8055V31.1806C24.8055 30.5986 25.0557 30.2752 25.5561 30.2752C25.7111 30.2752 25.8728 30.2971 26.0346 30.3636L26.2704 29.6426C26.1011 29.5761 25.8804 29.5466 25.7254 29.5466ZM19.1978 29.635H17.9468V28.5679H17.1735V29.635H16.46V30.3341H17.1735V31.9386C17.1735 32.7547 17.4903 33.2407 18.395 33.2407C18.7269 33.2407 19.1093 33.138 19.3519 32.9687L19.1312 32.3134C18.903 32.4456 18.6528 32.5122 18.454 32.5122C18.0715 32.5122 17.9468 32.2763 17.9468 31.9234V30.3341H19.1978V29.635ZM7.76075 33.1523V30.9448C7.76075 30.1134 7.23089 29.5542 6.37671 29.5466C5.92772 29.539 5.46441 29.6788 5.14009 30.1724C4.89749 29.7824 4.51504 29.5466 3.9776 29.5466C3.6019 29.5466 3.23462 29.6569 2.94737 30.0688V29.635H2.18164V33.1523H2.95411V31.2025C2.95411 30.5918 3.29274 30.2676 3.81586 30.2676C4.32382 30.2676 4.58075 30.5986 4.58075 31.1949V33.1523H5.35406V31.2025C5.35406 30.5918 5.70701 30.2676 6.21497 30.2676C6.73725 30.2676 6.98744 30.5986 6.98744 31.1949V33.1523H7.76075Z" fill="white"/>
<path d="M42.456 21.4551V20.9413H42.3221L42.1671 21.2942L42.0129 20.9413H41.8781V21.4551H41.9733V21.0676L42.1182 21.402H42.2168L42.3617 21.0668V21.4551H42.456ZM41.606 21.4551V21.0289H41.7779V20.9421H41.3398V21.0289H41.5117V21.4551H41.606Z" fill="#F79410"/>
<path d="M27.2263 23.6645H15.6338V2.83398H27.2263V23.6645Z" fill="#FF5F00"/>
<path d="M16.3759 13.2474C16.3759 9.02178 18.3547 5.25776 21.4361 2.83208C19.1828 1.05829 16.3389 -0.000415802 13.2482 -0.000415802C5.93122 -0.000415802 0 5.93072 0 13.2474C0 20.564 5.93122 26.4951 13.2482 26.4951C16.3389 26.4951 19.1828 25.4364 21.4361 23.6626C18.3547 21.2369 16.3759 17.4729 16.3759 13.2474Z" fill="#EB001B"/>
<path d="M42.8608 13.2474C42.8608 20.564 36.9296 26.4951 29.6126 26.4951C26.5219 26.4951 23.678 25.4364 21.4238 23.6626C24.5061 21.2369 26.4849 17.4729 26.4849 13.2474C26.4849 9.02178 24.5061 5.25776 21.4238 2.83208C23.678 1.05829 26.5219 -0.000415802 29.6126 -0.000415802C36.9296 -0.000415802 42.8608 5.93072 42.8608 13.2474Z" fill="#F79E1B"/>
</svg>
