<svg width="65" height="34" viewBox="0 0 65 34" fill="none" xmlns="http://www.w3.org/2000/svg">
<g clip-path="url(#clip0_1_54058)">
<path d="M48.5314 32.8311C41.3217 32.8311 37.3562 32.8311 34.708 30.2085C33.5769 29.0869 32.8827 27.6631 32.5 25.6583C32.1207 27.6731 31.4265 29.0869 30.2954 30.2085C27.6506 32.8311 23.6782 32.8311 16.4684 32.8311C9.2586 32.8311 5.29307 32.8311 2.64486 30.2085C-0.00336677 27.5858 2.16567e-08 23.6502 2.16567e-08 16.5009C2.16567e-08 9.3517 1.97589e-05 5.41943 2.64486 2.79346C5.2897 0.167478 9.2586 0.170898 16.4684 0.170898C23.6782 0.170898 27.6438 0.170836 30.2954 2.79346C31.4231 3.91504 32.1207 5.33886 32.5 7.34361C32.8827 5.3288 33.5769 3.91504 34.708 2.79346C37.3528 0.170836 41.3217 0.170898 48.5314 0.170898C55.7416 0.170898 59.707 0.170836 62.3586 2.79346C65.0102 5.41609 65 9.3517 65 16.5009C65 23.6502 65 27.5825 62.3586 30.2085C59.7171 32.8345 55.7416 32.8311 48.5314 32.8311Z" fill="white"/>
<path d="M15.9988 12.8877C15.9988 13.3108 15.8125 13.6534 15.1419 13.6534C14.4714 13.6534 14.2852 13.3175 14.2852 12.8877C14.2852 12.4579 14.5053 12.1221 15.1419 12.1221C15.7786 12.1221 15.9988 12.4579 15.9988 12.8877Z" fill="white"/>
<path d="M15.6322 18.6059L14.149 19.6133L15.6187 14.4688H12.9502L12.5742 15.5031H14.1354L13.1194 19.1969C13.0537 19.413 13.0571 19.6441 13.1293 19.8582C13.2015 20.0723 13.3388 20.2589 13.5224 20.3924C13.7137 20.5261 13.9421 20.5978 14.1761 20.5978C14.4101 20.5978 14.6384 20.5261 14.8296 20.3924L16.2113 19.4622C16.0691 19.2305 15.7914 18.8241 15.6322 18.6059Z" fill="black"/>
<path d="M5.85547 12.5312H8.32421C9.36388 12.5312 10.3222 12.8671 10.8234 13.5588C11.3246 14.2506 11.5752 15.2379 11.5752 16.5575C11.5752 17.8773 11.3246 18.8747 10.8234 19.5597C10.3222 20.2447 9.55344 20.5872 8.51381 20.5872H5.85547V12.5312ZM8.43252 19.5227C8.68667 19.5407 8.94134 19.4959 9.17364 19.3921C9.40597 19.2884 9.60869 19.129 9.76347 18.9283C10.0862 18.4218 10.239 17.827 10.2003 17.2292V15.8859C10.2385 15.287 10.0858 14.6914 9.76347 14.1835C9.60869 13.9828 9.40597 13.8234 9.17364 13.7197C8.94134 13.6159 8.68667 13.5711 8.43252 13.5891H7.14913V19.5194L8.43252 19.5227Z" fill="black"/>
<path d="M23.1936 20.5642C23.5868 20.5746 23.9768 20.4909 24.3304 20.3202C24.6842 20.1495 24.9912 19.8969 25.2255 19.5836L25.256 19.5366V19.5937C25.3509 20.2216 25.7098 20.5037 26.421 20.5037C26.582 20.5058 26.743 20.4935 26.9018 20.4668V19.2545H26.6919C26.4447 19.2545 26.3194 19.127 26.3194 18.8684V16.3465C26.3194 15.094 25.449 14.3317 23.9895 14.3317C23.5203 14.323 23.054 14.4077 22.6184 14.5807C22.1827 14.7538 21.7865 15.0116 21.453 15.3391L22.259 16.2156C22.4687 15.9867 22.7236 15.803 23.0078 15.676C23.2921 15.5489 23.5998 15.481 23.9116 15.4767C24.6092 15.4767 25.0596 15.7656 25.0596 16.2088C25.0596 16.6521 24.5381 16.736 23.7965 16.8368C23.2177 16.8802 22.6536 17.0378 22.137 17.3002C21.8711 17.4459 21.6521 17.6632 21.5053 17.927C21.3585 18.1908 21.2899 18.4903 21.3074 18.7912C21.3107 19.859 22.0693 20.5642 23.1936 20.5642ZM23.9014 17.7871H23.9488C24.3103 17.7554 24.6634 17.6611 24.9919 17.5083L25.0257 17.4882V18.1598C25.0257 18.8851 24.3485 19.4728 23.4849 19.4728C23.3757 19.4882 23.2644 19.4795 23.159 19.4475C23.0535 19.4155 22.9565 19.3608 22.8748 19.2874C22.793 19.214 22.7285 19.1237 22.6859 19.0228C22.6433 18.922 22.6235 18.8131 22.6281 18.7038C22.6281 18.0188 23.2444 17.9046 23.9014 17.7871Z" fill="black"/>
<path d="M20.2292 12.8877C20.2292 13.3108 20.0396 13.6534 19.3724 13.6534C18.7053 13.6534 18.5156 13.3175 18.5156 12.8877C18.5156 12.4579 18.7324 12.1221 19.3724 12.1221C20.0125 12.1221 20.2292 12.4579 20.2292 12.8877Z" fill="black"/>
<path d="M19.7764 18.6573L18.388 19.6211L19.8611 14.4766H17.2197L16.8438 15.5109H18.3778L17.3619 19.2047C17.2959 19.4211 17.2996 19.6525 17.3725 19.8668C17.4453 20.081 17.5837 20.2675 17.7683 20.4002C17.9595 20.5339 18.1878 20.6056 18.4218 20.6056C18.6558 20.6056 18.8842 20.5339 19.0754 20.4002L20.3556 19.5203C20.2133 19.2853 19.939 18.8789 19.7764 18.6573Z" fill="black"/>
<path d="M50.274 15.5332V18.7737C50.2602 18.8708 50.2695 18.9696 50.3004 19.0627C50.3313 19.1558 50.3829 19.2407 50.4519 19.3109C50.5206 19.3812 50.6047 19.4349 50.6977 19.4681C50.7908 19.5013 50.8903 19.513 50.9882 19.5023H52.1533V20.577H50.8801C49.5931 20.577 49.041 19.9053 49.041 18.7737V15.5332H47.832V14.4989H49.0378L49.2003 12.877H50.2634V14.4989H52.1432V15.5332H50.274Z" fill="black"/>
<path d="M59.4511 14.4863L56.7723 21.4173C56.676 21.7691 56.4615 22.0775 56.1637 22.2913C55.866 22.5051 55.5036 22.6115 55.1367 22.5927H53.8904V21.518H54.9743C55.1047 21.531 55.2359 21.5004 55.3468 21.4311C55.4581 21.3617 55.5426 21.2576 55.5869 21.1353L55.7701 20.6684L53.1758 14.4863H54.5306L56.4099 19.2681L58.1267 14.4863H59.4511Z" fill="black"/>
<path d="M45.3008 14.4795H46.5264V20.5576H45.3008V14.4795Z" fill="black"/>
<path d="M46.7722 12.8945C46.7722 13.3143 46.5824 13.6568 45.9154 13.6568C45.2483 13.6568 45.0586 13.321 45.0586 12.8945C45.0586 12.4681 45.2788 12.1289 45.9154 12.1289C46.552 12.1289 46.7722 12.4647 46.7722 12.8945Z" fill="black"/>
<path d="M42.9005 18.3038C42.606 19.0661 42.1896 19.4489 41.2954 19.4489C39.8155 19.4489 39.1788 18.3541 39.1788 16.5575C39.1788 14.761 39.8561 13.6663 41.2954 13.6663C42.1896 13.6663 42.6023 14.0491 42.8973 14.808L44.1266 14.4084C43.6354 13.1995 42.7717 12.5312 41.3157 12.5312C39.0874 12.5312 37.8242 14.1633 37.8242 16.5609C37.8242 18.9585 39.0264 20.5905 41.3157 20.5905C41.9267 20.6257 42.5325 20.4612 43.0403 20.1221C43.5481 19.783 43.9295 19.2882 44.1266 18.7134L42.9005 18.3038Z" fill="black"/>
</g>
<defs>
<clipPath id="clip0_1_54058">
<rect width="65" height="33" fill="white" transform="translate(0 0.170898)"/>
</clipPath>
</defs>
</svg>
