<svg width="115" height="34" viewBox="0 0 115 34" fill="none" xmlns="http://www.w3.org/2000/svg">
<g clip-path="url(#clip0_1_54097)">
<mask id="mask0_1_54097" style="mask-type:luminance" maskUnits="userSpaceOnUse" x="0" y="0" width="115" height="34">
<path d="M114.86 0.170898H0.860352V33.1709H114.86V0.170898Z" fill="white"/>
</mask>
<g mask="url(#mask0_1_54097)">
<path d="M47.0069 12.1151V9.2666H36.1729V27.9526H39.2848V20.2047H46.3154V17.3563H39.2848V12.1151H47.0069Z" fill="white"/>
<path d="M76.7432 19.8624V27.952H79.6245V19.0648C79.6245 17.0139 78.5876 13.2539 74.0922 13.2539C70.6345 13.2539 69.2515 15.4188 69.2515 15.4188L69.0209 13.5957H66.4854V28.066H69.482V20.7739C69.482 17.5836 71.2108 16.1024 73.4007 16.1024C76.0513 15.8745 76.7432 18.0393 76.7432 19.8624Z" fill="white"/>
<path d="M108.553 26.6974L114.547 13.4805H111.55L107.171 23.621L102.56 13.4805H99.333L105.557 26.8113C105.442 27.1532 104.635 29.0901 103.943 29.6598C103.367 30.2295 102.675 30.3434 101.753 30.3434L102.214 32.85C102.906 32.85 103.482 32.7361 104.174 32.5083C104.75 32.2804 105.326 31.9385 105.787 31.4828C107.171 30.1156 108.323 27.1532 108.323 27.1532L108.553 26.6974Z" fill="white"/>
<path d="M56.688 13.2539H55.8813C53.9219 13.2539 52.0778 14.0515 50.81 15.4188C49.4269 16.7861 48.7354 18.609 48.7354 20.546V21.1157C48.7354 23.0527 49.5421 24.8756 50.81 26.2429C52.193 27.6102 54.0372 28.2938 55.8813 28.2938H56.688C58.6474 28.2938 60.4915 27.4963 61.8746 26.2429C63.2576 24.8756 63.9492 23.0527 63.9492 21.1157V20.546C63.9492 18.609 63.1424 16.7861 61.8746 15.4188C60.4915 14.0515 58.6474 13.2539 56.688 13.2539ZM61.0678 20.8878C61.0678 22.1412 60.6067 23.2805 59.6847 24.0781C58.7626 24.9896 57.6101 25.4453 56.4575 25.4453H56.3423C55.0745 25.4453 53.9219 24.9896 53.1151 24.0781C52.193 23.1666 51.732 22.0272 51.732 20.8878V20.546C51.732 19.2927 52.193 18.1533 53.1151 17.3557C54.0371 16.4442 55.1897 15.9885 56.3423 15.9885H56.4575C57.7254 15.9885 58.8779 16.4442 59.6847 17.3557C60.6067 18.2673 61.0678 19.4066 61.0678 20.546V20.8878Z" fill="white"/>
<path d="M94.3787 8.35352V14.8481C93.1109 13.8226 91.4968 13.2529 89.8834 13.2529H89.4223C87.4632 13.2529 85.6189 14.0505 84.2356 15.4177C82.8531 16.785 82.1611 18.6081 82.1611 20.545V21.1147C82.1611 23.0516 82.9678 24.8747 84.2356 26.2419C85.6189 27.6092 87.4632 28.2928 89.4223 28.2928H89.8834C91.7277 28.2928 93.4566 27.6092 94.8398 26.3559L95.07 27.951H97.3754V8.35352H94.3787ZM94.4935 20.8868C94.4935 22.1401 94.0324 23.2795 93.1109 24.0771C92.1888 24.9886 91.0357 25.4444 89.8834 25.4444H89.7679C88.5001 25.4444 87.3478 24.9886 86.5411 24.0771C85.6189 23.1656 85.1578 22.0262 85.1578 20.8868V20.545C85.1578 19.2917 85.6189 18.1523 86.5411 17.3547C87.4632 16.4432 88.6156 15.9874 89.7679 15.9874H89.8834C91.1512 15.9874 92.3042 16.4432 93.1109 17.3547C94.0324 18.2662 94.4935 19.4056 94.4935 20.545V20.8868Z" fill="white"/>
<path d="M16.4652 27.7249V24.6486C16.4652 24.5347 16.4652 24.3067 16.3499 24.1928C16.2347 24.0789 16.1195 23.965 16.0042 23.851L13.238 22.3698C13.1228 22.2559 12.8923 22.2559 12.777 22.2559C12.6618 22.2559 12.4312 22.2559 12.316 22.3698L9.66511 23.851C9.54988 23.965 9.43457 24.0789 9.31934 24.1928C9.2041 24.3067 9.2041 24.5347 9.2041 24.6486V27.7249C9.2041 27.8389 9.2041 28.0667 9.31934 28.1807C9.43457 28.2946 9.54988 28.4086 9.66511 28.5225L12.316 30.0037C12.4312 30.1176 12.6618 30.1176 12.777 30.1176C12.8923 30.1176 13.1228 30.1176 13.238 30.0037L15.8889 28.5225C16.0042 28.4086 16.1195 28.2946 16.2347 28.1807C16.4652 28.0667 16.4652 27.9528 16.4652 27.7249Z" fill="#08A835"/>
<path d="M25.2231 27.7249V24.6486C25.2231 24.5347 25.2231 24.3067 25.1078 24.1928C24.9926 24.0789 24.8774 23.965 24.7621 23.851L21.9959 22.3698C21.8807 22.2559 21.6501 22.2559 21.5349 22.2559C21.4196 22.2559 21.1891 22.2559 21.0739 22.3698L18.423 23.851C18.3077 23.965 18.1925 24.0789 18.0772 24.1928C17.9619 24.3067 17.9619 24.5347 17.9619 24.6486V27.7249C17.9619 27.8389 17.9619 28.0667 18.0772 28.1807C18.1925 28.2946 18.3077 28.4086 18.423 28.5225L21.0739 30.0037C21.1891 30.1176 21.4196 30.1176 21.5349 30.1176C21.6501 30.1176 21.8807 30.1176 21.9959 30.0037L24.6468 28.5225C24.7621 28.4086 24.8774 28.2946 24.9926 28.1807C25.1078 28.0667 25.2231 27.9528 25.2231 27.7249Z" fill="#08A835"/>
<path d="M12.0863 20.2044V17.1281C12.0863 17.0141 12.0863 16.7862 11.9711 16.6723C11.8559 16.5584 11.7405 16.4444 11.6253 16.3305L8.97441 14.8493C8.85918 14.7354 8.62863 14.7354 8.5134 14.7354C8.39817 14.7354 8.16762 14.7354 8.05237 14.8493L5.40148 16.3305C5.28622 16.4444 5.17096 16.5584 5.05571 16.6723C4.8252 16.7862 4.8252 17.0141 4.8252 17.1281V20.2044C4.8252 20.3183 4.8252 20.5462 4.94045 20.6601C5.05571 20.7741 5.17096 20.888 5.28622 21.002L7.93711 22.4832C8.05237 22.5971 8.28286 22.5971 8.39817 22.5971C8.5134 22.5971 8.74394 22.5971 8.85918 22.4832L11.5101 21.002C11.6253 20.888 11.7405 20.7741 11.8559 20.6601C12.0863 20.5462 12.0863 20.4323 12.0863 20.2044Z" fill="#08A835"/>
<path d="M20.8442 20.2044V17.1281C20.8442 17.0141 20.8442 16.7862 20.7289 16.6723C20.6136 16.5584 20.4984 16.4444 20.3831 16.3305L17.7322 14.8493C17.617 14.7354 17.3865 14.7354 17.2712 14.7354C17.1559 14.7354 16.9255 14.7354 16.8102 14.8493L14.044 16.3305C13.9288 16.4444 13.8135 16.5584 13.6982 16.6723C13.583 16.7862 13.583 17.0141 13.583 17.1281V20.2044C13.583 20.3183 13.583 20.5462 13.6982 20.6601C13.8135 20.7741 13.9288 20.888 14.044 21.002L16.6949 22.4832C16.8102 22.5971 17.0407 22.5971 17.1559 22.5971C17.2712 22.5971 17.5017 22.5971 17.617 22.4832L20.2679 21.002C20.3831 20.888 20.4984 20.7741 20.6136 20.6601C20.7289 20.5462 20.8442 20.4323 20.8442 20.2044Z" fill="#08A835"/>
<path d="M7.70546 27.7239V24.6476C7.70546 24.5337 7.70546 24.3058 7.5902 24.1918C7.47495 24.0779 7.35969 23.964 7.24444 23.85L4.59354 22.3688C4.47829 22.2549 4.24777 22.2549 4.13251 22.2549C4.01726 22.2549 3.78674 22.2549 3.67149 22.3688L1.0206 23.85C0.905339 23.964 0.790083 24.0779 0.674826 24.1918C0.55957 24.3058 0.55957 24.5337 0.55957 24.6476V27.7239C0.55957 27.8379 0.55957 28.0658 0.674826 28.1797C0.790083 28.2937 0.905339 28.4076 1.0206 28.5215L3.67149 30.0027C3.78674 30.1166 4.01726 30.1166 4.13251 30.1166C4.24777 30.1166 4.47829 30.1166 4.59354 30.0027L7.24444 28.5215C7.35969 28.4076 7.47495 28.2937 7.5902 28.1797C7.70546 28.0658 7.70546 27.9518 7.70546 27.7239Z" fill="#08A835"/>
<path d="M16.4632 12.6839V9.60759C16.4632 9.49359 16.4632 9.26575 16.348 9.15183C16.2328 9.03784 16.1174 8.92391 16.0022 8.80999L13.3513 7.32878C13.2361 7.21484 13.0055 7.21484 12.8903 7.21484C12.7751 7.21484 12.5445 7.21484 12.4293 7.32878L9.77839 8.80999C9.66309 8.92391 9.54785 9.03784 9.43262 9.15183C9.31738 9.26575 9.31738 9.49359 9.31738 9.60759V12.6839C9.31738 12.7978 9.31738 13.0257 9.43262 13.1397C9.54785 13.2536 9.66309 13.3675 9.77839 13.4815L12.4293 14.9627C12.5445 15.0766 12.7751 15.0766 12.8903 15.0766C13.0055 15.0766 13.2361 15.0766 13.3513 14.9627L16.0022 13.4815C16.1174 13.3675 16.2328 13.2536 16.348 13.1397C16.4632 13.0257 16.4632 12.9117 16.4632 12.6839Z" fill="white"/>
<path d="M39.6325 1.06252C39.9782 1.40434 40.2087 1.74615 40.2087 2.31584C40.2087 2.88554 39.9782 3.22735 39.6325 3.56917C39.2867 3.91098 38.8256 4.02492 38.1342 4.02492H36.9816V5.50612H36.29V0.720703H38.1342C38.7104 0.720703 39.2867 0.834641 39.6325 1.06252ZM39.0562 3.11342C39.2867 2.99948 39.4019 2.65766 39.4019 2.31584C39.4019 1.97403 39.2867 1.74615 39.0562 1.51827C38.8256 1.29039 38.4799 1.29039 38.0188 1.29039H36.8663V3.45523H38.0188C38.5952 3.45523 38.8256 3.34129 39.0562 3.11342Z" fill="white"/>
<path d="M42.1653 1.97331C42.3958 1.85938 42.6263 1.85938 42.972 1.85938V2.54301H42.8568C42.511 2.54301 42.1653 2.65694 42.05 2.88482C41.7042 2.99876 41.7042 3.22664 41.7042 3.68239V5.50541H41.0127V1.85938H41.7042V2.42906C41.7042 2.20119 41.9348 2.08725 42.1653 1.97331Z" fill="white"/>
<path d="M44.3566 5.27753C44.0108 5.16359 43.8956 4.93571 43.665 4.5939C43.5498 4.36602 43.4346 4.0242 43.4346 3.68239C43.4346 3.34057 43.5498 2.99876 43.665 2.77088C43.7803 2.54301 44.0108 2.31513 44.3566 2.08725C44.7024 1.97331 44.9329 1.85938 45.3939 1.85938C45.7397 1.85938 46.0855 1.97331 46.3159 2.08725C46.5465 2.20119 46.777 2.42906 47.0075 2.77088C47.1228 2.99876 47.238 3.34057 47.238 3.68239C47.238 4.0242 47.1228 4.36602 47.0075 4.5939C46.777 4.82178 46.5465 5.04965 46.3159 5.27753C46.0855 5.39147 45.7397 5.50541 45.3939 5.50541C44.9329 5.50541 44.5871 5.39147 44.3566 5.27753ZM45.9702 4.70783C46.2007 4.5939 46.3159 4.47996 46.4312 4.25208C46.5465 4.0242 46.5465 3.79633 46.5465 3.56845C46.5465 3.34057 46.5465 3.11269 46.4312 2.88482C46.3159 2.65694 46.2007 2.54301 45.9702 2.42906C45.7397 2.31513 45.6245 2.31513 45.3939 2.31513C45.1634 2.31513 44.9329 2.31513 44.8177 2.42906C44.5871 2.54301 44.4719 2.65694 44.3566 2.88482C44.2414 3.11269 44.2414 3.34057 44.2414 3.56845C44.2414 3.79633 44.2414 4.0242 44.3566 4.25208C44.4719 4.47996 44.5871 4.5939 44.8177 4.70783C45.0481 4.82178 45.1634 4.82178 45.3939 4.82178C45.6245 4.82178 45.7397 4.82178 45.9702 4.70783Z" fill="white"/>
<path d="M48.7356 5.27819C48.3898 5.16426 48.1593 4.93638 48.044 4.59456C47.9288 4.36668 47.8135 4.02487 47.8135 3.68305C47.8135 3.34123 47.9288 2.99942 48.044 2.77154C48.1593 2.54367 48.3898 2.31579 48.7356 2.08791C49.0813 1.86004 49.3118 1.74609 49.7728 1.74609C50.1186 1.74609 50.3491 1.86004 50.6949 1.97397C50.9254 2.08791 51.1559 2.31579 51.2712 2.54367L50.8102 2.88548C50.6949 2.6576 50.5797 2.54367 50.3491 2.54367C50.2339 2.42972 50.0034 2.42972 49.7728 2.42972C49.5424 2.42972 49.3118 2.42972 49.0813 2.54367C48.8508 2.6576 48.7356 2.77154 48.6203 2.99942C48.505 3.2273 48.505 3.45518 48.505 3.68305C48.505 3.91093 48.505 4.13881 48.6203 4.36668C48.7356 4.59456 48.8508 4.7085 49.0813 4.82244C49.3118 4.93638 49.5424 4.93638 49.7728 4.93638C50.0034 4.93638 50.1186 4.93638 50.3491 4.82244C50.4644 4.7085 50.6949 4.59456 50.8102 4.48062L51.2712 4.82244C51.0407 4.93638 50.9254 5.16426 50.5797 5.27819C50.3491 5.39213 50.0034 5.50607 49.6576 5.50607C49.3118 5.50607 49.0813 5.39213 48.7356 5.27819Z" fill="white"/>
<path d="M55.3044 3.91093H52.3077C52.3077 4.25274 52.5382 4.48062 52.7687 4.7085C52.9992 4.93638 53.345 5.05031 53.6908 5.05031C54.1518 5.05031 54.4976 4.93638 54.7281 4.59456L55.0738 5.05031C54.9586 5.27819 54.7281 5.39213 54.4976 5.50607C54.267 5.62001 53.9213 5.62001 53.6908 5.62001C53.345 5.62001 52.9992 5.50607 52.6535 5.39213C52.3077 5.27819 52.0772 5.05031 51.9619 4.7085C51.8467 4.48062 51.7314 4.13881 51.7314 3.79699C51.7314 3.45517 51.8467 3.11336 51.9619 2.88548C52.0772 2.6576 52.3077 2.42972 52.6535 2.20185C52.884 1.86004 53.2298 1.74609 53.5756 1.74609C53.9213 1.74609 54.267 1.86004 54.4976 1.97397C54.7281 2.08791 54.9586 2.31579 55.1891 2.6576C55.4196 2.99942 55.4196 3.2273 55.4196 3.68305C55.3044 3.68305 55.3044 3.79699 55.3044 3.91093ZM52.7687 2.6576C52.5382 2.88548 52.423 3.11336 52.423 3.45518H54.7281C54.7281 3.11336 54.6128 2.88548 54.3823 2.6576C54.1518 2.42972 53.9213 2.31579 53.5756 2.31579C53.2298 2.31579 52.9992 2.42972 52.7687 2.6576Z" fill="white"/>
<path d="M56.4582 5.39213C56.2276 5.27819 55.9971 5.16426 55.7666 5.05031L55.9971 4.48062C56.1124 4.59456 56.3429 4.7085 56.5734 4.7085C56.8039 4.82244 57.0344 4.82244 57.2649 4.82244C57.8413 4.82244 58.187 4.7085 58.187 4.36668C58.187 4.25274 58.187 4.13881 58.0717 4.13881C58.0717 4.13881 57.9565 4.02487 57.8413 4.02487C57.7259 4.02487 57.6107 3.91093 57.3802 3.91093C57.0344 3.91093 56.8039 3.79699 56.6887 3.79699C56.4582 3.68305 56.3429 3.68305 56.2276 3.45518C56.1124 3.2273 55.9971 3.11336 55.9971 2.88548C55.9971 2.54367 56.1124 2.31579 56.4582 2.08791C56.6887 1.86004 57.1497 1.74609 57.6107 1.74609C57.8413 1.74609 58.0717 1.74609 58.3023 1.86004C58.5327 1.97397 58.7633 1.97397 58.8785 2.08791L58.648 2.6576C58.3023 2.42972 57.9565 2.31579 57.6107 2.31579C57.3802 2.31579 57.1497 2.31579 56.9192 2.42972C56.8039 2.54367 56.6887 2.6576 56.6887 2.77154C56.6887 2.88548 56.6887 2.99942 56.8039 2.99942C56.9192 2.99942 57.0345 3.11336 57.1497 3.11336C57.2649 3.11336 57.4955 3.2273 57.6107 3.2273C57.9565 3.2273 58.187 3.34123 58.3023 3.34123C58.5327 3.45518 58.648 3.45518 58.7633 3.68305C58.8785 3.79699 58.9938 4.02487 58.9938 4.25275C58.9938 4.59456 58.8785 4.82244 58.5327 5.05031C58.3023 5.27819 57.8413 5.39213 57.3802 5.39213C57.0344 5.50607 56.6887 5.50607 56.4582 5.39213Z" fill="white"/>
<path d="M59.9151 5.39213C59.6846 5.27819 59.4541 5.16426 59.2236 5.05031L59.4541 4.48062C59.5694 4.59456 59.7999 4.7085 60.0304 4.7085C60.2609 4.82244 60.4914 4.82244 60.722 4.82244C61.2982 4.82244 61.644 4.7085 61.644 4.36668C61.644 4.25274 61.644 4.13881 61.5288 4.13881C61.5288 4.13881 61.4135 4.02487 61.2982 4.02487C61.183 4.02487 61.0677 3.91093 60.8372 3.91093C60.4914 3.91093 60.2609 3.79699 60.1457 3.79699C59.9151 3.68305 59.7999 3.68305 59.6846 3.45518C59.5693 3.2273 59.4541 3.11336 59.4541 2.88548C59.4541 2.54367 59.5693 2.31579 59.9151 2.08791C60.1457 1.86004 60.6067 1.74609 61.0677 1.74609C61.2982 1.74609 61.5288 1.74609 61.7592 1.86004C61.9898 1.97397 62.2202 1.97397 62.3355 2.08791L62.105 2.6576C61.7592 2.42972 61.4135 2.31579 61.0677 2.31579C60.8372 2.31579 60.6067 2.31579 60.3762 2.42972C60.2609 2.54367 60.1457 2.6576 60.1457 2.77154C60.1457 2.88548 60.1457 2.99942 60.2609 2.99942C60.3762 2.99942 60.4914 3.11336 60.6067 3.11336C60.722 3.11336 60.9524 3.2273 61.0677 3.2273C61.4135 3.2273 61.644 3.34123 61.7592 3.34123C61.9898 3.45518 62.105 3.45518 62.2202 3.68305C62.3355 3.79699 62.4508 4.02487 62.4508 4.25275C62.4508 4.59456 62.3355 4.82244 61.9898 5.05031C61.7592 5.27819 61.2982 5.39213 60.8372 5.39213C60.4914 5.50607 60.1457 5.50607 59.9151 5.39213Z" fill="white"/>
<path d="M66.488 3.91027H63.4914C63.4914 4.25208 63.7218 4.47996 63.9524 4.70783C64.1828 4.93571 64.5286 5.04965 64.8744 5.04965C65.3354 5.04965 65.6812 4.93571 65.9117 4.5939L66.2575 5.04965C66.1423 5.04965 65.9117 5.27753 65.6812 5.39147C65.4507 5.50541 65.1049 5.50541 64.8744 5.50541C64.5286 5.50541 64.1828 5.39147 63.8371 5.27753C63.4914 5.16359 63.2608 4.93571 63.1456 4.5939C63.0303 4.36602 62.915 4.0242 62.915 3.68239C62.915 3.34057 63.0303 2.99876 63.1456 2.77088C63.2608 2.54301 63.4914 2.31513 63.8371 2.08725C64.0676 1.97331 64.4134 1.85938 64.7592 1.85938C65.1049 1.85938 65.4507 1.97331 65.6812 2.08725C65.9117 2.20119 66.1422 2.42906 66.3727 2.77088C66.6033 3.11269 66.6033 3.34057 66.6033 3.79633C66.488 3.68239 66.488 3.79633 66.488 3.91027ZM63.9524 2.65694C63.7218 2.88482 63.6066 3.11269 63.6066 3.45452H65.9117C65.9117 3.11269 65.7965 2.88482 65.5659 2.65694C65.3354 2.42906 65.1049 2.31513 64.7592 2.31513C64.4134 2.31513 64.0676 2.42906 63.9524 2.65694Z" fill="white"/>
<path d="M70.8669 0.378906V5.50614H70.1754V4.93645C70.0601 5.16433 69.8296 5.27826 69.5991 5.39221C69.3686 5.50614 69.1381 5.50614 68.9075 5.50614C68.5618 5.50614 68.216 5.39221 67.9855 5.27826C67.755 5.16433 67.5245 4.93645 67.2939 4.59463C67.1787 4.36676 67.0635 4.02495 67.0635 3.68312C67.0635 3.34131 67.1787 2.99949 67.2939 2.77162C67.4092 2.54374 67.6397 2.31586 67.9855 2.08799C68.216 1.86011 68.5618 1.74617 68.9075 1.74617C69.1381 1.74617 69.3686 1.74617 69.5991 1.86011C69.8296 1.97405 70.0601 2.08799 70.1754 2.31586V0.378906H70.8669ZM69.5991 4.70858C69.8296 4.59463 69.9448 4.4807 70.0601 4.25282C70.1754 4.02495 70.1754 3.79707 70.1754 3.56919C70.1754 3.34131 70.1754 3.11344 70.0601 2.88556C69.9448 2.65768 69.8296 2.54374 69.5991 2.4298C69.3686 2.31586 69.2533 2.31586 69.0228 2.31586C68.7923 2.31586 68.5617 2.31586 68.4465 2.4298C68.216 2.65768 67.9855 2.77162 67.8703 2.99949C67.755 3.22737 67.755 3.45525 67.755 3.68312C67.755 3.911 67.755 4.13888 67.8703 4.36676C67.9855 4.59463 68.1007 4.70858 68.3313 4.82251C68.5618 4.93645 68.6771 4.93645 68.9075 4.93645C69.2533 4.93645 69.4838 4.82251 69.5991 4.70858Z" fill="white"/>
<path d="M76.8595 2.08799C77.0897 2.20193 77.3206 2.4298 77.5508 2.77162C77.6662 2.99949 77.7809 3.34131 77.7809 3.68312C77.7809 4.02495 77.6662 4.36676 77.5508 4.59463C77.4353 4.93645 77.2051 5.16433 76.8595 5.27826C76.6286 5.39221 76.283 5.50614 75.9373 5.50614C75.7064 5.50614 75.3608 5.50614 75.2453 5.39221C75.0152 5.27826 74.7843 5.16433 74.6695 4.93645V5.50614H73.9775V0.378906H74.6695V2.4298C74.7843 2.20193 75.0152 2.08799 75.2453 1.97405C75.4762 1.86011 75.7064 1.86011 75.9373 1.86011C76.283 1.74617 76.6286 1.86011 76.8595 2.08799ZM76.5131 4.70858C76.744 4.59463 76.8595 4.4807 76.9742 4.25282C77.0897 4.02495 77.0897 3.79707 77.0897 3.56919C77.0897 3.34131 77.0897 3.11344 76.9742 2.88556C76.8595 2.65768 76.744 2.54374 76.5131 2.4298C76.283 2.31586 76.1675 2.31586 75.9373 2.31586C75.7064 2.31586 75.4762 2.31586 75.3608 2.4298C75.1306 2.65768 74.8997 2.77162 74.7843 2.99949C74.6695 3.22737 74.6695 3.45525 74.6695 3.68312C74.6695 3.911 74.6695 4.13888 74.7843 4.36676C74.8997 4.59463 75.0152 4.70858 75.2453 4.82251C75.4762 4.93645 75.5917 4.93645 75.8219 4.93645C76.1675 4.93645 76.283 4.82251 76.5131 4.70858Z" fill="white"/>
<path d="M81.8141 1.85938L80.0852 5.84722C79.9697 6.18904 79.7395 6.41692 79.5086 6.64479C79.2785 6.75873 79.0476 6.87267 78.7019 6.87267C78.4718 6.87267 78.3563 6.87267 78.1261 6.75873C78.0107 6.64479 77.7798 6.64479 77.665 6.53086L77.8952 6.0751C78.1261 6.30298 78.3563 6.30298 78.5872 6.30298C78.7019 6.30298 78.9328 6.30298 79.0476 6.18904C79.163 6.0751 79.2785 5.96116 79.3939 5.73329L79.5086 5.50541L78.0107 1.85938H78.7019L79.9697 4.70783L81.2375 1.85938H81.8141Z" fill="white"/>
</g>
</g>
<defs>
<clipPath id="clip0_1_54097">
<rect width="114" height="33" fill="white" transform="translate(0.860352 0.170898)"/>
</clipPath>
</defs>
</svg>
